<svg width="512" height="512" viewBox="0 0 512 512" fill="none" xmlns="http://www.w3.org/2000/svg">
<path fill-rule="evenodd" clip-rule="evenodd" d="M256.063 73.935C292.07 73.9475 327.265 84.6364 357.197 104.65C387.13 124.664 410.456 153.104 424.226 186.374C437.996 219.644 441.591 256.25 434.558 291.564C427.524 326.877 410.178 359.312 384.711 384.767C359.245 410.223 326.803 427.555 291.486 434.573C256.17 441.591 219.565 437.98 186.301 424.195C153.037 410.411 124.607 387.073 104.606 357.132C84.6055 327.191 73.9318 291.991 73.9349 255.984C73.9349 232.071 78.6464 208.391 87.8001 186.299C96.9539 164.206 110.371 144.134 127.284 127.228C144.197 110.322 164.275 96.9142 186.372 87.77C208.468 78.6258 232.149 73.9246 256.063 73.935ZM256.063 110.66C284.812 110.663 312.915 119.192 336.817 135.167C360.719 151.142 379.347 173.846 390.346 200.409C401.344 226.971 404.218 256.198 398.606 284.394C392.993 312.591 379.144 338.489 358.812 358.814C338.48 379.14 312.577 392.98 284.38 398.583C256.182 404.187 226.955 401.303 200.397 390.296C173.838 379.289 151.139 360.654 135.172 336.746C119.205 312.839 110.685 284.733 110.692 255.984C110.694 236.897 114.456 217.996 121.763 200.363C129.069 182.729 139.778 166.707 153.277 153.212C166.777 139.718 182.802 129.014 200.438 121.713C218.074 114.412 236.975 110.656 256.063 110.66ZM294.286 292C299.275 286.701 306.165 283.601 313.44 283.383C320.715 283.164 327.778 285.844 333.077 290.833C338.376 295.822 341.476 302.712 341.694 309.987C341.913 317.261 339.233 324.325 334.244 329.624C320.828 343.976 303.743 354.386 284.838 359.729C265.932 365.071 245.925 365.142 226.982 359.934C208.039 354.725 190.881 344.436 177.363 330.18C163.846 315.923 154.485 298.241 150.292 279.048C146.1 259.854 147.235 239.88 153.577 221.285C159.918 202.69 171.223 186.184 186.269 173.551C201.314 160.918 219.528 152.64 238.94 149.612C258.351 146.585 278.221 148.923 296.399 156.374C309.315 161.685 321.091 169.426 331.09 179.175C336.276 184.275 339.223 191.226 339.284 198.5C339.345 205.773 336.514 212.772 331.414 217.958C326.313 223.144 319.362 226.091 312.089 226.152C304.816 226.213 297.816 223.381 292.631 218.281C287.778 213.447 282.009 209.631 275.662 207.056C269.315 204.481 262.518 203.199 255.669 203.285C246.908 203.267 238.28 205.431 230.564 209.581C222.849 213.732 216.288 219.738 211.475 227.058C206.661 234.379 203.746 242.782 202.993 251.511C202.24 260.24 203.672 269.019 207.16 277.055C210.649 285.092 216.083 292.133 222.974 297.544C229.864 302.955 237.994 306.565 246.629 308.048C255.263 309.531 264.131 308.84 272.432 306.038C280.733 303.237 288.206 298.412 294.176 292H294.286ZM256.063 235.785C260.066 235.781 263.981 236.966 267.31 239.189C270.64 241.411 273.236 244.572 274.768 248.27C276.301 251.968 276.702 256.038 275.921 259.965C275.139 263.891 273.211 267.497 270.379 270.327C267.547 273.157 263.939 275.083 260.012 275.861C256.085 276.639 252.016 276.235 248.318 274.699C244.621 273.164 241.463 270.566 239.243 267.234C237.023 263.903 235.841 259.988 235.848 255.984C235.852 250.625 237.983 245.488 241.774 241.7C245.565 237.912 250.704 235.785 256.063 235.785Z" fill="#E31E24"/>
</svg>
