<svg width="512" height="512" viewBox="0 0 512 512" fill="none" xmlns="http://www.w3.org/2000/svg">
<path fill-rule="evenodd" clip-rule="evenodd" d="M336.013 238.633H382.283C396.128 238.633 407.349 228.276 407.349 215.5C407.349 202.719 396.128 192.362 382.283 192.362H336.013V238.633ZM268.533 134.521H388.067C435.983 134.521 474.824 173.367 474.824 221.283C474.824 269.199 435.983 308.041 388.067 308.041H336.013V377.445H268.533V134.521Z" fill="#ED1C24"/>
<path fill-rule="evenodd" clip-rule="evenodd" d="M208.866 198.146L190.123 265.626H237.47L214.961 184.592V198.146H208.866ZM37.1755 134.521H268.533L336.013 377.445H268.533L255.145 329.246H172.448L160.569 372.02V377.445L159.052 377.479H91.5717V198.146H37.1755V134.521Z" fill="#ABD037"/>
<path fill-rule="evenodd" clip-rule="evenodd" d="M91.5717 377.479L159.052 134.555L201.057 134.521H214.961V184.592L213.799 180.394L208.866 198.146H160.569V372.02L159.052 377.479H91.5717Z" fill="#00944D"/>
<path fill-rule="evenodd" clip-rule="evenodd" d="M336.013 377.445H268.533V134.521L336.013 377.445Z" fill="#C9252B"/>
</svg>
