<svg width="512" height="512" viewBox="0 0 512 512" fill="none" xmlns="http://www.w3.org/2000/svg">
<path d="M256 257.099C256 210.174 294.04 172.132 340.967 172.132C387.892 172.132 425.933 210.174 425.933 257.099C425.933 304.025 387.892 342.066 340.967 342.066C294.04 342.066 256 304.025 256 257.099Z" fill="#1ABCFE"/>
<path d="M86.0665 427.032C86.0665 380.107 124.107 342.066 171.033 342.066H256V427.032C256 473.959 217.959 511.999 171.033 511.999C124.107 511.999 86.0665 473.959 86.0665 427.032Z" fill="#0ACF83"/>
<path d="M256 2.19946V172.132H340.967C387.893 172.132 425.933 134.092 425.933 87.1661C425.933 40.2404 387.893 2.19946 340.967 2.19946H256Z" fill="#FF7262"/>
<path d="M86.0665 87.1661C86.0665 134.092 124.107 172.132 171.033 172.132H256V2.1994H171.033C124.107 2.1994 86.0665 40.2403 86.0665 87.1661Z" fill="#F24E1E"/>
<path d="M86.0665 257.099C86.0665 304.025 124.107 342.066 171.033 342.066H256V172.132H171.033C124.107 172.132 86.0665 210.174 86.0665 257.099Z" fill="#A259FF"/>
</svg>
