<svg width="512" height="512" viewBox="0 0 512 512" fill="none" xmlns="http://www.w3.org/2000/svg">
<g clip-path="url(#clip0_14_220)">
<path d="M489 23H23V489H489V23Z" fill="#F7DF1E"/>
<path d="M336.034 387.064C345.42 402.391 357.632 413.656 379.231 413.656C397.375 413.656 408.966 404.587 408.966 392.057C408.966 377.042 397.057 371.723 377.086 362.988L366.139 358.291C334.539 344.828 313.547 327.964 313.547 292.311C313.547 259.469 338.571 234.468 377.678 234.468C405.519 234.468 425.535 244.158 439.959 269.529L405.86 291.423C398.352 277.961 390.252 272.658 377.678 272.658C364.852 272.658 356.723 280.794 356.723 291.423C356.723 304.56 364.859 309.878 383.647 318.015L394.594 322.705C431.8 338.66 452.807 354.925 452.807 391.495C452.807 430.92 421.837 452.519 380.244 452.519C339.577 452.519 313.303 433.139 300.447 407.738L336.034 387.064ZM181.344 390.859C188.223 403.064 194.481 413.382 209.526 413.382C223.913 413.382 232.988 407.753 232.988 385.866V236.968H276.778V386.458C276.778 431.8 250.193 452.437 211.39 452.437C176.329 452.437 156.024 434.293 145.698 412.439L181.344 390.859Z" fill="black"/>
</g>
<defs>
<clipPath id="clip0_14_220">
<rect width="466" height="466" fill="white" transform="translate(23 23)"/>
</clipPath>
</defs>
</svg>
