<svg width="64" height="65" viewBox="0 0 64 65" fill="none" xmlns="http://www.w3.org/2000/svg">
<g clip-path="url(#clip0_177_853)">
<path d="M46.3671 22.7097L46.3437 22.6997C46.3304 22.6946 46.317 22.6896 46.3053 22.678C46.2862 22.6574 46.272 22.6327 46.2639 22.6058C46.2558 22.5789 46.254 22.5505 46.2586 22.5227L47.5489 14.6344L53.5995 20.6867L47.3068 23.364C47.2893 23.371 47.2706 23.3744 47.2517 23.374H47.2267C47.2184 23.369 47.21 23.3623 47.1933 23.3456C46.9591 23.0849 46.6791 22.8693 46.3671 22.7097ZM55.1434 22.229L61.613 28.6985C62.9567 30.0439 63.6293 30.7149 63.8747 31.4927C63.9114 31.6078 63.9415 31.723 63.9648 31.8415L48.5036 25.2935C48.4953 25.2901 48.4869 25.2867 48.4786 25.2835C48.4168 25.2584 48.345 25.2301 48.345 25.1666C48.345 25.1032 48.4185 25.0732 48.4802 25.0481L48.5003 25.0398L55.1434 22.229ZM63.7011 33.9179C63.3673 34.5455 62.7163 35.1965 61.6147 36.2998L54.3205 43.5923L44.8866 41.6277L44.8365 41.6177C44.753 41.6043 44.6646 41.5893 44.6646 41.5142C44.6288 41.125 44.5132 40.7474 44.3251 40.4048C44.137 40.0622 43.8804 39.762 43.5713 39.5229C43.5329 39.4845 43.5429 39.4244 43.5546 39.3693C43.5546 39.361 43.5546 39.3527 43.5579 39.346L45.3322 28.4532L45.3389 28.4165C45.3489 28.333 45.364 28.2362 45.4391 28.2362C45.8193 28.1889 46.1863 28.0664 46.5187 27.8758C46.8511 27.6853 47.1423 27.4304 47.3753 27.1262C47.3903 27.1095 47.4003 27.0912 47.4203 27.0811C47.4737 27.0561 47.5372 27.0811 47.5923 27.1045L63.7011 33.9179ZM52.6431 45.2697L40.6486 57.2642L42.7017 44.6455L42.705 44.6288C42.7067 44.6121 42.71 44.5954 42.715 44.5804C42.7317 44.5403 42.7751 44.5236 42.8168 44.507L42.8369 44.4986C43.2864 44.3068 43.684 44.0111 43.9969 43.6357C44.037 43.5889 44.0854 43.5439 44.1472 43.5355C44.1632 43.5329 44.1795 43.5329 44.1956 43.5355L52.6414 45.2714L52.6431 45.2697ZM38.1099 59.8029L36.7579 61.1549L21.8107 39.5529C21.8053 39.545 21.7998 39.5373 21.794 39.5296C21.7707 39.4979 21.7456 39.4662 21.7506 39.4294C21.7523 39.4027 21.769 39.3794 21.7874 39.3593L21.8041 39.3376C21.8491 39.2709 21.8875 39.2041 21.9292 39.1323L21.9626 39.0739L21.9676 39.0689C21.991 39.0288 22.0127 38.9904 22.0528 38.9687C22.0878 38.9521 22.1362 38.9587 22.1746 38.9671L38.7341 42.3821C38.7804 42.3893 38.8241 42.4083 38.861 42.4372C38.8827 42.4589 38.8877 42.4823 38.8927 42.509C39.0082 42.946 39.2232 43.3504 39.5208 43.6907C39.8185 44.0309 40.1908 44.2977 40.6086 44.4702C40.6553 44.4936 40.6353 44.5453 40.6136 44.6004C40.6028 44.6246 40.5944 44.6497 40.5885 44.6755C40.3799 45.9441 38.5906 56.8569 38.1099 59.8029ZM35.2857 62.6254C34.2892 63.6119 33.7017 64.1343 33.0374 64.3447C32.3824 64.5518 31.6794 64.5518 31.0244 64.3447C30.2466 64.0976 29.5739 63.4266 28.2302 62.0813L13.2197 47.0707L17.1405 40.9901C17.1588 40.96 17.1772 40.9333 17.2073 40.9116C17.249 40.8816 17.3091 40.8949 17.3591 40.9116C18.2591 41.1831 19.2253 41.1342 20.0932 40.7731C20.1383 40.7564 20.1833 40.7447 20.2184 40.7764C20.2359 40.7924 20.2516 40.8103 20.2651 40.8298L35.2857 62.6254ZM11.7725 45.6236L8.32911 42.1802L15.1292 39.2792C15.1466 39.2716 15.1653 39.2677 15.1843 39.2675C15.241 39.2675 15.2744 39.3243 15.3044 39.376C15.3728 39.4812 15.4452 39.5836 15.5214 39.6831L15.5431 39.7098C15.5632 39.7382 15.5498 39.7666 15.5298 39.7933L11.7725 45.6236ZM6.80518 40.6562L2.44873 36.2998C1.70763 35.5587 1.17017 35.0212 0.796283 34.5589L14.0426 37.3063C14.0592 37.3094 14.0759 37.3122 14.0926 37.3146C14.1744 37.328 14.2646 37.343 14.2646 37.4198C14.2646 37.5032 14.1661 37.5416 14.0826 37.5734L14.0442 37.59L6.80518 40.6562ZM0.0351562 32.3189C0.0502522 32.0383 0.100726 31.7607 0.185379 31.4927C0.432411 30.7149 1.1034 30.0439 2.44873 28.6985L8.02365 23.1236C10.5905 26.8489 13.1643 30.5694 15.7451 34.2851C15.7902 34.3452 15.8402 34.412 15.7885 34.4621C15.5448 34.7308 15.3011 35.0246 15.1292 35.3434C15.1105 35.3844 15.0818 35.42 15.0457 35.4469C15.024 35.4602 15.0007 35.4552 14.9756 35.4502H14.9723L0.0351562 32.3189ZM9.51586 21.6314L17.012 14.1353C17.7163 14.4441 20.2801 15.5274 22.5735 16.4955C24.3094 17.2299 25.8918 17.8975 26.3892 18.1145C26.4393 18.1346 26.4843 18.1546 26.506 18.2047C26.5194 18.2347 26.5127 18.2731 26.506 18.3048C26.3874 18.8459 26.405 19.408 26.5574 19.9406C26.7098 20.4732 26.9921 20.9595 27.379 21.356C27.4291 21.4061 27.379 21.4778 27.3356 21.5396L27.3122 21.5747L19.7009 33.3638C19.6809 33.3972 19.6626 33.4255 19.6292 33.4472C19.5891 33.4723 19.5324 33.4606 19.4856 33.4489C19.1896 33.3714 18.8853 33.3299 18.5793 33.3254C18.3055 33.3254 18.0084 33.3755 17.708 33.4305C17.6746 33.4356 17.6429 33.4422 17.6162 33.4222C17.5867 33.3981 17.5613 33.3693 17.5411 33.3371L9.51586 21.6314ZM18.5259 12.6214L28.2302 2.91703C29.5739 1.57337 30.2466 0.900706 31.0244 0.655343C31.6794 0.448219 32.3824 0.448219 33.0374 0.655343C33.8152 0.900706 34.4878 1.57337 35.8315 2.91703L37.9346 5.02014L31.0327 15.7093C31.0157 15.7404 30.9924 15.7677 30.9643 15.7894C30.9226 15.8178 30.8641 15.8061 30.8141 15.7894C30.2699 15.6243 29.6937 15.5942 29.1353 15.7018C28.5769 15.8094 28.0532 16.0515 27.6093 16.407C27.5643 16.4537 27.4975 16.427 27.4407 16.402C26.5394 16.0097 19.529 13.047 18.5259 12.6214ZM39.4001 6.48564L45.7729 12.8584L44.2373 22.3692V22.3942C44.2359 22.4159 44.2314 22.4372 44.2239 22.4576C44.2072 22.491 44.1739 22.4977 44.1405 22.5077C43.8122 22.6072 43.5029 22.7612 43.2258 22.9634C43.2139 22.9719 43.2027 22.9814 43.1924 22.9918C43.174 23.0118 43.1557 23.0301 43.1256 23.0335C43.1012 23.0342 43.0768 23.0303 43.0539 23.0218L33.3428 18.8957L33.3245 18.8873C33.2627 18.8623 33.1893 18.8323 33.1893 18.7688C33.1322 18.2277 32.9554 17.706 32.6718 17.2416C32.6251 17.1648 32.5733 17.0847 32.6134 17.0062L39.4001 6.48564ZM32.8371 20.8502L41.9406 24.706C41.9906 24.7293 42.0457 24.751 42.0674 24.8028C42.0761 24.8339 42.0761 24.8668 42.0674 24.8979C42.0407 25.0314 42.0173 25.1833 42.0173 25.3369V25.5923C42.0173 25.6557 41.9522 25.6824 41.8921 25.7074L41.8738 25.7141C40.4316 26.33 21.6271 34.3486 21.5988 34.3486C21.5704 34.3486 21.5403 34.3486 21.512 34.3202C21.4619 34.2701 21.512 34.2 21.557 34.1366C21.565 34.1256 21.5728 34.1145 21.5804 34.1032L29.0615 22.5194L29.0748 22.4994C29.1182 22.4293 29.1683 22.3508 29.2484 22.3508L29.3235 22.3625C29.4938 22.3859 29.644 22.4076 29.7959 22.4076C30.9309 22.4076 31.9825 21.8551 32.6167 20.9103C32.6319 20.8851 32.651 20.8626 32.6735 20.8436C32.7186 20.8102 32.7853 20.8269 32.8371 20.8502ZM22.4116 36.1813L42.9087 27.44C42.9087 27.44 42.9387 27.44 42.9671 27.4684C43.0789 27.5802 43.174 27.6553 43.2658 27.7254L43.3109 27.7538C43.3526 27.7772 43.3944 27.8039 43.3977 27.8473C43.3977 27.864 43.3977 27.874 43.3944 27.889L41.6384 38.675L41.6318 38.7184C41.6201 38.8018 41.6084 38.897 41.5299 38.897C41.0618 38.9286 40.6084 39.0738 40.2091 39.3202C39.8098 39.5665 39.4765 39.9065 39.2382 40.3107L39.2299 40.3241C39.2065 40.3625 39.1848 40.3992 39.1464 40.4192C39.1114 40.4359 39.0663 40.4292 39.0296 40.4209L22.6837 37.0492C22.667 37.0459 22.43 36.183 22.4116 36.1813Z" fill="url(#paint0_radial_177_853)"/>
</g>
<defs>
<radialGradient id="paint0_radial_177_853" cx="0" cy="0" r="1" gradientUnits="userSpaceOnUse" gradientTransform="translate(-2.11129 31.5971) rotate(90) scale(6392.96 7380.91)">
<stop stop-color="#20C6B7"/>
<stop offset="1" stop-color="#4D9ABF"/>
</radialGradient>
<clipPath id="clip0_177_853">
<rect width="64" height="64" fill="white" transform="translate(0 0.5)"/>
</clipPath>
</defs>
</svg>
