<svg width="196" height="196" viewBox="0 0 196 196" fill="none" xmlns="http://www.w3.org/2000/svg">
<g clip-path="url(#clip0_153_175)">
<path d="M145.458 183.758C144.729 184.143 144.79 184.266 145.489 183.911C145.715 183.819 145.905 183.69 146.071 183.537C146.071 183.408 146.071 183.408 145.458 183.758ZM146.928 182.961C146.579 183.249 146.579 183.249 146.995 183.059C147.216 182.931 147.412 182.808 147.412 182.771C147.412 182.606 147.314 182.643 146.928 182.961ZM147.884 182.386C147.534 182.673 147.534 182.673 147.951 182.484C148.177 182.355 148.367 182.22 148.367 182.19C148.367 182.037 148.269 182.067 147.884 182.386ZM148.851 181.816C148.502 182.104 148.502 182.104 148.906 181.908C149.133 181.785 149.323 181.657 149.323 181.62C149.323 181.467 149.225 181.498 148.851 181.816ZM150.156 180.952C149.488 181.4 149.255 181.687 149.868 181.369C150.278 181.118 150.977 180.567 150.854 180.567C150.591 180.665 150.37 180.83 150.15 180.952H150.156ZM91.5843 0.0500606C91.1372 0.0806846 89.7958 0.203181 88.6199 0.301178C60.7642 2.8246 34.7032 17.8181 18.1846 40.9148C9.05247 53.5748 3.12365 68.2804 0.888097 83.7211C0.097997 89.1109 0 90.7033 0 98.0102C0 105.311 0.097997 106.879 0.888097 112.269C6.22281 149.085 32.4125 179.991 67.9119 191.444C74.3001 193.484 80.9945 194.892 88.6199 195.756C91.5843 196.075 104.403 196.075 107.368 195.756C120.548 194.286 131.677 191.034 142.69 185.417C144.38 184.56 144.699 184.333 144.472 184.143C139.082 177.033 133.79 169.916 128.492 162.737L112.831 141.588L93.2135 112.526C86.6722 102.8 80.1064 93.0982 73.4365 83.47C73.3691 83.47 73.2833 96.3872 73.2466 112.14C73.1792 139.732 73.1792 140.853 72.8301 141.49C72.481 142.256 71.9053 142.893 71.1397 143.248C70.5333 143.536 69.9882 143.597 67.0912 143.597H63.7776L62.914 143.058C62.3751 142.709 61.9279 142.225 61.6401 141.656L61.2236 140.792L61.2542 102.383L61.3216 63.9747L61.9279 63.2091C62.3138 62.7375 62.7915 62.3516 63.3305 62.0637C64.1329 61.6779 64.4514 61.6166 67.7649 61.6166C71.6541 61.6166 72.2972 61.7698 73.3201 62.8906C81.2578 74.7237 89.1711 86.5875 96.9557 98.488C109.689 117.793 127.071 144.136 135.616 157.06L151.154 180.573L151.92 180.064C159.386 175.085 166.178 169.156 172.04 162.394C184.387 148.258 192.399 130.87 195.112 112.312C195.902 106.922 196 105.323 196 98.0225C196 90.7156 195.902 89.1538 195.112 83.7639C189.777 46.9477 163.588 16.0419 128.088 4.58242C121.449 2.48161 114.62 1.0484 107.705 0.313427C105.849 0.123558 93.1828 -0.10306 91.5904 0.0623102L91.5843 0.0500606ZM131.683 59.3198C132.608 59.7608 133.306 60.5938 133.625 61.5493C133.79 62.0638 133.821 72.7148 133.79 96.7057L133.723 131.152L127.666 121.842L121.571 112.526V87.5185C121.571 71.3061 121.639 62.2169 121.724 61.7698C122.012 60.7469 122.711 59.8894 123.642 59.3505C124.401 58.9646 124.695 58.934 127.727 58.934C130.563 58.934 131.046 58.9646 131.683 59.3198Z" fill="black"/>
</g>
<defs>
<clipPath id="clip0_153_175">
<rect width="196" height="196" fill="white"/>
</clipPath>
</defs>
</svg>
