<svg width="196" height="196" viewBox="0 0 196 196" fill="none" xmlns="http://www.w3.org/2000/svg">
<g clip-path="url(#clip0_153_141)">
<path d="M98.0002 116.667C108.309 116.667 116.667 108.309 116.667 98C116.667 87.6907 108.309 79.3334 98.0002 79.3334C87.6908 79.3334 79.3335 87.6907 79.3335 98C79.3335 108.309 87.6908 116.667 98.0002 116.667Z" fill="#139FCD"/>
<path fill-rule="evenodd" clip-rule="evenodd" d="M33.9184 72.5572C17.3205 80.0262 9.33333 89.3823 9.33333 98C9.33333 106.618 17.3205 115.974 33.9184 123.443C50.0782 130.715 72.7303 135.333 98 135.333C123.27 135.333 145.922 130.715 162.082 123.443C178.679 115.974 186.667 106.618 186.667 98C186.667 89.3823 178.679 80.0262 162.082 72.5572C145.922 65.2852 123.27 60.6667 98 60.6667C72.7303 60.6667 50.0782 65.2852 33.9184 72.5572ZM30.0883 64.0459C47.7085 56.1168 71.7231 51.3333 98 51.3333C124.277 51.3333 148.291 56.1168 165.912 64.0459C183.094 71.7779 196 83.4218 196 98C196 112.578 183.094 124.222 165.912 131.954C148.291 139.883 124.277 144.667 98 144.667C71.7231 144.667 47.7085 139.883 30.0883 131.954C12.9062 124.222 0 112.578 0 98C0 83.4218 12.9062 71.7779 30.0883 64.0459Z" fill="#139FCD"/>
<path fill-rule="evenodd" clip-rule="evenodd" d="M87.9934 29.7823C73.2261 19.1426 61.1299 16.9035 53.6667 21.2124C46.2035 25.5213 42.0945 37.1164 43.9251 55.2251C45.7073 72.8559 53.0336 94.7825 65.6684 116.667C78.3032 138.551 93.6291 155.859 108.007 166.218C122.774 176.857 134.87 179.096 142.333 174.788C149.797 170.479 153.906 158.884 152.075 140.775C150.293 123.144 142.966 101.218 130.332 79.3333C117.697 57.4492 102.371 40.1411 87.9934 29.7823ZM93.4493 22.2097C109.126 33.5047 125.276 51.9102 138.415 74.6667C151.553 97.4231 159.418 120.612 161.361 139.836C163.256 158.582 159.625 175.581 147 182.87C134.375 190.16 117.838 184.804 102.551 173.79C86.8739 162.495 70.724 144.09 57.5855 121.333C44.4471 98.5769 36.5824 75.3879 34.6391 56.1638C32.7441 37.4177 36.3749 20.4186 49 13.1295C61.6251 5.84042 78.1622 11.1955 93.4493 22.2097Z" fill="#139FCD"/>
<path fill-rule="evenodd" clip-rule="evenodd" d="M152.075 55.2251C153.906 37.1164 149.797 25.5213 142.333 21.2124C134.87 16.9035 122.774 19.1426 108.007 29.7823C93.6291 40.1412 78.3032 57.4492 65.6684 79.3333C53.0336 101.218 45.7073 123.144 43.9251 140.775C42.0945 158.884 46.2035 170.479 53.6667 174.788C61.1299 179.096 73.2261 176.857 87.9934 166.218C102.371 155.859 117.697 138.551 130.332 116.667C142.966 94.7825 150.293 72.8559 152.075 55.2251ZM161.361 56.1638C159.418 75.3879 151.553 98.5769 138.415 121.333C125.276 144.09 109.126 162.495 93.4493 173.79C78.1622 184.804 61.6251 190.16 49 182.87C36.3749 175.581 32.7441 158.582 34.6391 139.836C36.5824 120.612 44.4471 97.4231 57.5855 74.6667C70.724 51.9102 86.8739 33.5047 102.551 22.2097C117.838 11.1955 134.375 5.84041 147 13.1295C159.625 20.4186 163.256 37.4177 161.361 56.1638Z" fill="#139FCD"/>
</g>
<defs>
<clipPath id="clip0_153_141">
<rect width="196" height="196" fill="white"/>
</clipPath>
</defs>
</svg>
