<svg width="196" height="196" viewBox="0 0 196 196" fill="none" xmlns="http://www.w3.org/2000/svg">
<path d="M114.102 192.744C109.094 199.049 98.942 195.594 98.8213 187.543L97.0571 69.7822H176.239C190.581 69.7822 198.58 86.3474 189.662 97.5797L114.102 192.744Z" fill="url(#paint0_linear_176_120)"/>
<path d="M114.102 192.744C109.094 199.049 98.942 195.594 98.8213 187.543L97.0571 69.7822H176.239C190.581 69.7822 198.58 86.3474 189.662 97.5797L114.102 192.744Z" fill="url(#paint1_linear_176_120)" fill-opacity="0.2"/>
<path d="M81.8993 3.2567C86.9064 -3.04955 97.059 0.405818 97.1797 8.45728L97.9528 126.218H19.7615C5.41906 126.218 -2.57999 109.653 6.33858 98.4204L81.8993 3.2567Z" fill="#3ECF8E"/>
<defs>
<linearGradient id="paint0_linear_176_120" x1="97.0571" y1="95.8928" x2="167.432" y2="125.408" gradientUnits="userSpaceOnUse">
<stop stop-color="#249361"/>
<stop offset="1" stop-color="#3ECF8E"/>
</linearGradient>
<linearGradient id="paint1_linear_176_120" x1="65.8568" y1="53.174" x2="97.9512" y2="113.59" gradientUnits="userSpaceOnUse">
<stop/>
<stop offset="1" stop-opacity="0"/>
</linearGradient>
</defs>
</svg>
