<svg width="64" height="65" viewBox="0 0 64 65" fill="none" xmlns="http://www.w3.org/2000/svg">
<g clip-path="url(#clip0_177_711)">
<path d="M55.2325 8.96794C49.2896 0.462163 37.5525 -2.05898 29.066 3.34805L14.1616 12.8473C10.0903 15.4086 7.28613 19.5661 6.43659 24.3003C5.72565 28.2442 6.35055 32.3126 8.21237 35.8614C6.9366 37.7967 6.06648 39.9705 5.65459 42.2516C4.79682 47.0767 5.91882 52.044 8.76728 56.032C14.7114 64.5386 26.4487 67.0586 34.9339 61.6519L49.8382 52.1526C53.9097 49.5916 56.714 45.434 57.5632 40.6996C58.2739 36.7557 57.6494 32.6874 55.7885 29.1383C57.0639 27.203 57.9336 25.0292 58.3452 22.7483C59.2035 17.9232 58.0815 12.9557 55.2325 8.96794Z" fill="#FF3E00"/>
<path d="M27.6098 56.8323C22.8057 58.0814 17.7326 56.2008 14.9033 52.1223C13.19 49.7242 12.515 46.7369 13.031 43.8351C13.1175 43.3635 13.2365 42.8985 13.3872 42.4433L13.6679 41.5874L14.4314 42.1483C16.1949 43.444 18.1666 44.4292 20.2617 45.0613L20.8156 45.2294L20.7647 45.7822C20.6969 46.5687 20.9099 47.3538 21.3658 47.9983C22.2173 49.2269 23.7448 49.7938 25.1916 49.4183C25.5155 49.3317 25.8242 49.196 26.1071 49.0159L41.0115 39.5178C41.7489 39.0534 42.2571 38.3005 42.4119 37.4429C42.5664 36.5683 42.3631 35.6683 41.8476 34.9451C40.9956 33.7163 39.4678 33.1491 38.0203 33.5243C37.6968 33.6109 37.3885 33.7465 37.106 33.9263L31.4184 37.552C30.4832 38.1466 29.4626 38.5948 28.3919 38.8811C23.5877 40.1302 18.5144 38.2497 15.6851 34.171C13.9717 31.7729 13.2968 28.7856 13.8127 25.8839C14.3235 23.0371 16.01 20.5371 18.4584 18.9974L33.3619 9.49846C34.2976 8.90283 35.3189 8.45406 36.3905 8.16777C41.1946 6.91871 46.2678 8.79924 49.0971 12.8778C50.8104 15.2759 51.4853 18.2632 50.9694 21.165C50.8826 21.6365 50.7635 22.1015 50.6132 22.5568L50.3325 23.4127L49.5693 22.8527C47.806 21.5562 45.834 20.5706 43.7387 19.9384L43.1848 19.7703L43.2357 19.2174C43.3029 18.431 43.09 17.6461 42.6346 17.0014C41.7831 15.7728 40.2556 15.2059 38.8088 15.5814C38.4849 15.668 38.1762 15.8037 37.8933 15.9838L22.9886 25.4823C22.2511 25.9464 21.743 26.6996 21.5891 27.5572C21.4336 28.4318 21.6366 29.3321 22.1523 30.0553C23.0043 31.2842 24.5321 31.8513 25.9796 31.4761C26.3034 31.3894 26.6121 31.2537 26.895 31.0738L32.5819 27.4495C33.5167 26.8541 34.5373 26.4055 35.608 26.1193C40.4122 24.8702 45.4855 26.7508 48.3148 30.8294C50.0282 33.2275 50.7031 36.2148 50.1872 39.1165C49.676 41.9635 47.9897 44.4637 45.5415 46.0041L30.6382 55.5017C29.7026 56.0973 28.6814 56.5461 27.6098 56.8323Z" fill="white"/>
</g>
<defs>
<clipPath id="clip0_177_711">
<rect width="64" height="64" fill="white" transform="translate(0 0.5)"/>
</clipPath>
</defs>
</svg>
