<svg width="64" height="65" viewBox="0 0 64 65" fill="none" xmlns="http://www.w3.org/2000/svg">
<g clip-path="url(#clip0_177_865)">
<path d="M57.75 0.5H6.25C2.79822 0.5 0 3.29822 0 6.75V58.25C0 61.7018 2.79822 64.5 6.25 64.5H57.75C61.2018 64.5 64 61.7018 64 58.25V6.75C64 3.29822 61.2018 0.5 57.75 0.5Z" fill="#3178C6"/>
<path d="M57.75 0.5H6.25C2.79822 0.5 0 3.29822 0 6.75V58.25C0 61.7018 2.79822 64.5 6.25 64.5H57.75C61.2018 64.5 64 61.7018 64 58.25V6.75C64 3.29822 61.2018 0.5 57.75 0.5Z" fill="#3178C6"/>
<path fill-rule="evenodd" clip-rule="evenodd" d="M39.6174 51.428V57.6856C40.6346 58.2071 41.8377 58.5981 43.2267 58.8589C44.6157 59.1196 46.0796 59.25 47.6186 59.25C49.1185 59.25 50.5432 59.1066 51.8931 58.8198C53.243 58.533 54.4266 58.0604 55.4439 57.402C56.4611 56.7438 57.2665 55.8833 57.8599 54.8208C58.4532 53.7583 58.75 52.4449 58.75 50.8805C58.75 49.7463 58.5805 48.7523 58.2414 47.8984C57.9022 47.0445 57.4132 46.2851 56.7741 45.6203C56.1351 44.9554 55.3689 44.3589 54.4755 43.8309C53.5821 43.3029 52.5746 42.8042 51.453 42.335C50.6314 41.996 49.8945 41.6669 49.2424 41.3475C48.5902 41.028 48.036 40.7021 47.5795 40.3698C47.123 40.0373 46.7709 39.6853 46.5231 39.3138C46.2754 38.9421 46.1514 38.5218 46.1514 38.0524C46.1514 37.6223 46.2623 37.2344 46.484 36.8889C46.7058 36.5434 47.0188 36.2469 47.423 35.9991C47.8274 35.7515 48.3229 35.5591 48.9098 35.4222C49.4968 35.2854 50.1487 35.217 50.8661 35.217C51.3877 35.217 51.9388 35.2561 52.5191 35.3343C53.0995 35.4125 53.6831 35.5331 54.2701 35.696C54.857 35.859 55.4275 36.0644 55.9819 36.312C56.5361 36.5598 57.048 36.8465 57.5175 37.1725V31.3255C56.5655 30.9605 55.5254 30.69 54.3973 30.514C53.2691 30.338 51.9746 30.25 50.514 30.25C49.0271 30.25 47.6186 30.4097 46.2884 30.7291C44.9581 31.0485 43.7876 31.5471 42.7767 32.225C41.766 32.903 40.9672 33.7666 40.3804 34.8161C39.7935 35.8655 39.5 37.1203 39.5 38.5804C39.5 40.4446 40.038 42.0351 41.114 43.3519C42.1899 44.6685 43.8234 45.7831 46.0145 46.6958C46.8752 47.0478 47.6774 47.3931 48.4207 47.7321C49.1641 48.0711 49.8065 48.4231 50.3476 48.7881C50.8889 49.1531 51.316 49.5507 51.6291 49.981C51.9421 50.4111 52.0986 50.9 52.0986 51.4476C52.0986 51.8517 52.0008 52.2265 51.8051 52.572C51.6095 52.9175 51.3128 53.2173 50.915 53.4715C50.5173 53.7258 50.0216 53.9245 49.4282 54.0679C48.8347 54.2114 48.1404 54.283 47.3447 54.283C45.9884 54.283 44.6451 54.0451 43.3148 53.5692C41.9845 53.0935 40.752 52.3798 39.6174 51.428ZM29.0975 36.0103H37.125V30.875H14.75V36.0103H22.7383V58.875H29.0975V36.0103Z" fill="white"/>
</g>
<defs>
<clipPath id="clip0_177_865">
<rect width="64" height="64" fill="white" transform="translate(0 0.5)"/>
</clipPath>
</defs>
</svg>
