<svg width="512" height="512" viewBox="0 0 512 512" fill="none" xmlns="http://www.w3.org/2000/svg">
<path d="M57.2988 255.994C57.2988 334.642 103.005 402.61 169.282 434.818L74.5014 175.131C63.4766 199.842 57.2988 227.188 57.2988 255.994Z" fill="#00749A"/>
<path d="M390.129 245.968C390.129 221.411 381.309 204.405 373.743 191.169C363.671 174.802 354.231 160.941 354.231 144.574C354.231 126.309 368.083 109.307 387.596 109.307C388.477 109.307 389.313 109.417 390.171 109.466C354.82 77.0795 307.723 57.306 255.994 57.306C186.579 57.306 125.508 92.9211 89.9795 146.865C94.6412 147.005 99.0345 147.104 102.766 147.104C123.549 147.104 155.72 144.582 155.72 144.582C166.431 143.95 167.694 159.682 156.994 160.949C156.994 160.949 146.23 162.215 134.253 162.843L206.609 378.065L250.092 247.654L219.135 162.836C208.436 162.208 198.299 160.941 198.299 160.941C187.592 160.314 188.847 143.943 199.554 144.574C199.554 144.574 232.368 147.096 251.892 147.096C272.671 147.096 304.846 144.574 304.846 144.574C315.564 143.943 316.823 159.675 306.12 160.941C306.12 160.941 295.333 162.208 283.378 162.836L355.183 376.428L375.002 310.2C383.592 282.717 390.129 262.977 390.129 245.968Z" fill="#00749A"/>
<path d="M259.48 273.375L199.865 446.607C217.665 451.839 236.489 454.702 255.994 454.702C279.133 454.702 301.322 450.701 321.977 443.439C321.444 442.588 320.96 441.684 320.563 440.701L259.48 273.375Z" fill="#00749A"/>
<path d="M430.341 160.665C431.196 166.994 431.68 173.789 431.68 181.097C431.68 201.26 427.914 223.926 416.572 252.266L355.878 427.744C414.95 393.298 454.682 329.3 454.682 255.998C454.686 221.453 445.861 188.968 430.341 160.665Z" fill="#00749A"/>
<path d="M255.994 24.3828C128.283 24.3828 24.3752 128.283 24.3752 255.994C24.3752 383.721 128.283 487.617 255.994 487.617C383.702 487.617 487.625 383.721 487.625 255.994C487.621 128.283 383.702 24.3828 255.994 24.3828ZM255.994 477.001C134.139 477.001 34.9955 377.857 34.9955 255.994C34.9955 134.139 134.136 35.0031 255.994 35.0031C377.846 35.0031 476.982 134.139 476.982 255.994C476.982 377.857 377.846 477.001 255.994 477.001Z" fill="#00749A"/>
</svg>
