<svg width="196" height="196" viewBox="0 0 196 196" fill="none" xmlns="http://www.w3.org/2000/svg">
<path d="M196 50.4361C195.976 69.8338 188.241 88.4283 174.491 102.128V102.127L125.717 150.728C124.027 152.414 121.282 152.418 119.698 150.633C107.84 137.271 101.251 119.989 101.272 102.035C101.294 82.6368 109.031 64.0423 122.78 50.3421L122.781 50.3436L167.342 5.93988C171.357 1.93756 177.929 1.9089 181.335 6.44079C190.816 19.0551 196.019 34.4799 196 50.4361Z" fill="url(#paint0_linear_34_16)"/>
<path d="M21.5077 102.425C7.75919 88.7244 0.022682 70.13 5.05196e-05 50.7323C-0.0187012 34.776 5.1833 19.3513 14.6641 6.73695C18.0703 2.20505 24.642 2.23372 28.6586 6.23604L73.2188 50.6402L73.2203 50.6387C86.9688 64.3391 94.7053 82.9333 94.7282 102.331C94.7491 120.286 88.1596 137.568 76.3019 150.929C74.7181 152.713 71.9723 152.709 70.2825 151.026L21.5092 102.423L21.5077 102.425Z" fill="url(#paint1_linear_34_16)"/>
<path d="M172.657 189.391C169.073 193.786 162.521 193.747 158.512 189.734L130.988 162.18C129.299 160.488 129.303 157.748 130.995 156.061L176.709 110.508C178.399 108.824 181.156 108.814 182.645 110.677C190.579 120.591 193.7 134.292 191.342 149.377C189.183 163.184 182.578 177.222 172.657 189.391Z" fill="url(#paint2_linear_34_16)"/>
<path d="M37.4888 190.032C33.481 194.043 26.927 194.082 23.3439 189.687C13.4214 177.517 6.81819 163.482 4.65937 149.674C2.30096 134.588 5.42065 120.887 13.3546 110.973C14.8455 109.11 17.6015 109.12 19.2916 110.804L65.0051 156.358C66.698 158.044 66.7012 160.785 65.0125 162.475L37.4888 190.032Z" fill="url(#paint3_linear_34_16)"/>
<defs>
<linearGradient id="paint0_linear_34_16" x1="97.9999" y1="2.98745" x2="97.9999" y2="153.951" gradientUnits="userSpaceOnUse">
<stop stop-color="#9F87FF"/>
<stop offset="1" stop-color="#8566FF"/>
</linearGradient>
<linearGradient id="paint1_linear_34_16" x1="97.9998" y1="2.98745" x2="97.9998" y2="153.951" gradientUnits="userSpaceOnUse">
<stop stop-color="#9F87FF"/>
<stop offset="1" stop-color="#8566FF"/>
</linearGradient>
<linearGradient id="paint2_linear_34_16" x1="98" y1="107.473" x2="98" y2="192.862" gradientUnits="userSpaceOnUse">
<stop stop-color="#DE99F6"/>
<stop offset="1" stop-color="#D669FC"/>
</linearGradient>
<linearGradient id="paint3_linear_34_16" x1="97.9998" y1="107.473" x2="97.9998" y2="192.862" gradientUnits="userSpaceOnUse">
<stop stop-color="#DE99F6"/>
<stop offset="1" stop-color="#D669FC"/>
</linearGradient>
</defs>
</svg>
