<svg xmlns="http://www.w3.org/2000/svg" width="512" height="512" fill="none" xmlns:v="https://vecta.io/nano"><style><![CDATA[.B{fill:#000}.C{fill:#ecb731}]]></style><path d="M258.822 182.202c74.433 0 135.141 60.709 135.141 135.141s-60.708 135.139-135.141 135.139-135.141-60.707-135.141-135.139 60.709-135.141 135.141-135.141z" class="B"/><path d="M125.567 317.345c0-73.478 59.779-133.255 133.255-133.255s133.253 59.777 133.253 133.255-59.777 133.253-133.253 133.253-133.255-59.778-133.255-133.253z" fill="#adb9c0"/><path d="M143.803 317.345c0 63.42 51.597 115.017 115.017 115.017s115.018-51.599 115.018-115.017c0-63.423-51.597-115.018-115.018-115.018s-115.017 51.595-115.017 115.018z" class="B"/><path d="M145.698 317.345c0-62.378 50.748-113.124 113.124-113.124s113.124 50.746 113.124 113.124S321.2 430.469 258.822 430.469s-113.124-50.75-113.124-113.124z" fill="#fff"/><path d="M152.007 317.345c0 58.898 47.918 106.815 106.815 106.815s106.817-47.917 106.817-106.815-47.917-106.817-106.817-106.817-106.815 47.916-106.815 106.817z" class="B"/><path d="M154.003 317.345c0-57.797 47.022-104.819 104.819-104.819s104.817 47.02 104.817 104.819-47.02 104.816-104.817 104.816-104.819-47.021-104.819-104.816z" fill="#fff"/><path d="M363.733 318.208l.011-.865-.013-1.032h-96.058l94.196-18.736-.371-1.861-93.455 18.591 87.983-36.445-.728-1.749-87.992 36.446 79.131-52.871-1.056-1.571-79.127 52.871 67.256-67.255-1.343-1.338-67.252 67.25 52.835-79.068-1.575-1.048-52.833 79.068 34.384-83.011-1.748-.726-34.384 83.008 15.688-78.877-1.857-.37-15.376 77.296v-81.459h-2.522v81.463l-15.891-79.877-1.854.371 16.203 81.458-35.242-85.076-1.75.726 35.241 85.076-52.811-79.038-1.575 1.05 52.811 79.036-67.217-67.217-1.343 1.338 67.221 67.22-79.079-52.838-1.056 1.571 79.088 52.842-87.937-36.425-.727 1.748 87.931 36.421-93.398-18.574-.37 1.859 94.126 18.723h-95.985l-.015 1.032.013.865h94.506l-92.728 18.446.357 1.862 93.489-18.596-88.088 36.487.718 1.753 88.101-36.491-79.291 52.979 1.048 1.575 79.297-52.984-67.447 67.447 1.337 1.343 67.451-67.449-53.023 79.351 1.573 1.054 53.023-79.357-36.547 88.23 1.75.725 39.352-94.999 39.361 95.023 1.748-.724-36.556-88.252 53.043 79.385 1.573-1.053-53.043-79.385 67.486 67.486 1.337-1.341-67.482-67.484 79.344 53.017 1.048-1.575-79.344-53.017 88.166 36.519.718-1.752-88.151-36.513 93.559 18.609.359-1.86-92.8-18.459h94.578v-.002z" class="B"/><path d="M207.241 200.881c-7.089-1.739-13.092-2.555-17.102-2.033-12.002 1.563-26.401 7.485-41.282 14.667-9.543 4.605-21.387 10.626-45.071 24.601l22.059 1.66-2.304 18.425c13.067-8.558 30.551-20.562 46.703-27.48 6.821-2.921 13.402-4.937 19.315-5.403 4.461-.351 8.248.791 12.652 1.898 19.219 4.837 37.722 10.304 56.613 10.304v-27.094c-17.926 0-36.989-5.966-51.583-9.545z" fill="#4a914e"/><path d="M340.546 250.327c-27.968 10.504-56.231 16.054-81.731 16.054s-53.764-5.551-81.732-16.054l-1.059-.398-.205 1.114c-14.273 77.853 13.452 145.384 82.404 200.72l.592.474.593-.474c68.952-55.336 96.675-122.867 82.402-200.72l-.205-1.114-1.059.398z" class="B"/><path d="M258.814 268.277c25.396 0 53.485-5.475 81.31-15.793 2.271 12.728 3.428 25.183 3.428 37.347 0 60.86-28.401 114.526-84.738 159.958-56.334-45.432-84.737-99.098-84.737-159.96 0-12.162 1.157-24.617 3.428-37.345 27.824 10.318 55.916 15.793 81.309 15.793z" fill="#fff"/><path d="M258.815 440.107V277.963c-26.451 0-50.161-4.306-74.154-12.475-8.976 69.049 18.766 124.347 74.154 174.619z" fill="#cd3529"/><path d="M258.759 298.325c25.46 0 46.224 20.764 46.224 46.224s-20.762 46.225-46.224 46.225-46.226-20.766-46.226-46.225 20.767-46.224 46.226-46.224z" class="C"/><g class="B"><path d="M211.587 344.549c0 26.012 21.16 47.172 47.172 47.172s47.173-21.162 47.173-47.172-21.162-47.173-47.173-47.173-47.172 21.16-47.172 47.173zm1.895 0c0-24.966 20.311-45.278 45.277-45.278s45.276 20.31 45.276 45.278-20.31 45.275-45.276 45.275-45.277-20.31-45.277-45.275z"/><path d="M211.677 343.661c2.813 5.257 7.629 10.438 13.929 14.982l1.107-1.536c-6.066-4.375-10.689-9.331-13.367-14.338l-1.669.892zm22.253 8.826l1.442-1.226c-10.619-12.498-8.282-33.721 5.319-48.315l-1.385-1.293c-14.244 15.286-16.607 37.616-5.376 50.834zm21.061-27.81l1.81-.55c-3.485-11.439-.044-18.623 11.505-24.019l-.803-1.717c-12.422 5.806-16.283 13.912-12.512 26.286zm24.151 17.549c10.853 11.25 13.272 28.983 5.388 39.528l1.518 1.135c8.558-11.448 6.123-29.89-5.543-41.982l-1.363 1.319zm10.546-11.634c8.036 6.64 12.663 16.821 12.378 27.228l1.893.051a36.26 36.26 0 0 0-13.065-28.74l-1.206 1.461zm-25.421 23.686c7.662 14.225 6.456 28.779-2.931 35.393l1.092 1.549c10.197-7.185 11.64-22.746 3.507-37.841l-1.668.899z"/><path d="M246.588 376.628l-.282 1.873c8.353 1.26 19.676-2.54 24.203-12.061l-1.709-.812c-4.137 8.696-14.533 12.157-22.212 11z"/><path d="M332.587 264.615c-10.048 3.42-19.672 6.049-29.418 8.029l-.278.057-100.197 99.884.337.623c5.196 9.626 11.479 19.257 18.674 28.627l.655.855 113.135-112.787-.002-.398c-.047-7.893-.606-16.006-1.659-24.117l-.149-1.147-1.098.374z"/></g><path d="M332.066 266.774c.935 7.522 1.458 15.036 1.517 22.361l-111.02 110.676c-6.707-8.817-12.597-17.852-17.521-26.893l98.786-98.48c9.361-1.916 18.621-4.437 28.238-7.664z" fill="#0094d6"/><path d="M226.405 382.2l2.642-2.641c1.035.939 2.129 1.416 3.291 1.423 1.166.013 2.212-.445 3.133-1.364 1.015-1.014 1.531-2.119 1.551-3.318s-.46-2.291-1.446-3.275c-.86-.862-1.755-1.308-2.671-1.33-.917-.029-2.295.472-4.127 1.487l-.47.282c-2.126 1.276-4.06 1.81-5.799 1.595a6.65 6.65 0 0 1-2.144-.59 6.48 6.48 0 0 1-1.805-1.291c-1.634-1.634-2.435-3.465-2.411-5.507.031-2.038.879-3.896 2.557-5.574 1.553-1.553 3.256-2.356 5.111-2.408 1.859-.057 3.623.652 5.296 2.122l-2.75 2.75c-.807-.712-1.689-1.051-2.654-1.026-.969.034-1.826.424-2.583 1.181-.808.811-1.208 1.728-1.195 2.748.013 1.034.427 1.955 1.245 2.772a3.39 3.39 0 0 0 .95.676c.35.159.724.247 1.14.271.846.046 2.087-.427 3.721-1.416l1.776-1.019c1.811-.873 3.514-1.201 5.106-1 1.589.206 3.011.934 4.271 2.194 1.839 1.838 2.763 3.879 2.769 6.122s-.91 4.285-2.748 6.123c-1.734 1.735-3.683 2.601-5.843 2.61s-4.133-.858-5.913-2.597zm31.212-20.232l-2.792 2.79-3.22-3.217 2.794-2.793 3.218 3.22zm21.43-21.431l-9.606 9.607-19.042-19.042 2.945-2.945 16.412 16.414 6.66-6.661 2.631 2.627zm13.444-13.443l-2.792 2.794-3.22-3.219 2.792-2.793 3.22 3.218zm3.675-25.806l.934-.934c1.519-1.519 2.387-2.814 2.597-3.892s-.172-2.112-1.166-3.109c-.879-.88-1.827-1.238-2.837-1.074s-2.114.848-3.326 2.058l-1.577 1.576 5.375 5.375zm8.46 8.521l2.315-2.315c1.363-1.363 2.126-2.601 2.293-3.721.172-1.116-.246-2.172-1.243-3.166-1.079-1.082-2.229-1.564-3.459-1.452s-2.498.82-3.804 2.126l-2.315 2.317 6.213 6.211zm-14.985-17.95c2.168-2.166 4.259-3.363 6.278-3.606 2.011-.236 3.87.495 5.568 2.195.787.787 1.293 1.664 1.529 2.634s.197 1.997-.114 3.095c1.267-.713 2.59-.964 3.96-.746s2.608.873 3.706 1.971c.867.858 1.54 1.892 1.975 3.032.423 1.138.585 2.271.473 3.409a8 8 0 0 1-1.037 3.135c-.567.987-1.562 2.186-2.977 3.601l-4.687 4.688-19.041-19.04 4.367-4.368zm40.437-2.354l-2.792 2.794-3.218-3.217 2.792-2.793 3.218 3.216z" class="C"/><path d="M332.664 264.591c-24.897 8.478-48.362 12.426-73.849 12.426s-48.952-3.948-73.848-12.426l-1.094-.374-.151 1.148c-8.558 65.822 15.102 121.571 74.457 175.444l.636.577.637-.577c59.355-53.873 83.013-109.622 74.456-175.444l-.151-1.148-1.093.374zM183.922 290.85c0-7.886.549-15.924 1.566-24.104 24.677 8.281 48.014 12.164 73.327 12.164s48.649-3.884 73.326-12.164c1.019 8.18 1.566 16.217 1.566 24.102 0 54.192-24.233 101.761-74.892 147.959-50.658-46.198-74.893-93.765-74.893-147.957z" class="B"/><path d="M413.858 238.118c-23.684-13.977-35.53-19.996-45.071-24.601-14.883-7.18-29.28-13.104-41.284-14.668-4.008-.523-10.013.295-17.102 2.034-14.594 3.579-33.657 9.545-51.579 9.545v27.097c18.891 0 37.396-5.467 56.615-10.304 4.404-1.107 8.189-2.251 12.65-1.897 5.911.466 12.494 2.481 19.313 5.402 16.152 6.919 33.636 18.921 46.703 27.481l-2.304-18.425 22.059-1.664z" fill="#cd3529"/><path d="M310.176 199.962l-8.179 2.089c-13.385 3.483-28.555 7.428-43.175 7.428s-29.79-3.947-43.177-7.43l-8.177-2.087c-7.642-1.875-13.513-2.566-17.451-2.052-10.418 1.358-23.238 5.907-41.571 14.754-9 4.344-20.652 10.186-45.141 24.638l-2.597 1.535 24.074 1.81-2.436 19.477 6.277-4.13c12.356-8.148 27.734-18.29 41.993-24.398 7.27-3.113 13.669-4.907 19.016-5.331 3.845-.304 7.158.545 10.997 1.529l8.657 2.209c16.935 4.354 32.932 8.467 49.538 8.467s32.601-4.113 49.537-8.467l8.658-2.209c3.836-.984 7.152-1.833 10.996-1.529 5.347.422 11.744 2.216 19.015 5.331 14.26 6.106 29.637 16.25 41.994 24.398l6.28 4.132-2.441-19.477 24.076-1.811-2.599-1.534c-24.487-14.452-36.141-20.295-45.141-24.638-18.334-8.847-31.156-13.397-41.571-14.754-3.94-.516-9.812.175-17.452 2.05zm-7.702 3.92l8.153-2.082c7.412-1.818 13.048-2.494 16.754-2.013 10.209 1.33 22.85 5.828 40.995 14.581 8.635 4.168 19.761 9.748 42.393 23.032l-20.032 1.507 2.176 17.375-2.846-1.872c-12.418-8.191-27.874-18.382-42.291-24.558-7.563-3.24-13.979-5.033-19.612-5.477-4.157-.329-7.778.599-11.613 1.581l-8.661 2.21c-16.815 4.323-32.699 8.407-49.066 8.407s-32.249-4.084-49.068-8.407l-8.659-2.21c-3.835-.982-7.457-1.91-11.614-1.581-5.633.444-12.048 2.237-19.613 5.477-14.415 6.174-29.871 16.367-42.29 24.558l-2.845 1.872 2.175-17.375-20.031-1.507c22.632-13.286 33.757-18.865 42.392-23.032 18.144-8.753 30.785-13.251 40.993-14.581 3.704-.483 9.341.195 16.755 2.013l8.152 2.082c13.496 3.511 28.792 7.491 43.655 7.491s30.152-3.979 43.648-7.491zm48.345 20.644l-2.489-1.003 1.131-4.452.683-2.268c-.226.387-.56.855-.991 1.398l-.202.253-3.174 4.039-1.774-.717.522-5.109.036-.319c.063-.692.15-1.258.255-1.687l-.535 1.057-.567 1.035-2.278 3.988-2.474-1 5.45-9.153 2.632 1.063-.56 5.631-.016.193c-.031.426-.1.847-.206 1.26.086-.165.199-.346.333-.538l.508-.681 3.517-4.419 2.641 1.068-2.442 10.361zm-24.2-17.727l2.835.398-.713 5.071-.171 1.614c-.006.329.018.611.079.843.072.282.244.527.484.691.251.177.573.293.96.346s.727.032 1.017-.07a1.23 1.23 0 0 0 .655-.53c.124-.206.225-.47.308-.787l.282-1.598.101-.713.612-4.358 2.827.398-.775 5.513c-.161 1.142-.347 1.976-.562 2.501-.194.495-.5.938-.894 1.295-.414.37-.948.619-1.598.744s-1.422.122-2.31-.002-1.634-.337-2.223-.635c-.543-.258-1.005-.657-1.338-1.157a3.54 3.54 0 0 1-.499-1.492c-.064-.564-.015-1.418.147-2.56l.151-1.085.625-4.427zm-16.67 14.261l-2.726-10.17 2.675-.716 5.244 4.201c.101.087.28.269.538.546l.865 1-.422-1.092-.27-.866-1.347-5.023 2.66-.711 2.724 10.169-2.66.713-5.249-4.222a6.48 6.48 0 0 1-.544-.543l-.854-.987.423 1.099.275.866 1.345 5.021-2.677.715zm-16.968-6.471l2.765-.74 1.324 4.947.475 1.553a3.05 3.05 0 0 0 .404.744c.175.231.43.39.714.446.301.064.641.048 1.019-.055s.682-.256.908-.461c.216-.194.357-.457.398-.744.031-.282.024-.566-.022-.846l-.367-1.582-.186-.694-1.138-4.251 2.757-.739 1.443 5.378c.298 1.115.453 1.957.458 2.522a3.4 3.4 0 0 1-.315 1.542c-.235.503-.633.941-1.182 1.309s-1.262.669-2.128.901-1.633.328-2.295.284c-.6-.025-1.182-.213-1.683-.544a3.5 3.5 0 0 1-1.043-1.177c-.278-.495-.567-1.298-.866-2.414l-.281-1.058-1.159-4.321zm-17.942 10.794c.502.403.983.687 1.433.849s.876.212 1.283.14a1.41 1.41 0 0 0 .877-.47c.1-.111.173-.245.213-.39s.046-.297.017-.444c-.06-.346-.211-.593-.455-.742s-.753-.26-1.528-.326c-1.063-.094-1.844-.326-2.343-.691s-.814-.93-.949-1.693c-.175-.991.013-1.858.569-2.603s1.358-1.206 2.415-1.392c.573-.101 1.127-.118 1.667-.057a5.34 5.34 0 0 1 1.579.442l-.527 2.188a3.78 3.78 0 0 0-1.1-.447 2.71 2.71 0 0 0-1.035-.032 1.35 1.35 0 0 0-.785.391.77.77 0 0 0-.19.314c-.036.119-.043.245-.02.367a.78.78 0 0 0 .391.575c.213.123.6.208 1.157.256l.134.013c1.208.107 2.024.317 2.453.624.298.219.544.498.724.82.192.333.323.718.4 1.151.193 1.1-.011 2.048-.615 2.842s-1.509 1.303-2.713 1.513a5.22 5.22 0 0 1-2.039-.021c-.686-.163-1.334-.452-1.914-.852l.901-2.325zm-15.129-5.92l2.856-.201.355 5.11.169 1.613c.063.323.146.593.255.807a1.18 1.18 0 0 0 .613.575c.282.119.619.167 1.011.14s.719-.122.98-.28a1.24 1.24 0 0 0 .533-.654c.077-.227.121-.505.138-.835l-.056-1.622-.051-.719-.306-4.389 2.846-.199.389 5.554c.081 1.151.071 2.005-.03 2.564a3.44 3.44 0 0 1-.606 1.453c-.328.449-.801.803-1.411 1.061s-1.367.414-2.26.477c-.899.063-1.667.011-2.308-.157-.583-.14-1.118-.435-1.547-.854a3.55 3.55 0 0 1-.8-1.354c-.178-.538-.307-1.384-.388-2.535l-.078-1.09-.304-4.465zm-92.447 4.837l-4.114-9.692 5.939-2.522.901 2.124-3.362 1.427.713 1.682 3.17-1.345.882 2.078-3.17 1.345.695 1.637 3.363-1.427.921 2.171-5.938 2.522zm22.306-6.616l-2.69.094-.366-10.524 2.997-.103c1.171-.04 1.998-.013 2.479.083a2.91 2.91 0 0 1 1.227.551c.399.306.709.696.93 1.171s.339 1.008.361 1.596a4.2 4.2 0 0 1-.245 1.666c-.184.487-.468.886-.849 1.207-.289.239-.634.418-1.034.532s-1.042.19-1.928.219l-.488.017-.518.018.124 3.473zm-.203-5.786l.547-.02c.691-.024 1.168-.137 1.431-.336s.393-.524.378-.979c-.017-.443-.162-.752-.435-.929s-.753-.254-1.433-.23l-.575.02.087 2.474zm9.95 6.946l2.725-10.169 2.772.742-2.089 7.793 3.446.923-.635 2.376-6.219-1.665zm13.338-7.39l2.765.741-1.325 4.947a16.51 16.51 0 0 0-.366 1.58c-.046.326-.055.608-.022.846.036.288.176.552.394.744.226.205.53.361.91.462s.718.118 1.018.054a1.23 1.23 0 0 0 .717-.446 3.12 3.12 0 0 0 .403-.744c.122-.31.278-.825.474-1.553l.188-.694 1.138-4.252 2.757.739-1.44 5.377c-.298 1.114-.586 1.919-.864 2.416s-.623.885-1.043 1.177c-.499.332-1.08.519-1.679.542-.662.044-1.426-.052-2.292-.284s-1.58-.532-2.131-.9a3.31 3.31 0 0 1-1.186-1.312c-.214-.46-.319-.972-.313-1.54s.156-1.409.457-2.523l.283-1.058 1.157-4.319zm11.381 13.684l2.367-10.258 2.924.674c1.143.266 1.93.501 2.355.711s.776.475 1.047.8c.304.364.504.788.604 1.267s.085.982-.035 1.507c-.184.794-.527 1.396-1.032 1.803s-1.151.608-1.934.597l1.839 4.78-3.159-.73-1.424-4.56-.929 4.017-2.623-.608zm3.87-4.806l.52.12c.602.138 1.066.138 1.39-.004s.538-.431.641-.869c.118-.514.074-.912-.138-1.188s-.617-.486-1.23-.626l-.56-.129-.623 2.696zm8.639 7.412l1.831-10.37 2.853.503-1.827 10.368-2.857-.501z" class="B"/><path d="M190.05 209.299l-.679.024.094 2.684.652-.022c.716-.026 1.204-.142 1.492-.358.294-.219.434-.578.418-1.068-.015-.474-.177-.814-.483-1.013-.296-.19-.784-.271-1.494-.247zm.008.212c.654-.022 1.116.048 1.37.213.247.161.374.435.387.844l.002.074c0 .379-.114.654-.335.819-.249.186-.709.291-1.374.314l-.442.016-.08-2.264.472-.016zm38.567 8.101l-.647 2.801.621.144c.632.146 1.109.142 1.459-.011.355-.153.589-.472.7-.943.125-.545.073-.975-.155-1.275s-.648-.517-1.291-.667l-.661-.152-.026.103zm.182.149l.457.107c.586.134.98.333 1.17.587.126.18.189.396.178.616a2.07 2.07 0 0 1-.061.486c-.093.401-.287.67-.58.797-.3.131-.746.131-1.324-.001l-.416-.096.576-2.496z" fill="#4a914e"/><path d="M237.09 149.719v.114h.115c.729 0 2.564-.998 4.184-1.881l2.281-1.151-.072-.215c-.446.149-1.312.62-2.317 1.168-1.45.788-3.207 1.735-3.949 1.821.031-3.096.978-4.973 3.728-7.331l-.149-.173c-2.857 2.448-3.821 4.378-3.821 7.648z" class="B"/><path d="M306.505 149.903c-2.087.739-4.347.258-5.561-2.149-2.227 1.93-4.959 2.203-8.573.782l-14.964-20.362 2.277-20.592c3.792 1.94 8.016 2.332 9.76 2.15 11.29-1.174 1.806-9.781 18.144-17.215 5.841-10.774 15.33-14.439 20.768-15.511 27.064-5.34 62.709-2.511 90.506-2.743l35.57-.297c-2.197 5.419-9.814 8.806-17.526 10.505-2.044 4.949-4.654 7.696-10.895 10.234-.398 1.963-1.849 7.703-15.635 12.579-2.93 7.97-17.174 13.743-30.005 16.148-3.222 6.388-14.539 8.401-20.022 7.587-.494 1.767-4.454 3.97-6.005 3.793.269.724.549 3.857-3.356 3.048.757 2.485.245 3.868-.89 4.578-1.173.733-3.011.747-4.804.517-.364 1.496-1.611 2.058-3.053 2.113-1.636.061-3.52-.531-4.662-1.16.029 2.085-1.378 2.737-3.283 2.6-2.149-.153-4.599-1.254-5.533-2.274-.359 2.247-2.404 3.17-4.579 3.265-1.489.067-3.038-.256-4.148-.803-.153 1.794-1.728 2.472-3.058 2.496-2.54.046-5.603-2.293-6.124-3.815-.693 2.167-2.45 3.854-4.349 4.526z" class="C"/><path d="M328.151 75.974a31.49 31.49 0 0 0-12.38 5.521 31.48 31.48 0 0 0-8.913 10.215c-8.797 4.097-10.328 8.665-11.427 12.013-.951 2.89-1.474 4.484-6.097 4.963-1.665.173-5.627-.229-9.171-2.041l-1.361-.695-2.489 22.518 15.388 20.938.282.11c3.466 1.363 6.279 1.17 8.642-.357 1.444 1.905 3.767 2.61 6.228 1.737 1.722-.61 3.214-1.868 4.185-3.445 1.44 1.503 3.827 2.833 5.955 2.797 1.505-.028 3.035-.756 3.713-2.218 1.105.352 2.323.575 3.52.523 2.382-.107 4.145-1.063 5.02-2.617 1.375.851 3.284 1.503 4.971 1.624 1.481.107 2.625-.21 3.398-.941.352-.332.603-.741.77-1.207 1.168.433 2.581.761 3.891.711 1.781-.068 3.031-.812 3.676-2.064 2.043.169 3.614-.046 4.701-.726.869-.542 1.74-1.546 1.74-3.382a7.42 7.42 0 0 0-.077-.923c1.269-.046 2.03-.545 2.457-1.042.569-.662.759-1.518.759-2.264 1.875-.461 4.426-1.953 5.454-3.605 5.76.567 16.329-1.424 20-7.732 11.903-2.295 26.611-7.873 30.16-16.269 9.113-3.299 14.382-7.548 15.72-12.637 5.693-2.396 8.613-5.13 10.781-10.101 5.706-1.31 15.08-4.406 17.76-11.013l.593-1.463-37.149.309c-7.395.063-15.246-.092-23.558-.254-22.113-.433-47.178-.923-67.142 3.017zm-38.598 34.808c5.983-.621 6.904-3.428 7.88-6.401 1.046-3.187 2.349-7.152 10.591-10.903l.324-.147.168-.311a29.36 29.36 0 0 1 8.346-9.734 29.35 29.35 0 0 1 11.7-5.247c19.739-3.896 43.609-3.43 66.694-2.979l23.617.254 33.793-.282c-2.422 3.656-8.101 6.673-15.983 8.409l-.538.118-.21.508c-2.028 4.911-4.632 7.348-10.318 9.659l-.523.214-.114.553c-.942 4.651-5.974 8.619-14.955 11.796l-.466.166-.17.464c-2.73 7.421-16.638 13.12-29.213 15.476l-.512.096-.234.466c-3.028 6.003-13.929 7.76-18.925 7.02l-.919-.137-.25.896c-.334 1.193-3.739 3.159-4.872 3.03l-1.704-.194.597 1.606c.077.207.167 1.028-.179 1.432-.4.462-1.409.335-1.976.219l-1.739-.359.517 1.698c.794 2.605-.136 3.185-.442 3.376-.541.339-1.694.678-4.109.365l-.936-.12-.223.916c-.083.34-.305 1.243-2.07 1.309-1.448.056-3.146-.497-4.111-1.031l-1.588-.877.024 1.814c.009.544-.111.936-.352 1.163-.319.3-.958.433-1.803.372-1.931-.138-4.097-1.131-4.833-1.936l-1.472-1.61-.345 2.155c-.313 1.949-2.379 2.328-3.586 2.38-1.262.055-2.654-.212-3.638-.696l-1.383-.682-.133 1.536c-.119 1.391-1.58 1.527-2.028 1.535-2.16.038-4.75-2.058-5.108-3.104l-1.031-3.012-.969 3.032c-.558 1.743-2.008 3.255-3.697 3.854-.88.311-3.055.777-4.267-1.629l-.61-1.208-1.022.886c-1.888 1.639-4.141 1.836-7.238.68l-14.518-19.757 2.076-18.779c3.584 1.494 7.23 1.864 8.985 1.682z" class="B"/><path d="M227.658 144.129c-1.982.83-3.575 1.199-5.09 1.143s-2.858-.541-4.146-1.425c-1.457 2.569-3.665 3.68-5.749 3.669-2.359-.015-4.321-1.568-5.336-3.887-1.389 2.067-4.378 5.528-7.509 5.489-1.227-.014-2.26-.803-2.762-2.936-1.197.59-2.807 1.133-4.216 1.242-1.814.138-3.302-.444-3.173-2.573-1.666 1.031-4.231 2.004-6.114 2.013-1.661.007-2.789-.735-2.293-2.851-.394.425-3.05 1.812-5.101 1.593-1.073-.114-1.978-.669-2.306-2.034-1.766.229-3.728-.195-5.198-1.19s-2.449-2.564-2.245-4.623c-5.163 1.17-5.294-2.837-5.027-3.559-1.683-.381-4.426-1.412-5.159-3.181-6.618-.173-15.213-.547-19.807-6.273 0 0 .162-.477-.108-.49-10.466-.452-25.327-5.852-28.258-13.822-12.4-4.648-16.294-9.689-17.384-12.231-6.754-2.28-12.314-4.787-13.776-10.028-8.125-1.286-17.692-6.939-19.48-12.769l38.863-.217c27.797-.155 63.439-3.113 90.506 2.227 5.438 1.074 16.882 7.104 22.721 17.878 10.062.232 13.12 16.442 20.91 16.587 2.807.052 7.209-2.626 10.784-9.243a14.96 14.96 0 0 1-4.383.632 13.06 13.06 0 0 1-3.71-.56c6.294-2.844 5.914-7.73 6.03-9.766-1.46.65-3.967.838-5.888.214 1.182-1.532 2.383-4.611 1.81-6.732-1.716 1.463-3.004 2.118-4.746 2.485.103-1.824-.091-3.376-.748-4.859-2.883-6.509-12.222-4.351-12.034-11.335 1.15 1.293 2.78 2.349 4.629 2.349.967 0 1.932-.343 2.789-1.197.424-.544.65-1.217.639-1.906.005-.995-.383-2.021-.936-2.791-1.499-2.085-3.654-2.719-5.824-2.651-3.305.099-6.638 1.82-7.733 2.479.43-5.754 5.67-8.418 10.428-8.431 2.774-.007 5.846 1.019 7.312 2.833 3.224-2.286 6.661-2.448 11.039-.146 4.894 2.57 16.057 5.618 21.455 4.196-1.199 2.722-4.452 3.667-6.003 4.085 4.01-.046 7.924.413 10.877 1.348-2.24 1.057-4.137 2.35-6.073 3.408 3.467.308 6.839.477 9.698 1.908-2.339.545-3.778 1.49-4.15 2.717 1.721 1.595 4.8 1.584 7.887 2.435 2.9.799 5.803 2.358 7.591 6.719-1.748 0-3.551.232-5.067.934 3.999 3.165 6.806 6.255 7.825 8.996-1.826.082-3.461.425-4.966 1.149 3.437 2.625 6.476 5.331 8.277 8.283-2.112.26-4.201.68-6.249 1.256 3.4 2.443 5.947 5.215 7.264 7.987-1.361-.296-3.048-.457-4.409-.313 3.702 3.575 6.749 7.559 7.817 11.245-1.339-.521-2.822-.823-4.38-1.013.956 2.793 1.599 5.587 1.786 8.379 5.849 4.38 9.151 9.173 8.649 16.902a13.45 13.45 0 0 0-4.305-1.497c2.118 3.711 1.985 7.283.593 11.545-1.063-1.317-2.179-2.251-3.351-2.8.006 4.565-.633 8.331-2.055 11.14l-1.647-2.718c-2.017 4.341-6.2 9.65-10.017 8.421-3.339 3.343-6.212 4.279-11.482 6.675-.761-.84-1.866-1.556-2.872-2.333-1.457 1.247-2.586 2.582-3.746 4.337-1.015-1.405-2.135-2.652-3.408-3.672l-4.189 1.558c-9.005-6.163-17.27-7.797-16.332-16.596-1.076.383-2.036 1.42-3.244 2.577-1.009-2.927-1.081-8.02-.519-12.446-1.662.237-2.393.438-3.861 1.191-.1-1.67-.186-5.487 1.904-9.687-2.247.57-2.775 1.428-3.947 2.504-.002-2.903.903-5.74 2.428-7.948z" class="C"/><path d="M221.528 59.518c-5.189.015-10.993 2.964-11.474 9.405l-.153 2.035 1.746-1.055c1.367-.825 4.425-2.245 7.221-2.33 2.201-.068 3.816.658 4.938 2.216.464.647.741 1.457.737 2.166-.002.497-.14.919-.409 1.254a2.74 2.74 0 0 1-1.965.803c-1.802 0-3.18-1.251-3.841-1.995l-1.768-1.993-.074 2.663c-.119 4.463 3.179 5.859 6.092 7.093 2.39 1.013 4.862 2.059 6.03 4.697.556 1.254.759 2.605.66 4.373l-.078 1.372 1.345-.282c1.258-.258 2.455-.755 3.527-1.463-.212 1.435-.869 3.037-1.641 4.036l-.914 1.184 1.421.46c1.523.496 3.453.543 5.098.208-.147 2.234-.814 5.336-5.347 7.384l-2.551 1.152 2.678.816a14.25 14.25 0 0 0 4.008.606 15.15 15.15 0 0 0 2.26-.159c-3.015 4.637-6.401 6.705-8.633 6.663-3.126-.057-5.594-3.454-8.208-7.051-3.085-4.248-6.589-8.998-12.096-9.459-5.854-10.354-16.983-16.719-23.142-17.935-20.614-4.067-46.506-3.339-69.354-2.697l-21.363.449L56 74.363l.416 1.354c1.934 6.312 11.621 11.895 19.724 13.371 1.895 5.386 7.775 7.919 13.796 9.972 1.352 2.762 5.377 7.627 17.352 12.193 3.514 8.293 18.215 13.351 28.204 14.001l.116.151c4.873 6.075 13.824 6.484 20.022 6.65 1.077 1.641 3.277 2.527 4.656 2.936.032.836.289 1.845.999 2.654.665.759 1.947 1.483 4.135 1.291.186 1.732 1.074 3.246 2.658 4.318 1.433.97 3.288 1.47 5.096 1.416.546 1.129 1.529 1.838 2.887 1.982 1.378.149 2.949-.307 4.166-.847.098.363.243.698.47.985.599.754 1.566 1.133 2.872 1.128 1.667-.008 3.68-.662 5.29-1.432.153.395.374.741.67 1.034.759.748 1.903 1.068 3.404.954 1.05-.079 2.279-.442 3.472-.908.895 2.206 2.47 2.593 3.41 2.606 3.164.039 5.92-2.752 7.43-4.649 1.321 1.897 3.238 3.034 5.423 3.047 2.405.012 4.551-1.244 6.075-3.384 1.208.656 2.446 1.09 3.785 1.142.993.023 1.984-.095 2.943-.352-.846 1.925-1.288 4.003-1.298 6.106v2.463l2.354-2.251c.234-.228.451-.427.67-.615-.818 2.462-1.15 5.06-.978 7.649l.096 1.614 1.437-.739c.895-.46 1.481-.681 2.199-.845-.125 1.334-.221 2.759-.221 4.246 0 2.634.249 5.301.923 7.261l.538 1.563 1.667-1.611a32.15 32.15 0 0 1 .965-.895c.317 5.769 4.826 8.399 10.433 11.6 2.05 1.172 4.17 2.382 6.371 3.889l.451.307 4.091-1.521c1.048.913 1.987 1.946 2.796 3.076l.892 1.234.842-1.271a19.1 19.1 0 0 1 2.961-3.531l.08.061c.733.539 1.425 1.052 1.917 1.593l.512.567 2.947-1.317c3.776-1.672 6.335-2.847 9.138-5.526 3.6.614 7.333-3.031 9.759-7.367l1.65 2.728.859-1.695c1.267-2.503 1.936-5.734 2.098-9.729.525.431 1.042.948 1.547 1.573l1.218 1.512.602-1.846c.72-2.203 1.083-4.155 1.083-5.968 0-1.539-.363-2.967-.892-4.371a13.56 13.56 0 0 1 2.021.892l1.444.779.107-1.637c.037-.547.053-1.083.053-1.608 0-6.42-2.707-11.27-8.771-15.922-.177-2.076-.637-4.24-1.308-6.504.94.182 1.809.394 2.537.678l1.987.775-.593-2.05c-1.048-3.616-3.741-7.123-6.312-9.869.561.059 1.127.142 1.67.259l2.096.457-.921-1.937c-1.131-2.382-3.138-4.751-5.787-6.952 1.319-.297 2.639-.634 3.947-.794l1.625-.197-.853-1.396c-1.73-2.837-4.481-5.335-7.021-7.37a13.01 13.01 0 0 1 2.858-.46l1.442-.065-.502-1.352c-.916-2.466-3.207-5.226-6.676-8.189.963-.215 1.946-.322 2.933-.321h1.569l-.595-1.453c-2.07-5.049-5.517-6.572-8.285-7.335l-2.967-.647c-1.507-.284-2.833-.549-3.8-1.085.547-.566 1.584-1.052 2.991-1.382l2.84-.663-2.608-1.304c-2.092-1.046-4.358-1.453-6.745-1.709l5.248-2.894-2.279-.772c-1.866-.593-4.135-.987-6.587-1.207.953-.678 1.822-1.582 2.36-2.8l.88-2-2.111.556c-4.975 1.308-15.817-1.547-20.696-4.111-4.321-2.269-7.955-2.266-11.381-.175-1.922-1.79-4.994-2.647-7.46-2.639zm.005 2.107c2.654-.007 5.323.998 6.489 2.442l.623.77.807-.573c2.967-2.103 6.032-2.126 9.939-.074 4.382 2.302 13.4 4.868 19.444 4.633-1.113.838-2.509 1.359-3.776 1.7l-8.04 2.166 8.325-.096c2.898-.033 5.64.208 8 .674l-1.601.88-5.003 2.899 3.301.3.953.083c2.055.175 4.021.368 5.833.827-1.299.755-1.93 1.632-2.151 2.36l-.192.63.484.448c1.399 1.297 3.404 1.674 5.526 2.072l2.798.606c2.17.599 4.557 1.658 6.265 4.789-1.468.135-2.817.391-3.905.891l-1.557.72 1.345 1.065c3.367 2.665 5.664 5.156 6.865 7.325-1.383.194-2.675.499-3.807 1.042l-1.551.744 1.366 1.043c3.336 2.547 5.558 4.658 7.081 6.677-1.568.258-3.141.575-4.697 1.009l-2.111.59 1.779 1.278c2.542 1.825 4.53 3.798 5.878 5.789-.837-.081-1.68-.087-2.518-.016l-2.247.236 1.625 1.569c3.229 3.118 5.494 6.13 6.756 8.852-.813-.183-1.634-.324-2.461-.423l-1.667-.203.543 1.59c.995 2.906 1.561 5.561 1.732 8.11l.033.482.387.29c5.787 4.336 8.261 8.611 8.276 14.466-1.045-.431-2.095-.782-3.137-.945l-2.164-.338 1.085 1.9c.994 1.741 1.484 3.461 1.484 5.397 0 1.091-.214 2.292-.525 3.561-.761-.704-1.54-1.306-2.356-1.687l-1.503-.704.002 1.711c0 3.496-.407 6.414-1.19 8.746l-1.582-2.612-.833 1.794c-2.09 4.502-5.863 8.788-8.74 7.863l-.611-.197-.457.455c-2.693 2.695-5.032 3.732-8.91 5.449l-1.622.725c-.527-.473-1.077-.919-1.649-1.337l-1.457-1.092-.654.54c-1.145.981-2.127 2.121-3.096 3.431-.871-1.065-1.759-2.022-2.715-2.787l-.466-.372-4.257 1.582c-2.111-1.412-4.198-2.621-6.047-3.68-5.598-3.196-9.429-5.384-9.429-10.444 0-.381.022-.777.066-1.191l.177-1.667-1.579.563c-.832.297-1.558.895-2.3 1.577-.262-1.402-.405-3.117-.405-4.992 0-1.707.112-3.531.339-5.329l.175-1.37-1.369.193c-1.098.157-1.848.321-2.656.617.05-2.702.626-5.26 1.792-7.601l1.022-2.052-2.223.562c-1.046.265-1.776.598-2.358.972.341-1.733.991-3.387 1.966-4.798l2.048-2.96-3.321 1.389c-1.875.784-3.308 1.112-4.645 1.061-1.282-.048-2.424-.444-3.592-1.242l-.947-.648-.558.994c-1.137 2.003-2.896 3.146-4.826 3.135-1.853-.011-3.491-1.228-4.377-3.254l-.768-1.758-1.07 1.592c-1.571 2.335-4.247 5.052-6.624 5.023-.344-.004-1.252-.015-1.748-2.124l-.302-1.289-1.19.584c-1.248.615-2.718 1.05-3.831 1.136-.84.063-1.466-.062-1.764-.355-.216-.214-.31-.584-.279-1.106l.124-2.031-1.732 1.074c-1.477.917-3.862 1.847-5.562 1.854-.601.002-1.043-.117-1.214-.333-.17-.21-.186-.646-.05-1.227l.761-3.236-2.537 2.26c-.333.297-2.575 1.461-4.236 1.284-.79-.085-1.207-.453-1.393-1.23l-.221-.921-.939.121c-1.536.199-3.251-.191-4.472-1.018-.919-.623-1.975-1.76-1.787-3.648l.144-1.453-1.424.322c-1.072.242-2.509.369-3.264-.412-.451-.466-.556-1.144-.556-1.525 0-.116.011-.207.022-.254l.274-1.052-1.037-.317c-1.785-.405-3.929-1.378-4.419-2.557l-.261-.63-.684-.018c-5.723-.151-14.308-.402-18.782-5.653-.02-.195-.041-.402-.173-.593-.106-.154-.246-.281-.41-.37a1.19 1.19 0 0 0-.533-.146c-10.803-.466-24.679-5.973-27.313-13.133l-.166-.453-.451-.17c-12.673-4.748-15.96-9.734-16.786-11.659l-.186-.433-.448-.149c-7.158-2.417-11.846-4.817-13.098-9.311l-.182-.652-.669-.105c-7.633-1.208-15.484-5.992-18-10.685l37.224-.208c6.756-.037 13.876-.238 21.411-.449 22.733-.639 48.502-1.363 68.886 2.658 5.688 1.122 16.612 7.41 22 17.346l.291.538.611.015c4.828.111 7.987 4.459 11.041 8.666 2.931 4.034 5.699 7.844 9.873 7.921 2.94.053 7.775-2.478 11.732-9.796l1.202-2.225-2.426.715a14.01 14.01 0 0 1-4.078.588c-.239-.002-.455-.089-.69-.105 3.79-2.865 3.967-6.613 4.034-8.588l.09-2.216-1.549.672c-.881.391-2.338.525-3.745.374.704-1.358 1.293-3.098 1.293-4.732a5.62 5.62 0 0 0-.182-1.472l-.435-1.608-1.267 1.079c-1.122.958-2.021 1.523-3.032 1.893-.055-1.44-.299-2.722-.816-3.894-1.505-3.4-4.496-4.666-7.136-5.784-1.787-.757-3.061-1.411-3.866-2.337.851.389 1.737.615 2.632.615 1.326 0 2.547-.521 3.535-1.507.643-.792.943-1.676.948-2.645.006-1.159-.407-2.402-1.134-3.411-1.516-2.109-3.837-3.177-6.711-3.091-2.346.072-4.628.882-6.205 1.591 1.319-3.689 5.297-5.421 8.935-5.43z" class="B"/><path d="M238.31 161.92c-.17 6.034-2.076 16.983-7.455 20.822-4.544 3.243-11.027 1.011-14.402 5.57l.422 2.731c5.093.054 6.154.426 11.591-3.359-3.497 2.481-5.706 4.065-6.124 8.169 1.368.289 2.026 1.493 2.953 2.059 1.659-1.748 3.722-3.686 5.982-7.436-.3 2.934-1.707 4.994-1.707 7.815a10.48 10.48 0 0 1 3.612 0c1.055-2.311 3.803-7.511 3.803-10.186 3.156 0 5.348-.556 8.315-1.064 1.341-.229 2.791.125 4.57-.159.166-1.326.015-2.49.015-3.676-3.305-1.035-3.725-2.056-7.689-3.918-1.423-3.144.442-8.215 1.461-13.456-1.805-.998-3.282-2.591-4.014-4.691-.442.195-.891.466-1.333.779z" class="C"/><path d="M239.227 160.178l-2.035 1.177.066.536c-.171 6.146-2.181 16.544-7.014 19.994-1.807 1.289-3.982 1.619-6.285 1.967-3.056.463-6.215.943-8.353 3.833l-.262.352.623 4.045 2.083.031c1.789.032 3.098.043 4.423-.228-.603 1.059-1.023 2.29-1.183 3.861l-.096.941.925.195c.582.122 1.008.531 1.501 1.002l1.875 1.548.56-.796.634-.661c.667-.691 1.416-1.487 2.205-2.41a10.91 10.91 0 0 0-.382 2.725v1.237l1.223-.199c1.077-.19 2.178-.191 3.255-.003l.796.147.993-2.098c1.488-3.104 2.779-6.027 3.116-8.248 2.144-.074 3.889-.374 5.841-.735l1.741-.311 1.783-.05c.812.027 1.735.059 2.774-.107l.871-.138.009-.772.054-2.715-.052-1.844-.718-.254c-1.748-.549-2.601-1.072-3.776-1.798-1.086-.681-2.208-1.304-3.362-1.864-.225-.656-.336-1.345-.328-2.039 0-1.912.557-4.277 1.131-6.734l.995-4.5-.694-.354c-1.695-.939-2.916-2.361-3.528-4.115l-.42-1.202-.989.584zm-14.955 25.758c2.446-.371 4.975-.756 7.193-2.338 5.589-3.99 7.517-14.443 7.838-20.681.746 1.357 1.842 2.505 3.171 3.385l-.659 2.984c-.604 2.571-1.186 5.049-1.186 7.215 0 1.179.173 2.264.606 3.223l.16.354.35.166a32.18 32.18 0 0 1 3.57 1.956c1.046.645 2.006 1.212 3.534 1.759l.012.427-.026 1.518a17.85 17.85 0 0 1-1.509.022l-2.206.078-1.769.317c-2.125.392-3.96.729-6.369.729h-1.052v1.054c0 1.989-1.912 5.977-3.054 8.358l-.339.715c-.59-.061-1.183-.076-1.776-.044.139-.917.363-1.807.651-2.715.374-1.175.76-2.391.908-3.839l.479-4.682-2.428 4.03c-1.901 3.155-3.631 4.959-5.161 6.545l-.131-.113a7.12 7.12 0 0 0-1.525-1.105c.552-3.08 2.347-4.469 5.518-6.718l-1.21-1.724c-4.704 3.275-5.778 3.257-9.777 3.187l-.308-.004-.206-1.332c1.623-1.904 3.973-2.315 6.701-2.727z" class="B"/><path d="M221.808 202.578c-.78-1.179-1.282-4.673.167-6.648.901.359 2.728.901 3.458 1.733-1.085 1.061-2.929 3.349-3.625 4.915z" class="C"/><g class="B"><path d="M221.126 195.306c-1.706 2.322-1.247 6.264-.197 7.854l1.061 1.604.779-1.759c.639-1.44 2.417-3.629 3.399-4.59l.714-.698-.659-.752c-.772-.878-2.234-1.416-3.305-1.807l-1.3-.488-.492.636zm.978 3.987c0-.716.157-1.414.411-2.035l1.328.569c-.543.614-1.122 1.354-1.667 2.126-.022-.227-.072-.426-.072-.66zm31.426-44.47c1.09 1.127 2.61 4.738 2.61 8.193 0 .663-.057 1.323-.182 1.956-.352 1.765-1.227 3.097-2.563 4.008-.723-2.276-2.501-6.047-5.216-7.745l-.855-.536-.571.832c-.731 1.067-1.156 2.399-1.418 3.857-2.214-.823-3.953-2.447-4.697-4.588l-.374-1.07-1.039.449c-1.687.732-3.365 2.38-4.474 3.471l-.142.132c-1.547-1.886-2.223-3.536-2.28-5.737l-.033-1.244-3.052.599.576 2.022.544-.105c.303 2.43 1.3 4.465 3.372 6.711l.717.773.698-.654 1.076-.998c.79-.775 1.895-1.847 2.983-2.555.662 1.309 1.605 2.456 2.762 3.358s2.499 1.536 3.93 1.859l1.196.276.09-1.225a8.94 8.94 0 0 1 .809-3.107c2.221 2.105 3.582 6.034 3.674 6.925l.146 1.432 1.319-.573c2.621-1.139 4.312-3.268 4.886-6.16.901-4.527-1.162-10.143-2.976-12.02l-1.516 1.464zm.392-58.843c-1.171 4.907-3.682 6.27-6.384 6.948.267-.912.422-1.898.422-2.859 0-.691-.074-1.363-.23-1.975l-.599-2.356-1.306 2.05c-1.737 2.726-4.181 4.148-7.469 4.347l.127 2.099c2.905-.175 5.319-1.202 7.233-3.031-.14.979-.388 1.932-.83 2.589l-1.4 2.078 2.464-.457c2.995-.556 6.933-1.313 9.105-6.235a7.89 7.89 0 0 1 .249 1.894c0 .573-.054 1.151-.138 1.75l-.315 2.234 1.915-1.196c3.491-2.182 4.235-4.472 4.342-7.692l-2.104-.07c-.066 2.01-.376 3.356-1.612 4.612-.047-1.527-.416-3.181-1.545-5.04l-1.328-2.186-.597 2.494zm-21.157-29.398c-1.701.026-2.821 1.015-2.921 2.582-.057.921.431 1.669.905 2.393.48.737.976 1.496.976 2.498h2.105c0-1.626-.762-2.796-1.319-3.647-.272-.416-.582-.888-.567-1.109.018-.28.039-.599.855-.612 1.252-.02 2.72.866 4.42 1.894 2.666 1.612 5.983 3.616 10.689 3.649l.017-2.105c-4.128-.029-7.044-1.792-9.617-3.345-1.98-1.195-3.686-2.227-5.543-2.197z"/><path d="M232.15 68.339c.402 2.212 2.188 4.935 5.163 5.682.831.21 2.387.435 3.467-.418.449-.356.985-1.041.969-2.282l-2.106.028c.002.212-.024.488-.167.604-.253.199-.931.21-1.651.029-1.976-.499-3.31-2.4-3.604-4.019l-2.071.376zm35.964 24.463c1.131 1.289 1.669 2.485 1.774 3.671-1.805-1.258-3.916-2.008-5.763-1.987l.024 2.105c1.836-.022 4.245 1.09 5.857 2.702l1.216 1.216.53-1.634c.814-2.518.142-4.957-2.057-7.462l-1.581 1.389zm2.997 12.073c.354.653.739 1.735.888 2.93-1.149-1.256-2.483-2.164-4.505-2.662l-.501 2.045c2.168.532 3.374 1.505 4.958 4.01l1.181 1.866.705-2.093c.988-2.93-.123-5.702-.873-7.095l-1.853.999zm-26.863 12.149l.286 2.105 1.501-1.501c1.674-1.674 5.014-3.199 6.447-3.413l-.308-2.081c-1.302.191-3.791 1.193-5.822 2.556.213-1.665.956-3.089 2.195-3.975l-1.221-1.711c-2.376 1.695-3.525 4.692-3.078 8.02zm19.21.216c.588.994.882 2.372.882 3.761 0 .545-.083 1.079-.175 1.606-1.483-2.538-3.501-4.54-5.787-5.633l-.908 1.899c2.448 1.17 4.658 3.741 5.911 6.873l.803 2.011 1.085-1.877c1.565-2.709 1.565-7.065-.002-9.711l-1.809 1.071zm12.426-.866c.735 1.405 1.103 2.964 1.103 4.719 0 .066-.018.142-.02.208-1.464-1.781-3.214-3.575-5.937-4.669l-.784 1.952c2.844 1.144 4.415 3.148 6.076 5.27l2.063 2.621.413-2.302c.613-3.386.271-6.257-1.05-8.773l-1.864.974zm1.553 11.748c.703.952.972 2.05.972 3.113 0 .339-.075.654-.123.982-1.326-1.866-3.38-3.915-5.931-4.725l-.64 2.006c2.784.882 5.184 3.938 5.93 5.723l.889 2.129 1.025-2.068c1.07-2.161 1.6-5.661-.43-8.411l-1.692 1.251zm-36.033 4.916l.197 2.334 1.612-1.697c1.733-1.823 5.021-4.092 7.309-4.58l-.439-2.058c-2.039.437-4.477 1.881-6.421 3.424.433-2.346 1.785-4.231 3.953-5.201l-.86-1.92c-3.671 1.643-5.719 5.36-5.351 9.698zm-9.083-12.507v2.001l1.649-1.133c1.838-1.266 4.397-2.656 5.474-2.98l-.604-2.016c-1.022.308-2.73 1.2-4.279 2.132.286-2.224 1.166-5.176 3.76-6.67l-1.052-1.822c-4.467 2.573-4.948 8.191-4.948 10.488zm46.523 20.367c1.512 1.269 3.531 3.693 4.246 6.343l.484 1.798 1.289-1.341c2.616-2.717 1.776-6.159 1.417-7.631l-.089-.378-2.057.441.101.436c.153.615.363 1.479.363 2.415 0 .538-.072 1.103-.263 1.658-.999-2.048-2.406-3.871-4.135-5.355l-1.356 1.614zm-13.944 5.03l.109 2.273 1.661-1.553c2.113-1.976 4.406-3.405 6.631-4.135l-.654-1.998c-1.762.576-3.543 1.551-5.26 2.822.538-1.787 1.61-3.531 3.01-4.18l-.883-1.91c-3.037 1.402-4.759 5.598-4.614 8.681zm-11.265-6.342c1.49.555 3.061 2.732 3.768 4.848-1.899-1.348-3.652-1.866-5.135-2.287l-1.21-.361-.661 1.996 1.296.389c1.977.562 4.02 1.14 6.366 3.595l1.575 1.651.232-2.269c.35-3.438-2.525-8.427-5.498-9.534l-.733 1.972zm-25.67-73.728l-.066-2.689 2.103-.052.065 2.689-2.102.052zm2.032 65.591l-.057 2.164 2.901-2.161c.733-.556 1.374-1.033 2.044-1.433-.946 2.1-1.457 4.224-1.457 6.296 0 .667.05 1.328.152 1.982l2.079-.321c-.464-3.017.365-6.279 2.402-9.434l1.404-2.175-2.526.58c-1.739.399-2.96 1.088-4.139 1.919.927-2.063 2.671-3.923 4.495-4.421l-.555-2.029c-3.492.956-6.644 5.175-6.743 9.033z"/><path d="M235.142 139.061l-1.034-1.832.19-.107 1.035 1.831-.191.108z"/><path d="M226.473 143.954l1.772 1.134c2.47-3.862 6.132-6.216 9.8-6.301l-.048-2.104c-4.434.1-8.634 2.752-11.524 7.271zM95.23 75.818c5.568 8.357 10.704 12.881 21.883 12.862 8.911-.015 19.13-2.942 25.89-4.879l-.578-2.024c-6.65 1.906-16.696 4.784-25.314 4.798-10.288.017-14.85-4.001-20.129-11.925l-1.752 1.168z"/><path d="M106.829 86.741c3.279 6.642 9.285 9.836 18.362 9.761 10.903-.088 15.644-1.359 21.135-2.829l-.545-2.034c-5.351 1.433-9.973 2.671-20.606 2.757-8.304.068-13.533-2.662-16.46-8.587l-1.886.932zm38.208 17.904c2.895 5.72 9.959 8.831 19.889 8.761 6.589-.046 14.071-1.525 21.068-4.165l-.742-1.969c-6.773 2.555-13.997 3.986-20.341 4.03-9.09.065-15.483-2.638-17.997-7.607l-1.877.95z"/><path d="M123.215 96.262c4.306 5.087 13.536 8.644 22.969 8.854 3.566.079 15.922.033 25.132-3.887l-.824-1.936c-8.824 3.754-20.803 3.797-24.262 3.719-10.184-.226-18.235-4.361-21.409-8.11l-1.606 1.359zm32.573 16.025c1.435 3.582 4.154 6.106 8.083 7.504 9.165 3.258 22.733-.518 29.44-4.242l-1.023-1.84c-6.178 3.429-19.259 7.104-27.712 4.098-3.336-1.186-5.636-3.306-6.835-6.305l-1.953.785zm24.73 13.532c.967 1.833 2.754 3.159 5.169 3.834 4.176 1.166 9.939.269 14.012-2.183l-1.083-1.803c-3.559 2.14-8.759 2.965-12.362 1.958-1.869-.522-3.174-1.459-3.874-2.787l-1.862.981z"/><path d="M169.671 120.607c1.035 1.564 3.459 5.224 9.967 5.769 4.682.39 10.79-.877 18.156-3.769l-.768-1.958c-7.064 2.774-12.855 3.993-17.211 3.629-5.491-.459-7.376-3.305-8.389-4.834l-1.755 1.163zm19.606 8.804c.155 1.851 2.422 3.973 5.391 5.044 2.023.729 7.211 1.934 11.698-2.636l-1.501-1.474c-3.634 3.699-7.841 2.723-9.482 2.13-2.479-.896-3.944-2.483-4.006-3.241l-2.1.177z"/><path d="M212.147 134.484c-.757 1.829-3.266 3.006-6.248 2.931-2.493-.063-5.64-1.063-7.007-3.681l-1.864.975c1.497 2.866 4.875 4.71 8.819 4.809 3.227.081 5.928-1.077 7.416-2.976 1.694 1.643 3.802 2.595 5.992 2.573 2.418-.024 4.765-1.19 6.837-3.305 1.704.348 3.422.323 5.119-.202l-.623-2.01c-1.487.476-3.08.509-4.586.096l-.621-.168-.431.477c-1.763 1.949-3.739 2.988-5.717 3.006-1.962.019-3.889-.992-5.287-2.774l-1.112-1.418-.687 1.667zM77.405 87.14l-.403 2.067c9.704 1.892 22.118.803 31.851-.361l-.25-2.089c-9.58 1.144-21.783 2.221-31.198.383zm13.408 9.902l-.499 2.043c10.285 2.518 25.592 2.183 35.605-.777l-.597-2.019c-9.703 2.87-24.538 3.192-34.509.753zm17.204 14.243c17.615 6.388 40.989 2.428 47.734 1.063l-.418-2.061c-6.609 1.337-29.497 5.222-46.6-.978l-.716 1.976zm28.944 11.865v2.105c9.214 0 22.669-2.505 27.687-5.154l-.982-1.86c-4.695 2.477-17.924 4.909-26.705 4.909zm19.343 6.859l-.079 2.103c4.651.175 16.132-2.637 20.965-6.303l-1.271-1.678c-4.428 3.356-15.356 6.036-19.615 5.878zm5.277 3.163l-.168 2.096c6.731.538 16.871-.903 23.296-6.736l-1.415-1.559c-5.927 5.381-15.4 6.701-21.713 6.199zm11.494 9.482l1.361 1.606c1.45-1.23 3.032-3.111 4.342-5.157l-1.772-1.135c-1.185 1.849-2.655 3.603-3.931 4.686zm7.305.678l1.323 1.636c1.438-1.163 2.637-2.572 3.892-4.569l-1.781-1.118c-1.124 1.791-2.185 3.04-3.434 4.051zm8.762.449l-.213.238 1.573 1.398.212-.236 2.529-2.899-1.629-1.332-2.472 2.831zm9.026 2.887l-1.621-1.341 3.235-3.913 1.62 1.339-3.234 3.915zm-63.732-61.041c1.582 3.887 5.515 7.876 9.969 7.983 5.581.135 13.531-2.299 19.779-6.053l-1.083-1.803c-5.937 3.568-13.43 5.878-18.646 5.754-3.548-.085-6.746-3.422-8.07-6.675l-1.949.794z"/><path d="M157.868 94.987c-3.069-.002-5.585-1.129-7.692-3.444l-1.557 1.416c2.492 2.739 5.604 4.13 9.247 4.132 6.073.006 12.838-3.767 18.652-7.462l-1.128-1.776c-5.235 3.327-11.956 7.141-17.522 7.134z"/><path d="M181.598 93.865c-3.695 2.549-7.515 5.187-11.166 5.303-2.693.085-5.143-1.229-7.486-4.019l-1.612 1.354c2.787 3.314 5.784 4.874 9.164 4.769 4.272-.135 8.35-2.953 12.295-5.677l1.844-1.264-1.173-1.742-1.866 1.276z"/><path d="M179.187 102.128c-3.439.19-4.532-1.131-5.149-2.446l-1.906.892c1.243 2.656 3.588 3.851 7.171 3.654 4.004-.221 8.83-2.566 12.91-6.274l-1.417-1.558c-3.731 3.395-8.071 5.537-11.609 5.732z"/><path d="M184.543 105.182a4.76 4.76 0 0 1-1.741-.886 4.78 4.78 0 0 1-1.239-1.508l-1.85 1.002c.435.832 1.038 1.564 1.77 2.152a6.8 6.8 0 0 0 2.483 1.263c3.531 1.007 8.392-.232 14.443-3.684l-1.042-1.827c-6.904 3.936-10.785 4.068-12.824 3.488z"/><path d="M184.018 106.523c.67 2.245 2.037 3.839 4.067 4.736 5.833 2.579 14.982-1.546 16.758-2.398l-.912-1.896c-3.623 1.741-10.858 4.198-14.995 2.369-1.461-.647-2.409-1.763-2.901-3.413l-2.017.602z"/><path d="M189.852 111.859c3.718 6.67 9.058 7.525 20.412 3.266l-.738-1.969c-11.566 4.338-15.081 2.623-17.836-2.319l-1.838 1.022z"/><path d="M198.122 117.477c1.024 2.5 2.879 4.268 5.369 5.115 3.66 1.244 8.541.417 13.062-2.212l-1.06-1.82c-3.998 2.329-8.233 3.091-11.324 2.039-1.921-.652-3.301-1.972-4.098-3.919l-1.949.797z"/><path d="M207.667 122.926c1.101 2.516 2.958 4.249 5.227 4.879 2.728.759 5.961-.081 9.592-2.393 1.307 2.846 3.26 3.43 6.05 3.393l-.027-2.105c-2.397.033-3.546-.26-4.511-3.187l-.444-1.352-1.162.822c-3.557 2.514-6.563 3.455-8.934 2.796-2.113-.588-3.268-2.336-3.866-3.697l-1.925.844zm187.482-39.142c-9.024-.015-16.928-.976-23.492-2.857l-.579 2.022c6.753 1.936 14.85 2.923 24.069 2.938 9.757.017 16.034-3.159 21.663-10.954l-1.705-1.232c-5.252 7.27-10.846 10.098-19.956 10.083z"/><path d="M384.314 93.694c-4.31.029-9.97-.809-15.529-2.297l-.543 2.032c5.732 1.534 11.595 2.398 16.085 2.369 8.56-.055 14.342-3.273 19.335-10.759l-1.749-1.168c-4.62 6.926-9.717 9.772-17.599 9.823zm-54.376 12.77c5.064 3.338 12.73 7.773 20.825 7.779 5.69.002 10.949-2.188 15.627-6.51l-1.427-1.545c-4.336 4.006-8.982 5.953-14.2 5.949-7.528-.003-14.829-4.242-19.666-7.43l-1.159 1.757z"/><path d="M366.145 105.56c-5.822.169-17.506-3.15-23.287-7.525l-1.27 1.678c6.21 4.701 18.333 8.134 24.618 7.95 10.129-.296 20.054-7.673 23.931-12.252l-1.606-1.359c-3.642 4.303-12.94 11.234-22.386 11.509zm-42.516 6.655c2.946 5.469 10.444 9.504 17.831 9.593 6.59.079 11.897-2.826 14.949-8.177l-1.829-1.042c-3.583 6.284-9.742 7.156-13.095 7.115-6.669-.079-13.398-3.649-16.003-8.486l-1.853.997zm1.525 17.474c-3.51.111-7.502-1.131-9.933-3.09l-1.321 1.639c2.839 2.288 7.281 3.684 11.321 3.557 3.875-.122 6.911-1.614 8.547-4.202l-1.78-1.123c-1.689 2.667-5.006 3.16-6.834 3.219z"/><path d="M315.58 119.96c7.062 6.731 13.675 7.565 17.979 7.081 5.565-.627 9.461-3.611 10.608-5.344l-1.753-1.162c-.761 1.147-4.106 3.853-9.088 4.413-3.859.435-9.818-.342-16.294-6.513l-1.452 1.525zm2.428 13.301c-1.862.179-4.605-.14-7.092-2.673l-1.501 1.474c3.071 3.126 6.476 3.516 8.795 3.293 3.765-.361 6.873-2.545 7.884-4.413l-1.849-1c-.75 1.378-3.347 3.041-6.237 3.319z"/><path d="M302.414 135.221c-.75 1.862-1.833 3.063-2.898 3.212-1.083.153-2.061-.773-2.691-1.578l-1.656 1.296c1.759 2.249 3.495 2.529 4.644 2.367 1.464-.208 2.763-1.258 3.772-2.962 1.778 1.946 4.24 2.949 6.908 2.671 3.133-.328 5.778-2.31 6.741-5.049l-1.985-.696c-.693 1.975-2.647 3.408-4.974 3.651-2.464.258-4.647-.858-5.986-3.065l-1.091-1.794-.784 1.947zm104.059-51.155c4.685 1.577 10.419 2.47 16.58 2.579 4.87.085 9.803-.33 14.27-1.201l-.404-2.065c-4.323.844-9.105 1.245-13.829 1.162-5.95-.105-11.463-.96-15.946-2.47l-.671 1.995zm-.727 12.639c-6.303-.081-12.087-1.162-15.471-2.892l-.959 1.873c3.711 1.897 9.69 3.035 16.402 3.124 7.066.09 14.366-.984 20.555-3.025l-.66-1.998c-5.97 1.971-13.026 3.006-19.867 2.918zm-24.495 14.926c-7.183.105-14.074-.626-19.405-2.058l-.545 2.034c5.511 1.479 12.607 2.236 19.978 2.131 10.742-.153 21.067-2.065 29.079-5.378l-.805-1.946c-7.771 3.215-17.823 5.068-28.302 5.217zm-31.941 7.685c4.144 4.057 21.23 6.371 31.451 5.205l-.237-2.091c-10.264 1.174-26.384-1.331-29.74-4.618l-1.474 1.504zm-7.926 4.308c4.701 3.564 14.209 8.427 19.022 8.244l-.079-2.101c-3.887.145-12.844-4.159-17.67-7.821l-1.273 1.678zm-8.477 3.951c4.977 6.027 14.533 9.287 23.239 7.928l-.326-2.078c-8.007 1.251-16.762-1.706-21.29-7.189l-1.623 1.339zm7.372 9.585l1.013 1.618c1.046 1.683 2.232 3.59 3.303 4.962l1.657-1.295c-.998-1.284-2.153-3.141-3.171-4.778l-1.028-1.643-1.774 1.136zm-6.375 1.341l.989 2.176c.635 1.483 1.238 2.884 1.984 3.698l1.549-1.422c-.503-.55-1.061-1.849-1.599-3.105l-1.054-2.312-1.869.965zm-7.944 1.332l.727 1.918c.834 2.308 1.168 3.142 1.514 3.531l1.606-1.358c-.211-.315-.794-1.925-1.14-2.888l-.812-2.118-1.895.915zm-7.026 7.018l-2.311-4.338 1.86-.989 2.31 4.336-1.859.991zm51.179-55.706c-5.299.125-10.022-2.711-15.491-5.996l-1.083 1.803c5.749 3.454 10.717 6.438 16.624 6.296 4.255-.101 9.865-4.1 11.547-8.226l-1.949-.794c-1.363 3.343-6.233 6.834-9.648 6.917z"/><path d="M343.316 91.36l.52.293c6.797 3.816 16.104 9.044 24.575 1.634l-1.387-1.584c-7.351 6.43-15.561 1.82-22.157-1.884l-.521-.293-1.03 1.835z"/><path d="M331.262 94.455c4.222 2.84 7.554 5.082 12.564 5.24 3.113.096 6.405-.107 9.406-3.677l-1.612-1.354c-2.4 2.853-4.92 3.013-7.729 2.925-4.2-.133-6.952-1.853-11.455-4.881l-1.174 1.746z"/><path d="M323.567 98.684c2.009 1.825 7.804 4.28 12.682 4.133 3.039-.092 5.286-1.214 6.5-3.242l-1.807-1.079c-.838 1.402-2.437 2.148-4.758 2.218-4.221.129-9.537-2.075-11.202-3.587l-1.415 1.556z"/><path d="M327.378 105.51c-2.417 0-5.39-1-8.842-2.969l-1.042 1.827c3.774 2.153 7.099 3.246 9.882 3.247 3.43.002 6.141-1.657 7.841-4.796l-1.849-1.002c-1.347 2.487-3.308 3.695-5.99 3.693z"/><path d="M322.615 110.242c-2.259.203-4.9-.328-7.247-1.455l-.911 1.895c2.676 1.288 5.719 1.89 8.345 1.654 3.445-.309 6.057-2.006 7.551-4.903l-1.872-.963c-1.162 2.256-3.133 3.525-5.866 3.772z"/><path d="M317.079 117.044c-2.217.019-5.095-.823-9.057-2.648l-.88 1.912c4.253 1.958 7.416 2.862 9.954 2.84 4.45-.037 6.716-3.032 8.346-5.955l-1.838-1.024c-1.942 3.487-3.773 4.853-6.525 4.875zm-7.404 27.272h2.105v1.214h-2.105v-1.214z"/><path d="M311.056 122.123c-2.021.147-4.561-.531-6.322-1.689l-2.164-1.424.56 2.531c.317 1.438.166 2.722-.429 3.61-.174.271-.402.503-.671.681a2.32 2.32 0 0 1-.887.354c-1.102.193-2.358-.335-3.636-1.532l-1.439 1.534c2.251 2.107 4.198 2.289 5.439 2.07.597-.106 1.166-.332 1.672-.666a4.46 4.46 0 0 0 1.272-1.273c.593-.884.889-1.986.921-3.187 1.857.803 3.986 1.223 5.839 1.087 2.938-.216 5.183-1.783 6.321-4.419l-1.932-.834c-.838 1.935-2.367 2.996-4.544 3.157zm-46.194 40.517c.068 3.144 1.171 5.821 3.192 7.738l1.381 1.31.424-2.113c.215-1.074.442-2.12 1.114-3.492.558.525 1.087 1.088 1.577 1.766l.937 1.301 1.515-2.55c.843-1.493 1.923-3.3 3.919-4.627 1.332.772 3.109 2.456 4.237 3.541l2.227 2.052.573-1.251c1.125-2.083 2.368-3.242 3.916-4.459l.836.497 1.212-1.72-2.295-1.36-.487.475c-1.318 1.012-2.902 2.294-4.317 4.443l-.206-.191c-1.45-1.397-3.642-3.506-5.335-4.241l-.484-.21-.459.262c-2.761 1.584-4.106 3.879-5.084 5.609a13.36 13.36 0 0 0-1.954-1.842l-.934-.704-.602 1.002a14.17 14.17 0 0 0-1.514 3.386c-.801-1.308-1.251-2.861-1.29-4.67l-.001-.269c0-3.549 1.484-6.741 2.521-7.813l-1.512-1.463c-1.569 1.63-3.194 5.545-3.107 9.593z"/></g><path d="M212.366 194.153c-.168-1.92 1.265-5.596 4.067-6.639-.129 1.19-.083 2.811.492 3.874-1.643.337-3.419 1.626-4.559 2.765z" class="C"/><path d="M216.064 186.529c-3.254 1.21-4.96 5.31-4.748 7.716l.195 2.247 1.597-1.592c.963-.959 2.595-2.186 4.028-2.481l1.389-.285-.676-1.247c-.444-.822-.482-2.224-.37-3.261l.182-1.694-1.597.597zm-.679 2.901c.035.438.114.856.23 1.308a9.62 9.62 0 0 0-1.612.804c.332-.764.765-1.515 1.382-2.112z" class="B"/><path d="M232.34 204.16c-1.772-.792-3.625-3.006-2.744-5.725 1.127-.21 2.635-.343 3.763.076-.509 1.878-1.223 4.046-1.019 5.649z" class="C"/><path d="M229.404 197.398l-.615.114-.194.597c-1.017 3.137.951 5.955 3.316 7.012l1.711.765-.236-1.861c-.151-1.164.337-2.895.765-4.422l.486-1.752-.91-.33c-1.38-.508-3.111-.348-4.323-.123zm2.634 1.96a23.87 23.87 0 0 0-.615 2.811c-.557-.61-.997-1.4-.997-2.354 0-.133.052-.28.07-.418.58-.069 1.087-.081 1.542-.039z" class="B"/><path d="M255.289 188.013c-.256-2.365-3.229-4.592-5.343-4.562.206 1.175.075 2.234.049 3.341 1.822.182 4.012.693 5.294 1.221z" class="C"/><path d="M249.929 182.397l-1.236.019.214 1.219c.138.777.103 1.525.066 2.317l-.068 1.807.985.081c1.697.17 3.798.65 4.997 1.146l1.642.678-.192-1.765c-.32-2.954-3.851-5.537-6.408-5.502zm1.182 2.492c0-.037-.007-.079-.009-.116.774.297 1.524.846 2.128 1.513l-2.148-.408.029-.989zm-15.601-9.486l.059 2.104 3.73-.017 2.317.009-.015-2.105-2.287-.007-3.804.016zm1.26-1.518l-.037-2.103 5.434-.1.039 2.104-5.436.099zm5.524-5.846l-4.734.094.033 2.104 5.388-.109.952-1.463c-.28-.655-.735-.646-1.639-.626zm-15.598 16.406l-4.724.807c.167.171.392.286.619.398l.156 2.511c1.1.313.897-1.067 1.995-1.067l2.011-.621-.057-2.028zm-3.774 6.258c.892-.255 1.822-.671 2.975-1.351l-.013-.25c-.941 0-2.196.313-2.824.785 0 .178-.051.473-.138.816zm3.004-1.142c-1.459 1.184-2.521 2.376-3.114 4.076 1.366-.017 2.89.002 3.857.484.418-1.252-.525-3.249-.743-4.56zm4.887 3.23l-1.028 3.539 1.98-.846c.157-.626 1.826-2.748 2.61-2.748-.363-.366-2.324-.09-3.562.055zm17.696-9.793c-2.54-.581-2.842-1.969-5.906-3.511.372 3.229 1.947 5.537 5.714 5.537.135-.542.181-1.26.192-2.026z" class="B"/><path d="M280.741 161.983c.17 6.036 1.262 15.631 6.64 19.471 4.545 3.242 8.076 2.161 11.329 5.078l-.273 3.273c-5.732-1.865-3.548-.123-8.162-1.438 3.498 2.481 4.607 2.557 5.027 6.66-1.369.29-2.024 1.494-2.953 2.06-1.659-1.748-4.684-2.588-6.942-6.338.3 2.932.748 5.678.748 8.5a10.48 10.48 0 0 0-3.612 0c-1.058-2.311-3.531-7.511-3.531-10.186-3.156 0-3.29-3.299-6.258-3.805-1.34-.231-3.337.808-5.118.526-.166-1.326-.013-2.49-.013-3.674 3.302-1.035 4.271-3.154 8.237-5.018 1.422-3.142.193-7.253-.823-12.494.869-1.88 2.217-2.724 3.796-3.969.444.195 1.468 1.042 1.908 1.354z" class="C"/><path d="M278.181 159.804l-.621.48c-1.346 1.036-2.619 2.014-3.479 3.874l-.148.313.544 2.677c.523 2.518.974 4.7.974 6.559 0 .98-.153 1.853-.46 2.652-1.724.864-2.914 1.765-3.946 2.568-1.216.943-2.173 1.689-3.739 2.179l-.718.225-.052 1.871.072 3.597.862.028c1.144.182 2.278-.07 3.284-.293.718-.158 1.398-.307 1.822-.236 1.037.179 1.6.809 2.315 1.607.741.827 1.671 1.777 3.194 2.081.317 2.522 1.807 6.025 3.279 9.228l.56 1.221.807-.145c1.076-.188 2.178-.187 3.254.004l1.223.197v-1.238c0-1.719-.169-3.384-.363-5.088.962.899 1.929 1.573 2.782 2.146.786.527 1.462.982 1.958 1.505l.676.715.637-.54 1.12-.925c.494-.471.919-.88 1.501-1.002l.927-.195-.098-.943c-.271-2.673-.891-3.897-2.118-4.995.63-.004 1.514.112 3.879.882l1.265.411.43-5.121-.391-.35c-1.818-1.632-3.667-2.127-5.625-2.654-1.811-.486-3.682-.991-5.793-2.496-4.793-3.419-6.016-12.026-6.2-18.644l-.015-.507-.915-.689-2.249-1.523-.435.564zm.661 2.151l.035-.026.838.601c.249 7.025 1.689 15.953 7.057 19.782 2.42 1.728 4.572 2.307 6.471 2.819 1.622.436 3.039.851 4.371 1.895l-.117 1.398c-2.243-.65-3.057-.626-3.801-.582-.608.037-1.183.07-3.128-.484l-6.182-1.763 6.722 4.625c2.07 1.398 2.7 1.934 3.032 4.198a6.89 6.89 0 0 0-1.573 1.127l-.198.168c-.503-.408-1.024-.791-1.563-1.15-1.472-.989-3.141-2.109-4.491-4.354l-2.487-4.132.803 7.158c.196 1.673.352 3.27.419 4.87-.619-.038-1.239-.026-1.855.037-1.07-2.33-3.126-6.859-3.126-9.073v-1.056h-1.054c-1.142 0-1.685-.547-2.549-1.514-.787-.88-1.766-1.976-3.529-2.278-.833-.142-1.708.051-2.632.256a12.54 12.54 0 0 1-1.634.248l-.024-1.438.013-.45c1.507-.595 2.582-1.394 3.682-2.249 1.085-.843 2.207-1.715 3.969-2.542l.352-.164.16-.353c.533-1.17.735-2.444.735-3.815 0-2.107-.484-4.446-1.013-6.994l-.394-1.945c.628-1.203 1.501-1.904 2.691-2.82z" class="B"/><path d="M295.836 201.344c.781-1.177 1.282-4.674-.168-6.65-.899.359-2.56 1.599-3.291 2.43 1.085 1.062 2.615 2.652 3.459 4.22z" class="C"/><path d="M295.276 193.716c-1.136.455-2.918 1.831-3.693 2.713l-.659.75.714.698c.593.578 2.393 2.341 3.27 3.966l.834 1.549.971-1.466c1.05-1.588 1.508-5.53-.197-7.855l-.483-.655-.757.3zm-.083 2.448c.212.58.345 1.206.345 1.844 0 .326-.063.604-.1.908l-1.56-1.77a13.73 13.73 0 0 1 1.315-.982z" class="B"/><path d="M303.084 193.057c.17-1.92-1.265-5.598-4.067-6.639-.042 1.133-.14 2.196-.492 3.332 1.568.639 3.36 2.389 4.559 3.307z" class="C"/><path d="M297.965 186.376c-.042 1.112-.136 2.059-.445 3.061l-.286.921.893.365c.999.409 2.229 1.44 3.218 2.269l2.643 2.159.148-2.004c.21-2.408-1.494-6.508-4.749-7.718l-1.363-.507-.059 1.454zm1.958 1.866a6.25 6.25 0 0 1 1.479 2.101c-.535-.411-1.101-.782-1.692-1.109l.213-.992z" class="B"/><path d="M283.519 204.571c1.774-.792 3.625-3.005 2.744-5.725-1.127-.21-2.637-.343-3.763.075.509 1.883 1.225 4.049 1.019 5.65z" class="C"/><path d="M282.136 197.932l-.91.335.482 1.747c.429 1.528.916 3.262.766 4.424l-.237 1.86 1.713-.764c2.367-1.057 4.332-3.874 3.315-7.012l-.191-.597-.617-.114c-1.21-.227-2.944-.387-4.321.121zm3.228 1.877c.019.138.069.286.069.418 0 .954-.441 1.745-.997 2.354-.148-.948-.353-1.887-.615-2.811.457-.042.963-.031 1.543.039z" class="B"/><path d="M263.044 187.866c-.168-2.365 2.304-5.526 4.654-5.497-.206 1.176-.075 2.237-.05 3.342-1.821.455-3.322 1.416-4.604 2.155z" class="C"/><path d="M263.961 183.158c-1.323 1.402-2.078 3.234-1.969 4.783l.12 1.688 1.93-1.124c1.125-.659 2.402-1.405 3.863-1.77l.828-.206-.062-1.656c-.037-.792-.072-1.54.064-2.317l.218-1.222-1.24-.016c-1.284-.019-2.616.635-3.752 1.84zm1.531 1.444a4.58 4.58 0 0 1 1.04-.822v.028l.035 1.159v.029l-1.836.726c.221-.387.444-.783.761-1.12zm13.599-10.293l-2.691.039-.013 2.103 2.754-.037 3.58-.025.057-2.106-3.687.026zm-2.247-.86l-.063-2.104 5.257-.156.063 2.105-5.257.155zm-1.363-4.979l.823 1.8 5.036-.286.033-2.105c-.052 0-5.259-.031-5.892.591zm15.17 15.382l4.971 1.002c-1.079 1.109-1.04-.156-1.169 1.92-1.1.313-.947-.422-2.045-.422l-2.009-.621c-.002-.164.206-.856.252-1.879zm-.275 4.668c1.459 1.186 3.861 3.417 4.456 5.117-1.367-.017-2.593-.444-3.558.038.278-2.978-1.857-2.558-.898-5.155zm-5.741 4.409l1.028 3.537-1.98-.844c-.155-.628-1.004-2.75-1.787-2.75.363-.362 1.503-.088 2.739.057zm-15.157-11.409c2.54-.58 2.844-1.969 5.907-3.51-.372 3.229-1.949 5.537-5.714 5.537-.134-.54-.182-1.26-.193-2.027zm-19.997 39.468l.708.048c.816.057 1.361.182 1.632.37s.39.496.361.916c-.028.399-.199.672-.512.814s-.877.186-1.688.129l-.657-.046.156-2.231zm-.265 8.867l2.984.083c.612-.04 1.131-.147 1.558-.322.523-.207.938-.525 1.242-.953s.477-.933.517-1.519c.057-.822-.14-1.494-.589-2.015s-1.103-.844-1.958-.965c.777-.135 1.354-.374 1.73-.721s.583-.832.63-1.462a2.48 2.48 0 0 0-.26-1.339c-.222-.409-.554-.748-.958-.978a4.71 4.71 0 0 0-1.37-.509c-.538-.118-1.489-.224-2.855-.32l-3.32-.232-.77 11.011 3.419.241zm-.029-4.665l1.201.082c.806.058 1.352.186 1.637.391s.413.538.379 1.002c-.029.414-.211.7-.55.858s-.899.208-1.684.153l-1.151-.079.168-2.407z" class="B"/></svg>