<svg width="512" height="512" viewBox="0 0 512 512" fill="none" xmlns="http://www.w3.org/2000/svg">
<path fill-rule="evenodd" clip-rule="evenodd" d="M444.079 231.12C443.951 237.105 438.647 239.554 433.035 239.554C428.818 239.554 425.372 238.007 425.372 234.403C425.372 231.633 426.967 229.123 434.118 228.67C438.015 228.414 441.909 227.964 444.079 226.033V231.12ZM407.88 238.588H393.834V223.134H407.689C412.605 223.134 415.987 225.323 415.987 230.86C415.987 235.691 412.605 238.588 407.88 238.588ZM393.834 204.397H407.501C411.902 204.397 414.776 206.393 414.776 211.156C414.776 216.115 411.01 217.919 407.689 217.919H393.834V204.397ZM449.376 220.172C449.376 213.99 444.911 209.87 436.097 209.87C427.671 209.87 422.242 214.183 421.863 220.817H427.479C428.054 215.986 432.587 214.892 436.033 214.892C441.585 214.892 444.079 216.889 444.079 219.526C444.079 222.168 441.457 223.647 433.415 224.036C427.495 224.349 423.322 225.951 421.331 229.203C420.915 225.224 418.881 221.781 414.648 220.3C418.481 218.304 420.2 214.572 420.2 211.22C420.2 203.944 415.347 199.181 407.501 199.181H388.408V243.868H407.625C413.748 243.868 418.193 240.881 420.208 236.466C421.275 242.142 426.767 244.641 432.843 244.641C437.952 244.641 441.781 242.967 444.143 240.068C444.207 241.615 444.523 242.902 444.971 243.868H450.335C449.819 242.581 449.376 240.131 449.376 238.459V220.172ZM498.146 223.134L510.849 210.707H502.87L487.865 225.58V195.958H482.441V243.868H487.865V233.18L494.184 226.998L505.421 243.868H512L498.146 223.134ZM466.991 209.87C463.03 209.87 459.648 211.545 457.414 214.311V210.707H452.178V243.868H457.606V223.583C457.606 218.625 461.243 214.892 466.224 214.892C471.456 214.892 474.266 218.625 474.266 223.712V243.868H479.631V223.908C479.631 215.666 475.034 209.87 466.991 209.87ZM303.058 277.89C296.472 265.995 280.661 261.837 260.593 258.516C247.271 256.417 239.36 254.527 239.36 248.858C239.36 244.869 244.564 240.253 257.264 240.253C265.636 240.253 271.197 242.944 273.845 246.695L274.025 246.993C274.025 246.993 275.459 249.279 276.977 249.279H300.458C300.518 249.276 300.56 249.279 300.625 249.279C302.538 249.288 302.979 248.004 303.058 247.129V277.89ZM259.345 303.655C251.824 303.655 241.816 301.484 237.402 293.822C236.868 293.128 235.855 291.877 234.604 291.898H187.676C186.428 291.973 185.595 292.771 185.08 293.571C180.275 301.02 171.92 304.492 163.38 304.492C151.653 304.492 142.005 297.718 137.684 286.558C137.156 285.115 138.004 283.075 140.066 283.082H210.437C210.632 283.034 210.845 282.993 211.084 282.96C215.435 282.367 217.149 279.63 217.831 277.553C217.947 273.955 217.838 270.502 217.53 267.188C226.263 277.194 242.816 280.392 256.22 282.45C274.954 285.388 278.701 287.909 278.701 293.997C278.701 300.296 270.378 303.655 259.345 303.655ZM137.827 257.936C142.257 246.78 151.73 239.832 163.38 239.832C175.605 239.832 185.474 246.792 189.454 257.936C189.737 258.798 189.905 260.405 188.295 260.405C188.224 260.405 188.209 260.387 188.153 260.405H139.131C138.881 260.417 139.149 260.405 138.924 260.405C137.636 260.405 137.315 259.223 137.827 257.936ZM66.6093 303.445H30.1287C28.4038 303.467 27.5543 302.212 27.478 300.564V299.433C27.478 299.43 27.4811 299.409 27.4811 299.409L27.478 269.628C27.478 269.628 27.4917 269.61 27.478 269.382V269.065C27.478 267.148 28.5305 265.867 30.1287 265.867H65.9841C79.9312 265.867 87.633 272.793 87.633 284.971C87.633 299.245 77.2243 303.445 66.6093 303.445ZM27.4559 211.891V211.606C27.4559 209.51 28.3916 208.343 30.1287 208.343H66.6093C77.018 208.343 83.4695 214.639 83.4695 224.296C83.4695 233.954 75.9763 240.463 66.6093 240.463H30.4859C30.2226 240.476 30.3966 240.468 30.1287 240.463C28.3725 240.434 27.478 239.412 27.478 237.255V236.125C27.478 236.121 27.4811 236.1 27.4811 236.1L27.4589 212.177C27.4589 212.177 27.4703 212.119 27.4559 211.891ZM394.297 272.372H372.734C370.812 272.642 370.123 273.986 369.877 274.922V282.66C369.877 292.527 363.839 302.602 350.309 302.602C336.573 302.602 330.536 292.527 330.536 282.66V246.445C330.536 245.259 331.28 244.247 332.465 244.242C332.553 244.242 332.536 244.247 332.611 244.242H367.198C368.945 243.929 369.62 242.706 369.877 241.803V221.159C369.736 220.29 369.182 218.564 367.032 218.208H332.5C332.447 218.185 332.414 218.208 332.348 218.208C331.108 218.208 330.505 217.13 330.536 216.294V194.01C330.536 192.641 329.748 190.725 327.3 190.708C327.096 190.707 326.724 190.701 326.489 190.708H307.19C306.889 190.701 306.428 190.708 306.225 190.708C304.372 190.708 303.058 192.26 303.058 193.734V246.463C303.054 246.409 303.048 246.365 303.046 246.349C298.325 227.64 280.625 215.481 257.264 215.481C229.036 215.481 214.264 230.086 211.833 245.531C202.725 226.132 184.326 215.481 163.589 215.481C136.447 215.481 113.694 236.193 109.383 263.114C106.041 258.095 101.488 254.098 95.9608 251.169C104.911 244.663 110.113 234.794 110.113 222.617C110.113 198.265 95.5431 183.151 66.6093 183.151H6.35163C2.38816 183.151 0 185.853 0 188.911V322.566C0 326.361 1.59058 328.823 6.35163 328.847C7.01949 328.852 8.06204 328.847 8.25975 328.847H70.3567C93.8419 328.847 109.95 316.938 114.451 297.63C123.505 316.164 142.179 328.847 163.589 328.847C185.857 328.847 202.739 318.43 211.331 302.141C218.398 319.148 236.356 328.847 259.345 328.847C284.097 328.847 302.423 316.578 305.815 298.489C311.971 316.648 328.081 328.847 350.309 328.847C379.034 328.847 397.355 308.481 397.355 281.192V275.825L397.298 275.848C397.298 275.848 397.305 272.795 394.297 272.372Z" fill="#000099"/>
</svg>
