<svg width="512" height="512" viewBox="0 0 512 512" fill="none" xmlns="http://www.w3.org/2000/svg">
<path fill-rule="evenodd" clip-rule="evenodd" d="M168.958 301.263C171.722 301.263 174.141 300.917 176.214 299.88C178.287 298.844 180.36 297.462 182.088 295.734C183.815 294.007 185.197 291.934 185.888 289.515C186.925 287.096 187.27 284.678 187.27 281.914C187.27 279.149 186.925 276.385 185.888 273.967C184.852 271.548 183.815 269.475 182.088 267.747C180.36 266.02 178.632 264.638 176.214 263.601C174.141 262.565 171.722 262.219 168.958 262.219C166.539 262.219 163.775 262.565 161.702 263.601C159.629 264.638 157.556 266.02 155.828 267.747C154.101 269.475 152.719 271.548 152.028 273.967C150.991 276.385 150.646 278.804 150.646 281.568C150.646 284.332 150.991 287.096 152.028 289.515C153.064 291.934 154.101 294.007 155.828 295.734C157.556 297.462 159.283 298.844 161.702 299.88C163.775 300.917 166.194 301.263 168.958 301.263ZM168.958 310.591C164.812 310.591 160.666 309.9 157.21 308.518C153.755 307.136 150.646 305.063 148.227 302.299C145.808 299.88 143.735 296.771 142.353 293.316C140.971 289.86 140.28 285.714 140.28 281.568C140.28 277.422 140.971 273.621 142.353 270.166C143.735 266.711 145.808 263.601 148.227 261.183C150.646 258.764 153.755 256.691 157.21 255.309C160.666 253.927 164.812 253.236 168.958 253.236C173.104 253.236 176.905 253.927 180.36 255.309C183.815 256.691 186.925 258.764 189.343 261.528C191.762 263.947 193.835 267.056 195.217 270.512C196.599 273.967 197.29 277.767 197.29 282.259C197.29 286.405 196.599 290.206 195.217 294.007C193.835 297.462 191.762 300.571 189.343 302.99C186.925 305.409 183.815 307.482 180.36 308.864C176.905 309.9 173.104 310.591 168.958 310.591Z" fill="#43525A"/>
<path d="M205.928 291.243C206.619 291.243 206.965 291.588 207.31 291.934C209.383 294.352 212.147 296.771 215.602 298.498C219.403 300.571 223.895 301.608 229.078 301.608C234.26 301.608 238.061 300.571 240.825 298.844C243.589 296.771 244.971 294.352 244.971 290.897C244.971 288.824 244.626 287.442 243.589 286.06C242.553 284.678 241.171 283.641 239.443 282.95C237.716 281.914 235.642 281.223 233.569 280.877C231.496 280.186 229.078 279.84 226.659 279.149C223.895 278.458 221.131 277.767 218.367 276.731C215.602 275.694 213.184 274.658 210.765 273.276C208.692 271.894 206.965 269.821 205.582 267.402C204.2 264.983 203.509 262.219 203.509 258.418C203.509 255.309 204.2 252.89 205.582 250.472C206.965 248.053 208.692 245.634 211.111 243.907C213.529 242.179 216.293 240.797 219.403 239.761C222.513 238.724 226.313 238.379 230.114 238.379C234.26 238.379 237.715 238.724 240.825 239.761C243.935 240.452 246.699 241.488 248.772 242.87C250.845 244.252 252.573 245.289 253.609 247.016C254.646 248.399 255.337 249.781 255.337 251.163C255.337 252.199 254.991 253.236 254.646 253.927C253.955 254.618 253.609 255.309 252.918 256C252.227 255.309 251.882 255.654 251.536 255.654C251.191 256 250.845 256 250.5 256C249.809 256 249.118 255.654 248.772 255.309C246.699 253.236 244.626 251.163 241.516 249.781C238.061 248.053 234.26 247.016 229.769 247.016C225.277 247.016 221.476 248.053 218.712 249.781C215.948 251.854 214.566 254.272 214.566 257.382C214.566 259.455 214.911 260.837 215.948 262.219C216.985 263.256 218.021 264.292 219.749 264.983C221.131 265.674 223.204 266.365 225.277 266.711C227.35 267.056 229.769 267.747 232.187 268.438C235.297 269.129 238.407 269.821 241.171 270.857C244.28 271.894 246.699 273.276 249.118 274.658C251.536 276.385 253.264 278.113 254.646 280.532C256.028 282.95 256.719 285.714 256.719 289.169C256.719 295.734 254.3 300.571 249.463 304.372C244.626 308.173 237.716 309.9 229.078 309.9C224.586 309.9 220.785 309.555 217.33 308.518C213.875 307.827 211.111 306.445 208.692 305.063C206.274 303.681 204.546 301.954 203.164 300.571C201.782 298.844 201.436 297.462 201.436 296.08C201.436 295.043 201.782 294.352 202.127 293.661C202.818 292.97 203.164 292.279 203.855 291.588C204.2 291.243 204.546 291.243 204.891 290.897C205.237 291.243 205.582 291.243 205.928 291.243Z" fill="#43525A"/>
<path d="M291.271 298.153C291.962 298.153 292.653 298.498 292.998 299.189C293.344 299.535 293.344 299.88 293.344 300.226C293.689 300.917 293.689 301.608 293.689 302.645C293.689 304.718 292.653 306.791 290.234 308.518C288.161 310.246 284.706 310.937 280.905 310.937C275.031 310.937 270.885 309.555 268.466 306.445C266.048 303.336 264.666 298.844 264.666 292.97V245.634C264.666 243.561 265.011 242.179 266.048 241.488C267.084 240.797 268.121 240.106 269.849 240.106H270.885C272.267 240.106 273.649 240.452 274.34 241.143C275.377 241.834 275.722 243.216 275.722 245.289V253.581H288.161C289.888 253.581 291.271 253.927 291.962 254.618C292.653 255.309 292.998 256.345 292.998 257.727V258.418C292.998 259.801 292.653 260.837 291.962 261.874C291.271 262.565 289.888 262.91 288.161 262.91H275.722V290.551C275.722 294.007 276.413 296.425 277.45 298.153C278.486 299.88 280.56 300.571 283.324 300.571C285.051 300.571 286.433 300.226 287.815 299.535C288.506 299.189 289.197 298.498 289.888 297.807C290.234 298.153 290.58 298.153 291.271 298.153Z" fill="#43525A"/>
<path d="M350.008 274.658V307.827C350.008 308.518 349.662 308.864 349.317 309.209C348.626 309.555 347.244 309.9 345.862 309.9C343.789 309.9 342.407 309.209 341.025 308.173C339.642 306.791 338.951 304.372 338.951 301.263C336.878 304.372 334.114 306.445 330.659 308.173C327.204 309.9 323.403 310.591 319.257 310.591C313.383 310.591 308.546 309.209 305.436 306.445C302.327 303.681 300.599 299.88 300.599 295.043C300.599 288.824 303.709 283.987 309.583 281.223C314.42 278.804 321.33 277.422 330.659 276.731C331.696 276.731 332.732 277.767 332.732 278.804V279.495C332.732 281.914 331.005 283.987 328.586 283.987C324.094 284.332 320.294 285.369 317.875 286.405C313.729 288.133 311.656 290.551 311.656 294.352C311.656 296.771 312.692 298.844 314.42 300.226C316.147 301.608 318.911 302.299 322.021 302.299C324.44 302.299 326.858 301.954 328.586 301.263C330.659 300.571 332.387 299.535 334.114 298.153C335.496 296.771 336.878 295.043 337.569 293.316C338.26 291.588 338.951 289.515 338.951 287.442V274.312C338.951 270.512 337.569 267.747 335.496 265.674C333.078 263.601 329.968 262.219 325.476 262.219C321.33 262.219 317.875 263.256 315.456 264.983C313.383 266.711 311.656 268.438 310.274 270.512C309.928 271.203 309.237 271.548 308.546 271.548H308.2C307.509 271.548 307.164 271.203 306.127 271.203C305.436 270.857 304.4 270.166 303.709 269.475C303.018 268.784 302.672 267.747 302.672 266.365C302.672 264.983 303.018 263.601 304.054 262.219C305.091 260.492 306.473 259.11 308.546 257.727C310.619 256.345 313.038 255.309 315.802 254.618C318.911 253.581 322.021 253.236 326.167 253.236C334.114 253.236 339.988 255.309 344.134 259.11C347.935 262.219 350.008 267.747 350.008 274.658Z" fill="#43525A"/>
<path d="M358.646 304.027V255.654C358.646 254.963 358.992 254.618 359.337 254.272H359.683C360.374 253.927 361.41 253.581 362.792 253.581C363.483 253.581 364.52 253.581 365.211 253.927C365.902 254.272 366.939 254.618 367.63 255.309C368.321 256 369.012 257.036 369.357 258.073C369.703 259.455 370.048 260.837 370.048 262.91C372.467 256 376.959 252.545 383.869 252.545C386.633 252.545 389.052 253.236 390.434 254.618C392.161 256 392.852 257.727 392.852 260.146C392.852 261.183 392.507 262.219 392.161 262.91C391.816 263.601 391.47 264.292 391.125 264.983C390.779 265.329 390.779 265.329 390.434 265.674H389.397C389.052 265.674 388.706 265.674 388.706 265.329C388.015 264.638 387.324 264.292 386.288 263.947C385.251 263.601 383.869 263.256 382.141 263.256C380.068 263.256 377.995 263.947 376.268 264.983C374.54 266.02 373.503 267.402 372.467 269.475C371.43 271.548 370.739 273.621 370.394 276.04C370.048 278.458 369.703 281.568 369.703 284.678V304.027C369.703 306.1 369.357 307.482 368.321 308.173C367.284 308.864 366.248 309.209 364.866 309.209H363.483C362.101 309.209 360.719 308.864 359.683 308.173C358.992 307.482 358.646 306.1 358.646 304.027Z" fill="#43525A"/>
<path d="M90.8707 270.512C90.8707 270.857 90.5252 270.857 90.5252 271.203C90.5252 271.203 88.7976 274.658 88.4521 279.149C88.1066 283.641 88.7976 285.714 88.7976 285.714C89.1431 287.787 89.4887 289.515 90.5252 291.243C91.5618 293.316 92.9438 295.043 94.3259 296.771C96.0535 298.153 97.781 299.189 100.2 300.226C102.273 300.917 104.691 301.608 107.456 301.608C109.874 301.608 111.947 301.262 113.675 300.917C115.402 300.226 117.13 299.535 118.512 298.844C119.894 298.153 120.931 297.116 121.967 296.08C122.658 295.389 123.349 294.352 123.695 293.661C124.04 292.97 124.731 292.625 125.422 292.625H126.113C126.459 292.625 126.804 292.97 127.15 293.316C127.841 293.661 128.532 294.352 129.223 295.043C129.914 295.734 130.26 296.771 130.26 298.153C130.26 299.535 129.569 300.571 128.532 302.299C127.495 303.681 126.113 305.063 124.04 306.445C121.967 307.827 119.549 308.518 116.784 309.555C114.366 309.9 110.911 310.591 107.11 310.591C102.618 310.591 98.8176 309.9 95.3624 308.518C91.9073 307.136 88.7976 305.063 86.379 302.645C83.9604 300.226 81.8873 297.116 80.5052 293.661C79.1232 290.206 78.4321 286.06 78.4321 281.914C78.4321 277.767 79.1232 273.967 80.5052 270.512C81.8873 267.056 83.9604 263.947 86.379 261.183C88.7976 258.764 91.9073 256.691 95.3624 254.963C98.8176 253.581 102.618 252.545 106.419 252.545C110.22 252.545 114.02 253.236 117.13 254.618C120.24 256 123.004 257.727 125.422 260.146C127.841 262.91 129.569 265.674 130.951 269.129C132.333 272.585 133.024 276.04 133.024 280.186V281.223C133.024 282.605 132.678 283.296 132.333 283.987C131.987 284.332 130.951 284.678 129.569 284.678H101.236C99.5086 284.678 98.1266 284.332 97.4355 283.987C96.7445 283.296 96.0535 282.605 96.0535 281.223V280.877C96.0535 279.495 96.399 278.458 97.4355 278.113C98.1266 277.422 99.5086 277.422 101.236 277.422H121.967C121.622 272.585 120.24 268.784 117.475 266.02C114.711 263.256 111.256 261.874 106.419 261.874C104 261.874 101.927 262.219 100.2 262.91C98.1266 263.601 96.7445 264.638 95.0169 266.365C93.2893 267.056 91.9073 268.784 90.8707 270.512Z" fill="#43525A"/>
<path d="M69.7943 307.136C69.7943 308.173 69.1033 308.864 68.4122 309.209C67.7212 309.555 67.0302 309.555 65.9936 309.555C61.5019 309.555 60.4654 306.445 60.1198 305.063C59.7743 303.681 59.7743 302.299 59.7743 300.571V299.189C57.3557 302.645 54.2461 305.409 50.0999 307.482C45.9537 309.555 41.1164 310.246 35.2427 310.246C30.0599 310.246 25.2227 309.209 20.731 307.482C16.5848 305.754 12.7841 303.336 9.67446 299.88C6.56481 296.771 4.1462 292.97 2.76413 288.478C0.691033 284.332 0 279.495 0 274.312C0 269.129 1.03655 264.292 2.76413 259.801C4.49171 255.309 7.25584 251.508 10.3655 248.398C13.8207 244.943 17.9669 242.525 22.4586 240.797C27.2958 239.07 32.4785 238.033 38.0068 238.033C42.4985 238.033 46.2992 238.379 49.7544 239.415C53.2095 240.452 56.3192 241.834 58.3923 243.216C60.8109 244.598 62.5385 246.325 63.9205 247.707C65.3026 249.435 65.6481 250.817 65.6481 252.199C65.6481 253.581 65.3026 254.618 64.6116 255.309C63.9205 256 63.2295 256.691 62.5385 257.036C61.8474 257.382 61.5019 257.727 60.8109 257.727H60.4654C59.7743 257.727 59.0833 257.382 58.7378 256.691C56.6647 253.581 53.555 251.508 50.0999 249.781C46.2992 248.398 42.153 247.707 38.0068 247.707C34.2061 247.707 30.751 248.398 27.6413 249.435C24.5317 250.817 21.7675 252.545 19.3489 254.963C17.2758 257.382 15.2027 260.146 14.1662 263.601C12.7841 267.056 12.0931 270.512 12.0931 274.658C12.0931 278.458 12.7841 282.259 13.8207 285.369C14.8572 288.824 16.5848 291.588 18.6579 294.007C20.731 296.425 23.4951 298.153 26.6048 299.535C29.7144 300.917 33.1696 301.608 36.9703 301.608C40.0799 301.608 42.844 301.263 45.2626 300.571C47.6813 299.88 50.0999 298.844 51.8275 297.462C53.9006 296.08 55.2826 294.352 56.6647 292.625C58.0467 290.551 58.7378 288.478 59.0833 286.405V281.914H41.8075C39.7344 281.914 38.3523 281.568 37.3158 280.877C36.2792 280.186 35.9337 279.149 35.9337 277.767V277.076C35.9337 275.349 36.2792 274.312 37.3158 273.621C38.3523 272.93 39.7344 272.585 41.8075 272.585H63.2295C65.3026 272.585 67.0302 273.276 68.0667 274.312C69.1033 275.349 69.7943 277.076 69.7943 278.804V307.136Z" fill="#43525A"/>
<path d="M443.588 242.525C443.933 242.525 444.279 242.179 444.279 241.834L448.08 221.794C448.425 220.412 449.807 219.03 451.535 219.03H451.88L457.409 220.412C457.754 220.412 458.445 221.103 458.445 221.448V221.794L453.262 248.744C452.917 250.126 451.88 251.163 450.844 251.508L440.133 253.236L451.535 259.455C451.88 259.801 452.226 260.146 452.226 260.492V260.837L449.807 265.329C449.116 266.365 448.08 267.057 446.698 267.057C446.007 267.057 445.661 267.057 444.97 266.711L424.585 255.309C424.239 254.963 423.894 254.618 423.894 254.272V253.927L424.93 247.708C425.276 246.326 426.312 245.289 427.694 244.943L443.588 242.525ZM448.771 285.714C443.933 290.206 437.714 292.97 430.458 292.97C419.056 292.97 409.727 285.714 405.927 276.04C403.508 269.821 402.126 262.91 402.126 256C402.126 225.595 426.658 201.063 457.063 201.063C487.469 201.063 512 225.595 512 256C512 286.405 487.469 310.937 457.063 310.937H453.262C452.571 310.937 452.226 310.592 452.226 309.901V304.718C452.226 302.645 453.608 301.263 455.681 301.263H457.063C481.94 301.263 502.326 280.877 502.326 256C502.326 231.123 481.94 210.737 457.063 210.737C432.186 210.737 411.8 231.123 411.8 256C411.8 261.528 412.837 267.057 414.91 272.585C417.329 278.804 423.548 283.296 430.458 283.296C434.95 283.296 439.096 281.568 441.86 278.804L456.372 264.638C457.063 263.947 457.754 263.947 458.445 263.947C459.482 263.947 460.173 264.638 461.209 264.983L465.701 267.402C466.047 267.748 466.392 268.093 466.392 268.439C466.392 268.784 466.392 269.13 466.047 269.13L448.771 285.714ZM476.758 259.11V259.455L485.395 277.768C485.741 278.113 485.741 278.804 485.741 279.15C485.741 280.532 485.05 281.568 483.668 282.259L478.831 284.678H478.485C478.14 284.678 477.794 284.332 477.449 283.987L465.701 259.11C465.355 258.764 465.355 258.073 465.355 257.728C465.355 256.691 465.701 256 466.392 255.309L473.302 247.708L461.9 249.435C461.209 249.435 460.864 249.09 460.518 248.399C460.518 248.399 458.445 243.907 458.445 243.561C457.409 241.488 458.791 239.761 461.209 239.415L485.05 236.306C485.395 236.306 485.741 236.651 486.086 236.997L488.851 242.525C489.196 242.87 489.196 243.561 489.196 243.907C489.196 244.943 488.851 245.635 488.16 246.326L477.103 258.419C476.758 258.764 476.758 258.764 476.758 259.11Z" fill="#FD7421"/>
</svg>
