<svg width="512" height="512" viewBox="0 0 512 512" fill="none" xmlns="http://www.w3.org/2000/svg">
<path d="M278.547 296.086H344.618V288.016H289.873V262.192H330.993V254.026H289.873V230.234H344.618V222.193H278.547V296.086Z" fill="black"/>
<path d="M455.535 288.016V222.193H445.208V296.086H512V288.016H455.535Z" fill="black"/>
<path d="M387.43 222.193L349.857 296.086H362.557L372.17 276.961H417.232L426.926 296.086H439.495L401.892 222.193H387.43ZM376.925 267.699L394.63 232.404L412.543 267.699H376.925Z" fill="black"/>
<path d="M242.694 265.188C259.623 260.671 261.268 248.075 261.182 243.572C260.171 230.371 251.277 222.193 235.296 222.193H188.723V296.086H199.34V265.089H229.66L251.966 296.086H265.348C265.348 296.086 249.295 275.225 242.694 265.188ZM233.846 256.358H199.34V230.94H235.049C243.27 230.94 247.895 234.778 249.561 239.653C250.663 242.995 249.956 247.382 248.133 250.369C245.149 255.308 239.48 256.358 233.846 256.358Z" fill="black"/>
<path d="M124.92 209.681C94.9503 209.681 74.5234 230.812 74.5234 256.387C74.5234 283.312 97.0879 302.319 124.92 302.319C152.734 302.319 175.29 283.583 175.29 256.387C175.29 230.812 154.61 209.681 124.92 209.681ZM124.561 293.147C103.826 293.147 86.7417 276.484 86.7417 256.412C86.7417 236.367 103.019 218.907 125.364 218.907C147.156 218.907 163.174 236.367 163.174 256.412C163.174 276.484 145.286 293.147 124.561 293.147Z" fill="black"/>
<path d="M47.7842 248.334H55.445L69.3503 222.193H58.1605L47.7842 248.334Z" fill="black"/>
<path d="M10.3328 288.016V222.193H0V296.086H66.7898V288.016H10.3328Z" fill="black"/>
</svg>
