<svg width="512" height="512" viewBox="0 0 512 512" fill="none" xmlns="http://www.w3.org/2000/svg">
<path d="M258.822 182.202C333.255 182.202 393.963 242.911 393.963 317.343C393.963 391.775 333.255 452.482 258.822 452.482C184.39 452.482 123.681 391.775 123.681 317.343C123.681 242.911 184.39 182.202 258.822 182.202Z" fill="black"/>
<path d="M125.567 317.345C125.567 243.867 185.346 184.09 258.822 184.09C332.299 184.09 392.075 243.867 392.075 317.345C392.075 390.82 332.298 450.598 258.822 450.598C185.346 450.598 125.567 390.82 125.567 317.345Z" fill="#ADB9C0"/>
<path d="M143.803 317.345C143.803 380.765 195.4 432.362 258.82 432.362C322.241 432.362 373.838 380.763 373.838 317.345C373.838 253.922 322.241 202.327 258.82 202.327C195.4 202.327 143.803 253.922 143.803 317.345Z" fill="black"/>
<path d="M145.698 317.345C145.698 254.967 196.446 204.221 258.822 204.221C321.2 204.221 371.946 254.967 371.946 317.345C371.946 379.721 321.2 430.469 258.822 430.469C196.446 430.467 145.698 379.719 145.698 317.345Z" fill="white"/>
<path d="M152.007 317.345C152.007 376.243 199.925 424.16 258.822 424.16C317.722 424.16 365.639 376.243 365.639 317.345C365.639 258.444 317.722 210.528 258.822 210.528C199.923 210.528 152.007 258.444 152.007 317.345Z" fill="black"/>
<path d="M154.003 317.345C154.003 259.548 201.025 212.526 258.822 212.526C316.619 212.526 363.639 259.546 363.639 317.345C363.639 375.14 316.619 422.161 258.822 422.161C201.025 422.16 154.003 375.14 154.003 317.345Z" fill="white"/>
<path d="M363.733 318.208C363.734 317.919 363.744 317.632 363.744 317.343C363.744 316.997 363.734 316.654 363.731 316.311H267.673L361.869 297.575C361.751 296.954 361.629 296.333 361.498 295.714L268.043 314.305L356.026 277.86C355.788 277.276 355.547 276.691 355.298 276.111L267.306 312.557L346.437 259.686C346.089 259.159 345.737 258.635 345.381 258.115L266.254 310.986L333.51 243.731C333.066 243.281 332.618 242.835 332.167 242.393L264.915 309.643L317.75 230.575C317.228 230.221 316.703 229.872 316.175 229.527L263.342 308.595L297.726 225.584L295.978 224.858L261.594 307.866L277.282 228.989L275.425 228.619L260.049 305.915V224.456H257.527V305.919L241.636 226.042L239.782 226.413L255.985 307.871L220.743 222.795L218.993 223.521L254.234 308.597L201.423 229.559C200.894 229.905 200.367 230.253 199.848 230.609L252.659 309.645L185.442 242.428C184.99 242.87 184.542 243.315 184.099 243.766L251.32 310.986L172.241 258.148C171.885 258.669 171.533 259.192 171.185 259.719L250.273 312.561L162.336 276.136C162.088 276.717 161.846 277.3 161.609 277.884L249.54 314.305L156.142 295.731C156.013 296.348 155.891 296.969 155.772 297.59L249.898 316.313H153.913C153.909 316.658 153.898 317 153.898 317.345C153.898 317.632 153.908 317.921 153.911 318.21H248.417L155.689 336.656C155.803 337.278 155.919 337.899 156.046 338.518L249.535 319.922L161.447 356.409C161.683 356.995 161.918 357.58 162.165 358.162L250.266 321.671L170.975 374.65C171.321 375.177 171.668 375.703 172.023 376.225L251.32 323.241L183.873 390.688C184.315 391.141 184.759 391.587 185.21 392.031L252.661 324.582L199.638 403.933C200.159 404.289 200.684 404.641 201.211 404.987L254.234 325.63L217.687 413.86C218.268 414.106 218.851 414.348 219.437 414.585L258.789 319.586L298.15 414.609C298.734 414.374 299.319 414.134 299.898 413.885L263.342 325.633L316.385 405.018C316.912 404.672 317.437 404.322 317.958 403.965L264.915 324.58L332.401 392.066C332.848 391.622 333.296 391.174 333.738 390.725L266.256 323.241L345.6 376.258C345.954 375.735 346.302 375.21 346.648 374.683L267.304 321.666L355.47 358.185C355.716 357.604 355.952 357.019 356.188 356.433L268.037 319.92L361.596 338.529C361.721 337.91 361.841 337.29 361.955 336.669L269.155 318.21H363.733V318.208Z" fill="black"/>
<path d="M207.241 200.881C200.152 199.142 194.149 198.326 190.139 198.848C178.137 200.411 163.738 206.333 148.857 213.515C139.314 218.12 127.47 224.141 103.786 238.116L125.845 239.776L123.541 258.201C136.608 249.643 154.092 237.639 170.244 230.721C177.065 227.8 183.646 225.784 189.559 225.318C194.02 224.967 197.807 226.109 202.211 227.216C221.43 232.053 239.933 237.52 258.824 237.52V210.426C240.898 210.426 221.835 204.46 207.241 200.881Z" fill="#4A914E"/>
<path d="M340.546 250.327C312.578 260.831 284.315 266.381 258.815 266.381C233.314 266.381 205.051 260.83 177.083 250.327L176.024 249.929L175.819 251.043C161.546 328.896 189.271 396.427 258.223 451.763L258.815 452.237L259.408 451.763C328.36 396.427 356.083 328.896 341.81 251.043L341.605 249.929L340.546 250.327Z" fill="black"/>
<path d="M258.814 268.277C284.21 268.277 312.299 262.802 340.124 252.484C342.395 265.212 343.552 277.667 343.552 289.831C343.552 350.691 315.151 404.357 258.814 449.789C202.48 404.357 174.077 350.691 174.077 289.829C174.077 277.667 175.234 265.212 177.505 252.484C205.329 262.802 233.421 268.277 258.814 268.277Z" fill="white"/>
<path d="M258.815 440.108V277.963C232.364 277.963 208.654 273.657 184.661 265.488C175.685 334.537 203.427 389.835 258.815 440.108Z" fill="#CD3529"/>
<path d="M258.759 298.325C284.219 298.325 304.983 319.089 304.983 344.549C304.983 370.008 284.221 390.774 258.759 390.774C233.3 390.774 212.533 370.008 212.533 344.549C212.533 319.089 233.3 298.325 258.759 298.325Z" fill="#ECB731"/>
<path d="M211.587 344.549C211.587 370.561 232.747 391.721 258.759 391.721C284.77 391.721 305.932 370.559 305.932 344.549C305.932 318.536 284.77 297.376 258.759 297.376C232.747 297.376 211.587 318.536 211.587 344.549ZM213.482 344.549C213.482 319.583 233.793 299.271 258.759 299.271C283.725 299.271 304.035 319.581 304.035 344.549C304.035 369.514 283.725 389.824 258.759 389.824C233.793 389.824 213.482 369.514 213.482 344.549Z" fill="black"/>
<path d="M211.677 343.661C214.49 348.918 219.306 354.099 225.606 358.643L226.713 357.107C220.647 352.732 216.024 347.776 213.346 342.769L211.677 343.661ZM233.93 352.487L235.372 351.261C224.753 338.763 227.09 317.54 240.691 302.946L239.306 301.653C225.062 316.939 222.699 339.269 233.93 352.487ZM254.991 324.677L256.801 324.127C253.316 312.688 256.757 305.504 268.306 300.108L267.503 298.391C255.081 304.197 251.22 312.303 254.991 324.677ZM279.142 342.226C289.995 353.476 292.414 371.209 284.53 381.754L286.048 382.889C294.606 371.441 292.171 352.999 280.505 340.907L279.142 342.226ZM289.688 330.592C297.724 337.232 302.351 347.413 302.066 357.82L303.959 357.871C304.261 346.884 299.378 336.14 290.894 329.131L289.688 330.592ZM264.267 354.278C271.929 368.503 270.723 383.057 261.336 389.671L262.428 391.22C272.625 384.035 274.068 368.474 265.935 353.379L264.267 354.278Z" fill="black"/>
<path d="M246.588 376.628L246.306 378.501C254.659 379.761 265.982 375.961 270.509 366.44L268.8 365.628C264.663 374.324 254.267 377.785 246.588 376.628Z" fill="black"/>
<path d="M332.587 264.615C322.539 268.035 312.915 270.664 303.169 272.644L302.891 272.701L202.694 372.585L203.031 373.208C208.227 382.834 214.51 392.465 221.705 401.835L222.36 402.69L335.495 289.903L335.493 289.505C335.446 281.612 334.887 273.499 333.834 265.388L333.685 264.241L332.587 264.615Z" fill="black"/>
<path d="M332.066 266.774C333.001 274.296 333.524 281.81 333.583 289.135L222.563 399.811C215.856 390.994 209.966 381.959 205.042 372.918C206.052 371.913 303.443 274.825 303.828 274.438C313.189 272.522 322.449 270.001 332.066 266.774Z" fill="#0094D6"/>
<path d="M226.405 382.2L229.047 379.559C230.082 380.498 231.176 380.975 232.338 380.982C233.504 380.995 234.55 380.537 235.471 379.618C236.486 378.604 237.002 377.499 237.022 376.3C237.042 375.099 236.562 374.009 235.576 373.025C234.716 372.163 233.821 371.717 232.905 371.695C231.988 371.666 230.61 372.167 228.778 373.182L228.308 373.464C226.182 374.74 224.248 375.274 222.509 375.059C221.767 374.984 221.042 374.785 220.365 374.469C219.694 374.146 219.083 373.709 218.56 373.178C216.926 371.544 216.125 369.713 216.149 367.671C216.18 365.633 217.028 363.775 218.706 362.097C220.259 360.544 221.962 359.741 223.817 359.689C225.676 359.632 227.44 360.341 229.113 361.811L226.363 364.561C225.556 363.849 224.674 363.51 223.709 363.535C222.74 363.569 221.883 363.959 221.126 364.716C220.318 365.527 219.918 366.444 219.931 367.464C219.944 368.498 220.358 369.419 221.176 370.236C221.465 370.527 221.782 370.747 222.126 370.912C222.476 371.071 222.85 371.159 223.266 371.183C224.112 371.229 225.353 370.756 226.987 369.767C227.739 369.308 228.336 368.971 228.763 368.748C230.574 367.875 232.277 367.547 233.869 367.748C235.458 367.954 236.88 368.682 238.14 369.942C239.979 371.78 240.903 373.821 240.909 376.064C240.918 378.304 239.999 380.349 238.161 382.187C236.427 383.922 234.478 384.788 232.318 384.797C230.155 384.805 228.185 383.939 226.405 382.2ZM257.617 361.968L254.825 364.758L251.605 361.541L254.399 358.748L257.617 361.968ZM279.047 340.537L269.441 350.144L250.399 331.102L253.344 328.157L269.756 344.571L276.416 337.91L279.047 340.537ZM292.491 327.094L289.699 329.888L286.479 326.669L289.271 323.876L292.491 327.094ZM296.166 301.288L297.1 300.354C298.619 298.835 299.487 297.54 299.697 296.462C299.91 295.383 299.525 294.35 298.531 293.353C297.652 292.473 296.704 292.115 295.694 292.279C294.683 292.439 293.58 293.127 292.368 294.337L290.791 295.913L296.166 301.288ZM304.626 309.809L306.941 307.494C308.304 306.131 309.067 304.893 309.234 303.773C309.406 302.657 308.988 301.601 307.991 300.607C306.912 299.525 305.762 299.043 304.532 299.155C303.301 299.269 302.034 299.975 300.728 301.281L298.413 303.598L304.626 309.809ZM289.641 291.859C291.809 289.693 293.9 288.496 295.919 288.253C297.93 288.017 299.789 288.748 301.487 290.448C302.274 291.235 302.78 292.112 303.016 293.082C303.25 294.051 303.213 295.079 302.902 296.177C304.169 295.464 305.492 295.213 306.862 295.431C308.234 295.648 309.47 296.304 310.568 297.402C311.435 298.26 312.108 299.294 312.543 300.434C312.966 301.572 313.128 302.705 313.016 303.843C312.892 304.949 312.539 306.016 311.979 306.978C311.412 307.965 310.417 309.164 309.002 310.579L304.315 315.267L285.274 296.227L289.641 291.859ZM330.078 289.505L327.286 292.299L324.068 289.082L326.86 286.289L330.078 289.505Z" fill="#ECB731"/>
<path d="M332.664 264.591C307.767 273.069 284.302 277.017 258.815 277.017C233.329 277.017 209.863 273.069 184.967 264.591L183.873 264.217L183.722 265.365C175.164 331.187 198.824 386.936 258.179 440.809L258.815 441.386L259.452 440.809C318.807 386.936 342.465 331.187 333.908 265.365L333.757 264.217L332.664 264.591ZM183.922 290.85C183.922 282.964 184.471 274.926 185.488 266.746C210.165 275.027 233.502 278.91 258.815 278.91C284.127 278.91 307.464 275.026 332.141 266.746C333.16 274.926 333.707 282.963 333.707 290.848C333.707 345.04 309.474 392.609 258.815 438.807C208.157 392.609 183.922 345.042 183.922 290.85Z" fill="black"/>
<path d="M413.858 238.118C390.174 224.141 378.328 218.122 368.787 213.517C353.904 206.337 339.507 200.413 327.503 198.849C323.495 198.326 317.49 199.144 310.401 200.883C295.807 204.462 276.744 210.428 258.822 210.428V237.525C277.713 237.525 296.218 232.058 315.437 227.221C319.841 226.114 323.626 224.97 328.087 225.324C333.998 225.79 340.581 227.805 347.4 230.726C363.552 237.645 381.036 249.647 394.103 258.207L391.799 239.782L413.858 238.118Z" fill="#CD3529"/>
<path d="M310.176 199.962L301.997 202.051C288.612 205.534 273.442 209.479 258.822 209.479C244.2 209.479 229.032 205.532 215.645 202.049L207.468 199.962C199.826 198.087 193.955 197.396 190.017 197.91C179.599 199.268 166.779 203.817 148.446 212.664C139.446 217.008 127.794 222.85 103.305 237.302L100.708 238.837L124.782 240.647L122.346 260.124L128.623 255.994C140.979 247.846 156.357 237.704 170.616 231.596C177.886 228.483 184.285 226.689 189.632 226.265C193.477 225.961 196.79 226.81 200.629 227.794L209.286 230.003C226.221 234.357 242.218 238.47 258.824 238.47C275.429 238.47 291.425 234.357 308.361 230.003L317.019 227.794C320.855 226.81 324.171 225.961 328.015 226.265C333.362 226.687 339.759 228.481 347.03 231.596C361.29 237.702 376.667 247.846 389.024 255.994L395.304 260.126L392.863 240.649L416.939 238.838L414.34 237.304C389.853 222.852 378.199 217.009 369.199 212.666C350.865 203.819 338.043 199.269 327.628 197.912C323.688 197.396 317.816 198.087 310.176 199.962ZM302.474 203.882L310.627 201.8C318.039 199.982 323.675 199.306 327.381 199.787C337.59 201.117 350.231 205.615 368.376 214.368C377.011 218.536 388.137 224.116 410.769 237.4L390.738 238.907L392.913 256.282L390.067 254.41C377.649 246.219 362.193 236.028 347.776 229.852C340.213 226.612 333.797 224.819 328.164 224.375C324.007 224.046 320.386 224.974 316.551 225.956L307.89 228.166C291.075 232.489 275.191 236.573 258.824 236.573C242.458 236.573 226.575 232.489 209.756 228.166L201.097 225.956C197.262 224.974 193.64 224.046 189.483 224.375C183.85 224.819 177.435 226.612 169.87 229.852C155.455 236.026 139.999 246.219 127.58 254.41L124.735 256.282L126.91 238.907L106.879 237.4C129.511 224.114 140.636 218.535 149.271 214.368C167.415 205.615 180.056 201.117 190.264 199.787C193.968 199.304 199.605 199.982 207.019 201.8L215.171 203.882C228.667 207.393 243.963 211.373 258.826 211.373C273.688 211.373 288.978 207.394 302.474 203.882Z" fill="black"/>
<path d="M350.819 224.526L348.33 223.523L349.461 219.071C349.665 218.308 349.893 217.552 350.144 216.803C349.918 217.19 349.584 217.658 349.153 218.201L348.951 218.454L345.777 222.493L344.003 221.776L344.525 216.667C344.532 216.597 344.543 216.49 344.561 216.348C344.624 215.656 344.711 215.09 344.816 214.661C344.639 215.018 344.46 215.37 344.281 215.718C344.097 216.066 343.909 216.409 343.714 216.753L341.436 220.741L338.962 219.741L344.412 210.588L347.044 211.651L346.484 217.282L346.468 217.475C346.437 217.901 346.368 218.322 346.262 218.735C346.348 218.57 346.461 218.389 346.595 218.197C346.729 218.008 346.897 217.779 347.103 217.516L350.62 213.097L353.261 214.165L350.819 224.526ZM326.619 206.799L329.454 207.197L328.741 212.268C328.658 212.803 328.601 213.342 328.57 213.882C328.564 214.211 328.588 214.493 328.649 214.725C328.721 215.007 328.893 215.252 329.133 215.416C329.384 215.593 329.706 215.709 330.093 215.762C330.481 215.818 330.82 215.794 331.11 215.692C331.384 215.598 331.616 215.41 331.765 215.162C331.889 214.956 331.99 214.692 332.073 214.375C332.193 213.847 332.287 213.314 332.355 212.777L332.456 212.064L333.068 207.706L335.895 208.104L335.12 213.617C334.959 214.759 334.773 215.593 334.558 216.118C334.364 216.613 334.058 217.056 333.664 217.413C333.25 217.783 332.716 218.032 332.066 218.157C331.414 218.28 330.644 218.279 329.756 218.155C328.864 218.03 328.122 217.818 327.533 217.52C326.99 217.262 326.528 216.863 326.195 216.363C325.919 215.909 325.748 215.399 325.696 214.871C325.632 214.307 325.681 213.453 325.843 212.311L325.994 211.226L326.619 206.799ZM309.949 221.06L307.223 210.89L309.898 210.174L315.142 214.375C315.243 214.462 315.422 214.644 315.679 214.921C315.936 215.199 316.223 215.53 316.545 215.921C316.396 215.56 316.255 215.196 316.123 214.829C316.021 214.544 315.93 214.255 315.853 213.963L314.506 208.94L317.166 208.229L319.89 218.398L317.23 219.111L311.981 214.889C311.789 214.719 311.608 214.538 311.437 214.346C311.183 214.07 310.9 213.74 310.583 213.359C310.752 213.771 310.892 214.136 311.006 214.458C311.121 214.779 311.211 215.068 311.281 215.324L312.626 220.345L309.949 221.06ZM292.981 214.589L295.746 213.849L297.07 218.796C297.265 219.524 297.424 220.041 297.545 220.349C297.667 220.655 297.801 220.903 297.949 221.093C298.124 221.324 298.379 221.483 298.663 221.539C298.964 221.603 299.304 221.587 299.682 221.484C300.062 221.382 300.364 221.228 300.59 221.023C300.806 220.829 300.947 220.566 300.988 220.279C301.019 219.997 301.012 219.713 300.966 219.433C300.869 218.9 300.747 218.372 300.599 217.851L300.413 217.157L299.275 212.906L302.032 212.167L303.475 217.545C303.773 218.66 303.928 219.502 303.933 220.067C303.943 220.634 303.838 221.145 303.618 221.609C303.383 222.112 302.985 222.55 302.436 222.918C301.883 223.287 301.174 223.587 300.308 223.819C299.437 224.051 298.675 224.147 298.013 224.103C297.413 224.078 296.831 223.89 296.33 223.559C295.898 223.251 295.541 222.849 295.287 222.382C295.009 221.887 294.72 221.084 294.421 219.968L294.14 218.91L292.981 214.589ZM275.039 225.383C275.541 225.786 276.022 226.07 276.472 226.232C276.923 226.396 277.348 226.444 277.755 226.372C278.095 226.327 278.407 226.16 278.632 225.902C278.732 225.791 278.805 225.657 278.845 225.512C278.885 225.367 278.891 225.215 278.862 225.068C278.802 224.722 278.651 224.475 278.407 224.326C278.164 224.176 277.654 224.066 276.879 224C275.816 223.906 275.035 223.674 274.536 223.309C274.038 222.944 273.722 222.379 273.587 221.616C273.412 220.625 273.6 219.758 274.156 219.013C274.707 218.271 275.514 217.807 276.571 217.621C277.144 217.52 277.698 217.503 278.238 217.564C278.778 217.628 279.303 217.774 279.817 218.006L279.29 220.194C278.949 219.988 278.578 219.837 278.19 219.747C277.85 219.67 277.499 219.659 277.155 219.715C276.857 219.754 276.581 219.892 276.37 220.106C276.282 220.194 276.217 220.302 276.18 220.42C276.144 220.539 276.137 220.665 276.16 220.787C276.177 220.907 276.22 221.021 276.288 221.12C276.356 221.22 276.446 221.303 276.551 221.362C276.764 221.485 277.151 221.57 277.708 221.618L277.842 221.631C279.05 221.738 279.866 221.948 280.295 222.255C280.593 222.474 280.839 222.753 281.019 223.075C281.211 223.408 281.342 223.793 281.419 224.226C281.612 225.326 281.408 226.274 280.804 227.068C280.198 227.866 279.295 228.371 278.091 228.581C277.416 228.708 276.723 228.701 276.052 228.56C275.366 228.397 274.718 228.108 274.138 227.708L275.039 225.383ZM259.91 219.463L262.766 219.262L263.121 224.372C263.174 225.123 263.232 225.661 263.29 225.985C263.353 226.308 263.436 226.578 263.545 226.792C263.672 227.052 263.89 227.257 264.158 227.367C264.44 227.486 264.777 227.534 265.169 227.507C265.56 227.479 265.888 227.385 266.149 227.227C266.398 227.078 266.586 226.847 266.682 226.573C266.759 226.346 266.803 226.068 266.82 225.738C266.828 225.197 266.81 224.655 266.764 224.116L266.713 223.397L266.407 219.008L269.253 218.809L269.642 224.363C269.723 225.514 269.713 226.368 269.612 226.927C269.525 227.451 269.318 227.949 269.006 228.38C268.678 228.829 268.205 229.183 267.595 229.441C266.984 229.699 266.228 229.855 265.335 229.918C264.436 229.981 263.668 229.929 263.027 229.761C262.444 229.621 261.909 229.326 261.48 228.907C261.115 228.521 260.842 228.058 260.68 227.553C260.502 227.015 260.373 226.169 260.292 225.018L260.214 223.928L259.91 219.463ZM167.463 224.3L163.349 214.608L169.288 212.086L170.189 214.21L166.827 215.637L167.54 217.319L170.71 215.974L171.592 218.052L168.422 219.397L169.117 221.034L172.48 219.607L173.401 221.778L167.463 224.3ZM189.769 217.684L187.079 217.778L186.713 207.254L189.71 207.151C190.881 207.111 191.708 207.138 192.189 207.234C192.666 207.334 193.075 207.516 193.416 207.785C193.815 208.091 194.125 208.481 194.346 208.956C194.567 209.432 194.685 209.964 194.707 210.552C194.739 211.118 194.655 211.685 194.462 212.218C194.278 212.705 193.994 213.104 193.613 213.425C193.324 213.664 192.979 213.843 192.579 213.957C192.182 214.071 191.537 214.147 190.651 214.176L190.163 214.193L189.645 214.211L189.769 217.684ZM189.566 211.898L190.113 211.878C190.804 211.854 191.281 211.741 191.544 211.542C191.811 211.344 191.937 211.018 191.922 210.563C191.905 210.12 191.76 209.811 191.487 209.634C191.215 209.457 190.734 209.38 190.054 209.404L189.479 209.424L189.566 211.898ZM199.516 218.844L202.241 208.675L205.013 209.417L202.924 217.21L206.37 218.133L205.735 220.509L199.516 218.844ZM212.854 211.454L215.619 212.195L214.294 217.142C214.146 217.663 214.024 218.19 213.928 218.722C213.882 219.048 213.873 219.33 213.906 219.568C213.942 219.856 214.082 220.12 214.3 220.312C214.526 220.517 214.83 220.673 215.21 220.774C215.591 220.876 215.928 220.892 216.228 220.828C216.512 220.768 216.766 220.611 216.945 220.382C217.092 220.192 217.225 219.944 217.348 219.638C217.47 219.328 217.626 218.813 217.822 218.085L218.01 217.391L219.148 213.139L221.905 213.878L220.465 219.255C220.167 220.369 219.879 221.174 219.601 221.671C219.325 222.165 218.978 222.556 218.558 222.848C218.059 223.18 217.478 223.367 216.879 223.39C216.217 223.434 215.453 223.338 214.587 223.106C213.716 222.874 213.007 222.574 212.456 222.206C211.949 221.884 211.539 221.431 211.27 220.894C211.056 220.434 210.951 219.922 210.957 219.354C210.962 218.787 211.113 217.945 211.414 216.831L211.697 215.773L212.854 211.454ZM224.235 225.138L226.602 214.88L229.526 215.554C230.669 215.82 231.456 216.055 231.881 216.265C232.307 216.475 232.657 216.74 232.928 217.065C233.232 217.429 233.432 217.853 233.532 218.332C233.629 218.813 233.617 219.314 233.497 219.839C233.313 220.633 232.97 221.235 232.465 221.642C231.961 222.049 231.314 222.25 230.531 222.239L232.37 227.019L229.211 226.289L227.787 221.729L226.858 225.746L224.235 225.138ZM228.105 220.332L228.625 220.452C229.227 220.59 229.691 220.59 230.015 220.448C230.34 220.308 230.553 220.017 230.656 219.579C230.774 219.065 230.73 218.667 230.518 218.391C230.31 218.113 229.901 217.905 229.288 217.765L228.728 217.636L228.105 220.332ZM236.744 227.744L238.575 217.374L241.428 217.877L239.601 228.245L236.744 227.744Z" fill="black"/>
<path d="M190.05 209.299L189.371 209.323L189.465 212.007L190.117 211.985C190.833 211.959 191.321 211.843 191.609 211.627C191.903 211.408 192.043 211.049 192.027 210.559C192.012 210.085 191.85 209.745 191.544 209.546C191.248 209.356 190.76 209.275 190.05 209.299ZM190.058 209.511C190.712 209.489 191.174 209.559 191.428 209.724C191.675 209.885 191.802 210.159 191.815 210.568L191.817 210.642C191.817 211.021 191.703 211.296 191.482 211.461C191.233 211.647 190.773 211.752 190.108 211.775L189.666 211.791L189.586 209.527L190.058 209.511ZM228.625 217.612L227.978 220.413L228.599 220.557C229.231 220.703 229.708 220.699 230.058 220.546C230.413 220.393 230.647 220.074 230.758 219.603C230.883 219.058 230.831 218.628 230.603 218.328C230.378 218.028 229.955 217.811 229.312 217.661L228.651 217.509L228.625 217.612ZM228.807 217.761L229.264 217.868C229.85 218.002 230.244 218.201 230.434 218.455C230.56 218.635 230.623 218.851 230.612 219.071C230.612 219.218 230.594 219.378 230.551 219.557C230.458 219.958 230.264 220.227 229.971 220.354C229.671 220.485 229.225 220.485 228.647 220.353L228.231 220.257L228.807 217.761Z" fill="#4A914E"/>
<path d="M237.09 149.719V149.833H237.205C237.934 149.833 239.769 148.835 241.389 147.952C242.342 147.435 243.242 146.945 243.67 146.801L243.598 146.586C243.152 146.735 242.286 147.206 241.281 147.754C239.831 148.542 238.074 149.489 237.332 149.575C237.363 146.479 238.31 144.602 241.06 142.244L240.911 142.071C238.054 144.519 237.09 146.449 237.09 149.719Z" fill="black"/>
<path d="M306.505 149.903C304.418 150.642 302.158 150.161 300.944 147.754C298.717 149.684 295.985 149.957 292.371 148.536L277.407 128.174L279.684 107.582C283.476 109.522 287.7 109.914 289.444 109.732C300.734 108.558 291.25 99.951 307.588 92.5169C313.429 81.7432 322.918 78.0777 328.356 77.0057C355.42 71.6659 391.065 74.4951 418.862 74.263L454.432 73.9665C452.235 79.3855 444.618 82.7729 436.906 84.4712C434.862 89.4205 432.252 92.1669 426.011 94.7051C425.613 96.6686 424.162 102.408 410.376 107.284C407.446 115.254 393.202 121.027 380.371 123.432C377.149 129.82 365.832 131.833 360.349 131.019C359.855 132.786 355.895 134.989 354.344 134.812C354.613 135.536 354.893 138.669 350.988 137.86C351.745 140.345 351.233 141.728 350.098 142.438C348.925 143.171 347.087 143.185 345.294 142.955C344.93 144.451 343.683 145.013 342.241 145.068C340.605 145.129 338.721 144.537 337.579 143.908C337.608 145.993 336.201 146.645 334.296 146.508C332.147 146.355 329.697 145.254 328.763 144.234C328.404 146.481 326.359 147.404 324.184 147.499C322.695 147.566 321.146 147.243 320.036 146.696C319.883 148.49 318.308 149.168 316.978 149.192C314.438 149.238 311.375 146.899 310.854 145.377C310.161 147.544 308.404 149.231 306.505 149.903Z" fill="#ECB731"/>
<path d="M328.151 75.9742C323.673 76.8939 319.448 78.778 315.771 81.4954C312.093 84.2129 309.052 87.6985 306.858 91.7101C298.061 95.8066 296.53 100.375 295.431 103.723C294.48 106.613 293.957 108.207 289.334 108.686C287.669 108.859 283.707 108.457 280.163 106.645L278.802 105.95L276.313 128.468L291.701 149.406L291.983 149.516C295.449 150.879 298.262 150.686 300.625 149.159C302.069 151.064 304.392 151.769 306.853 150.896C308.575 150.286 310.067 149.028 311.038 147.451C312.478 148.954 314.865 150.284 316.993 150.248C318.498 150.22 320.028 149.492 320.706 148.03C321.811 148.382 323.029 148.605 324.226 148.553C326.608 148.446 328.371 147.49 329.246 145.936C330.621 146.787 332.53 147.439 334.217 147.56C335.698 147.667 336.842 147.35 337.615 146.619C337.967 146.287 338.218 145.878 338.385 145.412C339.553 145.845 340.966 146.173 342.276 146.123C344.057 146.055 345.307 145.311 345.952 144.059C347.995 144.228 349.566 144.013 350.653 143.333C351.522 142.791 352.393 141.787 352.393 139.951C352.393 139.667 352.358 139.352 352.316 139.028C353.585 138.982 354.346 138.483 354.773 137.986C355.342 137.324 355.532 136.468 355.532 135.722C357.407 135.261 359.958 133.769 360.986 132.117C366.746 132.684 377.315 130.693 380.986 124.385C392.889 122.09 407.597 116.512 411.146 108.116C420.259 104.817 425.528 100.568 426.866 95.4787C432.559 93.0823 435.479 90.3489 437.647 85.3774C443.353 84.0678 452.727 80.9715 455.407 74.3644L456 72.9018L418.851 73.2113C411.456 73.2739 403.605 73.1192 395.293 72.9571C373.18 72.5242 348.115 72.0343 328.151 75.9742ZM289.553 110.782C295.536 110.161 296.457 107.354 297.433 104.381C298.479 101.194 299.782 97.2286 308.024 93.4784L308.348 93.331L308.516 93.0197C310.547 89.1996 313.397 85.8756 316.862 83.2858C320.328 80.6959 324.323 78.9043 328.562 78.0391C348.301 74.1433 372.171 74.6093 395.256 75.0606C403.583 75.2245 411.45 75.3774 418.873 75.3148L452.666 75.033C450.244 78.6893 444.565 81.7064 436.683 83.4415L436.145 83.5594L435.935 84.0678C433.907 88.9785 431.303 91.4154 425.617 93.727L425.094 93.9407L424.98 94.4933C424.038 99.1442 419.006 103.112 410.025 106.289L409.559 106.455L409.389 106.919C406.659 114.34 392.751 120.039 380.176 122.395L379.664 122.491L379.43 122.957C376.402 128.96 365.501 130.717 360.505 129.977L359.586 129.84L359.336 130.736C359.002 131.929 355.597 133.895 354.464 133.766L352.76 133.572L353.357 135.178C353.434 135.385 353.524 136.206 353.178 136.61C352.778 137.072 351.769 136.945 351.202 136.829L349.463 136.47L349.98 138.168C350.774 140.773 349.844 141.353 349.538 141.544C348.997 141.883 347.844 142.222 345.429 141.909L344.493 141.789L344.27 142.705C344.187 143.045 343.965 143.948 342.2 144.014C340.752 144.07 339.054 143.517 338.089 142.983L336.501 142.106L336.525 143.92C336.534 144.464 336.414 144.856 336.173 145.083C335.854 145.383 335.215 145.516 334.37 145.455C332.439 145.317 330.273 144.324 329.537 143.519L328.065 141.909L327.72 144.064C327.407 146.013 325.341 146.392 324.134 146.444C322.872 146.499 321.48 146.232 320.496 145.748L319.113 145.066L318.98 146.602C318.861 147.993 317.4 148.129 316.952 148.137C314.792 148.175 312.202 146.079 311.844 145.033L310.813 142.021L309.844 145.053C309.286 146.796 307.836 148.308 306.147 148.907C305.267 149.218 303.092 149.684 301.88 147.278L301.27 146.07L300.248 146.956C298.36 148.595 296.107 148.792 293.01 147.636L278.492 127.879L280.568 109.1C284.152 110.594 287.798 110.964 289.553 110.782Z" fill="black"/>
<path d="M227.658 144.129C225.676 144.959 224.083 145.328 222.568 145.272C221.052 145.215 219.71 144.731 218.422 143.847C216.965 146.416 214.757 147.527 212.673 147.516C210.314 147.501 208.352 145.948 207.337 143.629C205.948 145.696 202.959 149.157 199.828 149.118C198.601 149.104 197.568 148.315 197.066 146.182C195.869 146.772 194.259 147.315 192.85 147.424C191.036 147.562 189.548 146.98 189.677 144.851C188.011 145.882 185.446 146.855 183.563 146.864C181.902 146.871 180.774 146.129 181.27 144.013C180.876 144.438 178.22 145.825 176.169 145.606C175.096 145.492 174.191 144.937 173.863 143.572C172.097 143.801 170.135 143.377 168.665 142.382C167.195 141.388 166.216 139.818 166.42 137.759C161.257 138.929 161.126 134.922 161.393 134.2C159.71 133.819 156.967 132.788 156.234 131.019C149.616 130.846 141.021 130.472 136.427 124.746C136.427 124.746 136.589 124.269 136.319 124.256C125.853 123.804 110.992 118.404 108.061 110.434C95.6611 105.786 91.7672 100.745 90.6767 98.203C83.9223 95.9227 78.3632 93.4157 76.9007 88.1754C68.7758 86.8897 59.2087 81.2367 57.4202 75.4069L96.2837 75.1896C124.081 75.0348 159.723 72.0766 186.79 77.4165C192.228 78.4903 203.672 84.5209 209.511 95.2945C219.573 95.5266 222.631 111.736 230.421 111.881C233.228 111.933 237.63 109.255 241.205 102.638C239.783 103.065 238.306 103.278 236.822 103.27C235.564 103.263 234.315 103.074 233.112 102.71C239.406 99.8663 239.026 94.9796 239.142 92.9442C237.682 93.5944 235.175 93.7823 233.254 93.1579C234.436 91.6254 235.637 88.5474 235.064 86.4255C233.348 87.888 232.06 88.5438 230.318 88.9103C230.421 87.0868 230.227 85.534 229.57 84.0512C226.687 77.5417 217.348 79.7005 217.536 72.7158C218.686 74.0089 220.316 75.0643 222.165 75.0643C223.132 75.0643 224.097 74.7217 224.954 73.867C225.378 73.3232 225.604 72.6504 225.593 71.9606C225.598 70.9659 225.21 69.94 224.657 69.17C223.158 67.0849 221.003 66.4513 218.833 66.5195C215.528 66.6189 212.195 68.3393 211.1 68.9987C211.53 63.2444 216.77 60.581 221.528 60.5681C224.302 60.5607 227.374 61.5867 228.84 63.401C232.064 61.1151 235.501 60.953 239.879 63.2555C244.773 65.825 255.936 68.8735 261.334 67.4515C260.135 70.1739 256.882 71.1188 255.331 71.5369C259.341 71.4909 263.255 71.9495 266.208 72.8853C263.968 73.9425 262.071 75.2356 260.135 76.2929C263.602 76.6005 266.974 76.77 269.833 78.2012C267.494 78.7464 266.055 79.6913 265.683 80.9181C267.404 82.5132 270.483 82.5021 273.57 83.3531C276.47 84.1525 279.373 85.7108 281.161 90.0726C279.413 90.0726 277.61 90.3047 276.094 91.0065C280.093 94.171 282.9 97.2618 283.919 100.003C282.093 100.085 280.458 100.428 278.953 101.152C282.39 103.777 285.429 106.483 287.23 109.435C285.118 109.695 283.029 110.115 280.981 110.691C284.381 113.134 286.928 115.906 288.245 118.678C286.884 118.382 285.197 118.221 283.836 118.365C287.538 121.94 290.585 125.925 291.653 129.61C290.314 129.089 288.831 128.787 287.273 128.597C288.229 131.39 288.872 134.184 289.059 136.976C294.908 141.356 298.21 146.149 297.708 153.878C296.368 153.138 294.913 152.631 293.403 152.381C295.521 156.092 295.388 159.664 293.996 163.926C292.933 162.609 291.817 161.675 290.645 161.126C290.651 165.691 290.012 169.457 288.59 172.266L286.943 169.548C284.926 173.889 280.743 179.198 276.927 177.969C273.587 181.312 270.714 182.248 265.444 184.644C264.683 183.804 263.578 183.088 262.572 182.311C261.115 183.558 259.986 184.893 258.826 186.648C257.811 185.243 256.691 183.996 255.418 182.976L251.229 184.534C242.224 178.371 233.959 176.737 234.897 167.938C233.821 168.321 232.861 169.358 231.653 170.515C230.644 167.588 230.572 162.495 231.134 158.069C229.472 158.306 228.741 158.507 227.273 159.26C227.173 157.59 227.087 153.773 229.177 149.573C226.93 150.143 226.402 151.001 225.23 152.077C225.228 149.174 226.133 146.337 227.658 144.129Z" fill="#ECB731"/>
<path d="M221.528 59.5182C216.339 59.5329 210.535 62.4819 210.054 68.9233L209.901 70.9586L211.647 69.9032C213.014 69.078 216.072 67.6578 218.868 67.5731C221.069 67.5049 222.684 68.2307 223.806 69.789C224.27 70.4355 224.547 71.246 224.543 71.9551C224.541 72.4524 224.403 72.8743 224.134 73.2095C223.876 73.4673 223.57 73.6712 223.232 73.8091C222.895 73.947 222.533 74.0162 222.169 74.0126C220.367 74.0126 218.989 72.7619 218.328 72.0177L216.56 70.0247L216.486 72.6882C216.367 77.1513 219.665 78.5475 222.578 79.7816C224.968 80.7947 227.44 81.8409 228.608 84.4786C229.164 85.733 229.367 87.0831 229.268 88.8514L229.19 90.2237L230.535 89.9419C231.793 89.6837 232.99 89.1873 234.062 88.4793C233.85 89.9142 233.193 91.5167 232.421 92.5151L231.507 93.6994L232.928 94.1599C234.451 94.6554 236.381 94.7033 238.026 94.3681C237.879 96.6024 237.212 99.7042 232.679 101.752L230.128 102.904L232.806 103.72C234.106 104.112 235.456 104.316 236.814 104.326C237.562 104.333 238.317 104.274 239.074 104.167C236.059 108.804 232.673 110.872 230.441 110.83C227.315 110.773 224.847 107.376 222.233 103.779C219.148 99.5311 215.644 94.7807 210.137 94.3202C204.283 83.9665 193.154 77.6007 186.995 76.385C166.381 72.318 140.489 73.0456 117.641 73.6884C110.119 73.9002 103.012 74.101 96.2781 74.1378L56 74.3626L56.4163 75.7164C58.3503 82.0288 68.0372 87.6118 76.14 89.0872C78.0354 94.4731 83.9149 97.0058 89.9363 99.0596C91.2883 101.822 95.3129 106.687 107.288 111.253C110.802 119.546 125.503 124.604 135.492 125.254L135.608 125.405C140.481 131.48 149.432 131.889 155.63 132.055C156.707 133.696 158.907 134.582 160.286 134.991C160.318 135.827 160.575 136.836 161.285 137.645C161.95 138.404 163.232 139.128 165.42 138.936C165.606 140.668 166.494 142.182 168.078 143.254C169.511 144.224 171.366 144.724 173.174 144.67C173.72 145.799 174.703 146.508 176.061 146.652C177.439 146.801 179.01 146.345 180.227 145.805C180.325 146.168 180.47 146.503 180.697 146.79C181.296 147.544 182.263 147.923 183.569 147.918C185.236 147.91 187.249 147.256 188.859 146.486C189.012 146.881 189.233 147.227 189.529 147.52C190.288 148.268 191.432 148.588 192.933 148.474C193.983 148.395 195.212 148.032 196.405 147.566C197.3 149.772 198.875 150.159 199.815 150.172C202.979 150.211 205.735 147.42 207.245 145.523C208.566 147.42 210.483 148.557 212.668 148.57C215.073 148.582 217.219 147.326 218.743 145.186C219.951 145.842 221.189 146.276 222.528 146.328C223.521 146.351 224.512 146.233 225.471 145.976C224.625 147.901 224.183 149.979 224.173 152.082V154.545L226.527 152.294C226.761 152.066 226.978 151.867 227.197 151.679C226.379 154.141 226.047 156.739 226.219 159.328L226.315 160.942L227.752 160.203C228.647 159.743 229.233 159.522 229.951 159.358C229.826 160.692 229.73 162.117 229.73 163.604C229.73 166.238 229.979 168.905 230.653 170.865L231.191 172.428L232.858 170.817C233.202 170.483 233.513 170.2 233.823 169.922C234.14 175.691 238.649 178.321 244.256 181.522C246.306 182.694 248.426 183.904 250.627 185.411L251.078 185.718L255.169 184.197C256.217 185.11 257.156 186.143 257.965 187.273L258.857 188.507L259.699 187.236C260.54 185.944 261.534 184.758 262.66 183.705L262.74 183.766C263.473 184.305 264.165 184.818 264.657 185.359L265.169 185.926L268.116 184.609C271.892 182.937 274.451 181.762 277.254 179.083C280.854 179.697 284.587 176.052 287.013 171.716L288.663 174.444L289.522 172.749C290.789 170.246 291.458 167.015 291.62 163.02C292.145 163.451 292.662 163.968 293.167 164.593L294.385 166.105L294.987 164.259C295.707 162.056 296.07 160.104 296.07 158.291C296.07 156.752 295.707 155.324 295.178 153.92C295.853 154.153 296.527 154.449 297.199 154.812L298.643 155.591L298.75 153.954C298.787 153.407 298.803 152.871 298.803 152.346C298.803 145.926 296.096 141.076 290.032 136.424C289.855 134.348 289.395 132.184 288.724 129.92C289.664 130.102 290.533 130.314 291.261 130.598L293.248 131.373L292.655 129.323C291.607 125.707 288.914 122.2 286.343 119.454C286.904 119.513 287.47 119.596 288.013 119.713L290.109 120.17L289.188 118.233C288.057 115.851 286.05 113.482 283.401 111.281C284.72 110.984 286.04 110.647 287.348 110.487L288.973 110.29L288.12 108.894C286.39 106.057 283.639 103.559 281.099 101.524C281.973 101.286 282.904 101.113 283.957 101.064L285.399 100.999L284.897 99.6471C283.981 97.1808 281.69 94.4215 278.221 91.4578C279.184 91.2433 280.167 91.1358 281.154 91.1373H282.723L282.128 89.684C280.058 84.6352 276.611 83.1119 273.843 82.3493L270.876 81.7028C269.369 81.4191 268.043 81.1539 267.076 80.6179C267.623 80.0524 268.66 79.5661 270.067 79.2364L272.907 78.5733L270.299 77.2692C268.207 76.2229 265.941 75.8159 263.554 75.5598L268.802 72.6661L266.523 71.8943C264.657 71.3012 262.388 70.907 259.936 70.6878C260.889 70.01 261.758 69.1056 262.296 67.8881L263.176 65.8877L261.065 66.444C256.09 67.7518 245.248 64.8967 240.369 62.3327C236.048 60.0634 232.414 60.0671 228.988 62.1577C227.066 60.3673 223.994 59.5108 221.528 59.5182ZM221.533 61.6254C224.187 61.618 226.856 62.6237 228.022 64.0678L228.645 64.8378L229.452 64.2649C232.419 62.1614 235.484 62.1393 239.391 64.1913C243.773 66.4937 252.791 69.0596 258.835 68.8238C257.722 69.6619 256.326 70.1832 255.059 70.5239L247.019 72.6901L255.344 72.5943C258.242 72.5611 260.984 72.8024 263.344 73.2684L261.743 74.1489L256.74 77.0481L260.041 77.3484L260.994 77.4313C263.049 77.6063 265.015 77.7997 266.827 78.2583C265.528 79.0135 264.897 79.8903 264.676 80.6179L264.484 81.2478L264.968 81.6954C266.367 82.9921 268.372 83.3697 270.494 83.7676L273.292 84.3736C275.462 84.9722 277.849 86.0314 279.557 89.1627C278.089 89.2972 276.74 89.5532 275.652 90.0542L274.095 90.7744L275.44 91.8391C278.807 94.5044 281.104 96.9947 282.305 99.1645C280.922 99.358 279.63 99.6637 278.498 100.207L276.947 100.951L278.313 101.994C281.649 104.541 283.871 106.652 285.394 108.671C283.826 108.929 282.253 109.246 280.697 109.68L278.586 110.27L280.365 111.548C282.907 113.373 284.895 115.346 286.243 117.337C285.406 117.256 284.563 117.25 283.725 117.321L281.478 117.557L283.103 119.126C286.332 122.244 288.597 125.256 289.859 127.978C289.046 127.795 288.225 127.654 287.398 127.555L285.731 127.352L286.274 128.942C287.269 131.848 287.835 134.503 288.006 137.052L288.039 137.534L288.426 137.824C294.213 142.16 296.687 146.435 296.702 152.29C295.657 151.859 294.607 151.508 293.565 151.345L291.401 151.007L292.486 152.907C293.48 154.648 293.97 156.368 293.97 158.304C293.97 159.395 293.756 160.596 293.445 161.865C292.684 161.161 291.905 160.559 291.089 160.178L289.586 159.474L289.588 161.185C289.588 164.681 289.181 167.599 288.398 169.931L286.816 167.319L285.983 169.113C283.893 173.615 280.12 177.901 277.243 176.976L276.632 176.779L276.175 177.234C273.482 179.929 271.143 180.966 267.265 182.683L265.643 183.408C265.116 182.935 264.566 182.489 263.994 182.071L262.537 180.979L261.883 181.519C260.737 182.5 259.756 183.64 258.787 184.95C257.916 183.885 257.028 182.928 256.072 182.163L255.606 181.791L251.349 183.373C249.238 181.961 247.151 180.752 245.302 179.693C239.704 176.497 235.873 174.309 235.873 169.249C235.873 168.868 235.895 168.472 235.939 168.058L236.116 166.391L234.537 166.954C233.705 167.251 232.979 167.849 232.237 168.531C231.975 167.129 231.832 165.414 231.832 163.539C231.832 161.832 231.944 160.008 232.171 158.21L232.346 156.84L230.977 157.033C229.879 157.19 229.129 157.354 228.321 157.65C228.371 154.948 228.947 152.39 230.113 150.049L231.135 147.997L228.912 148.559C227.866 148.824 227.136 149.157 226.554 149.531C226.895 147.798 227.545 146.144 228.52 144.733L230.568 141.773L227.247 143.162C225.372 143.946 223.939 144.274 222.602 144.223C221.32 144.175 220.178 143.779 219.01 142.981L218.063 142.333L217.505 143.327C216.368 145.33 214.609 146.473 212.679 146.462C210.826 146.451 209.188 145.234 208.302 143.208L207.534 141.45L206.464 143.042C204.893 145.377 202.217 148.094 199.84 148.065C199.496 148.061 198.588 148.05 198.092 145.941L197.79 144.652L196.6 145.236C195.352 145.851 193.882 146.286 192.769 146.372C191.929 146.435 191.303 146.31 191.005 146.017C190.789 145.803 190.695 145.433 190.726 144.911L190.85 142.88L189.118 143.954C187.641 144.871 185.256 145.801 183.556 145.808C182.955 145.81 182.513 145.691 182.342 145.475C182.172 145.265 182.156 144.829 182.292 144.248L183.053 141.012L180.516 143.272C180.183 143.569 177.941 144.733 176.28 144.556C175.49 144.471 175.073 144.103 174.887 143.326L174.666 142.405L173.727 142.526C172.191 142.725 170.476 142.335 169.255 141.508C168.336 140.885 167.28 139.748 167.468 137.86L167.612 136.407L166.188 136.729C165.116 136.971 163.679 137.098 162.924 136.317C162.473 135.851 162.368 135.173 162.368 134.792C162.368 134.676 162.379 134.585 162.39 134.538L162.664 133.486L161.627 133.169C159.842 132.764 157.698 131.791 157.208 130.612L156.947 129.982L156.263 129.964C150.54 129.813 141.955 129.562 137.481 124.311C137.461 124.116 137.44 123.909 137.308 123.718C137.202 123.564 137.062 123.437 136.898 123.348C136.734 123.258 136.551 123.208 136.365 123.202C125.562 122.736 111.686 117.229 109.052 110.069L108.886 109.616L108.435 109.446C95.7624 104.698 92.4745 99.7116 91.6493 97.7868L91.4632 97.3539L91.0157 97.2047C83.8578 94.788 79.17 92.388 77.9175 87.8936L77.7351 87.2415L77.0665 87.1366C69.4334 85.9282 61.583 81.1447 59.0669 76.4513C62.0711 76.4366 96.291 76.2432 96.291 76.2432C103.047 76.2064 110.167 76.0056 117.702 75.7938C140.435 75.1546 166.204 74.4307 186.588 78.4517C192.276 79.5735 203.2 85.8619 208.588 95.7974L208.879 96.3353L209.49 96.35C214.318 96.4605 217.477 100.809 220.531 105.016C223.462 109.05 226.23 112.86 230.404 112.937C233.344 112.99 238.179 110.459 242.136 103.141L243.338 100.916L240.912 101.631C239.589 102.027 238.215 102.225 236.834 102.219C236.595 102.217 236.379 102.13 236.144 102.114C239.934 99.2493 240.111 95.5009 240.178 93.5263L240.268 91.3104L238.719 91.9827C237.838 92.3732 236.381 92.5077 234.974 92.3567C235.678 90.9991 236.267 89.2585 236.267 87.6247C236.267 87.1163 236.212 86.6208 236.085 86.1529L235.65 84.5449L234.383 85.6243C233.261 86.5821 232.362 87.1476 231.351 87.5178C231.296 86.0774 231.052 84.7954 230.535 83.6239C229.03 80.2237 226.039 78.9582 223.399 77.8402C221.612 77.0831 220.338 76.4292 219.533 75.5027C220.384 75.8914 221.27 76.1179 222.165 76.1179C223.491 76.1179 224.712 75.5967 225.7 74.6112C226.343 73.8192 226.643 72.935 226.648 71.9662C226.654 70.8076 226.241 69.5643 225.514 68.5549C223.998 66.4458 221.677 65.3775 218.803 65.4641C216.457 65.5359 214.175 66.3464 212.598 67.0555C213.917 63.3661 217.895 61.6346 221.533 61.6254Z" fill="black"/>
<path d="M238.31 161.92C238.14 167.954 236.234 178.903 230.855 182.742C226.311 185.985 219.828 183.753 216.453 188.312L216.875 191.043C221.968 191.097 223.029 191.469 228.466 187.684C224.969 190.165 222.76 191.749 222.342 195.853C223.71 196.142 224.368 197.346 225.295 197.912C226.954 196.164 229.017 194.226 231.277 190.476C230.977 193.41 229.57 195.47 229.57 198.291C230.765 198.082 231.987 198.082 233.182 198.291C234.237 195.98 236.985 190.78 236.985 188.105C240.141 188.105 242.333 187.549 245.3 187.041C246.641 186.812 248.091 187.166 249.87 186.882C250.036 185.556 249.885 184.392 249.885 183.206C246.58 182.171 246.16 181.15 242.196 179.288C240.773 176.144 242.638 171.073 243.657 165.832C241.852 164.834 240.375 163.241 239.643 161.141C239.201 161.336 238.752 161.607 238.31 161.92Z" fill="#ECB731"/>
<path d="M239.227 160.178L237.192 161.355L237.258 161.891C237.087 168.037 235.077 178.435 230.244 181.885C228.437 183.174 226.262 183.504 223.959 183.852C220.903 184.315 217.744 184.795 215.606 187.685L215.344 188.037L215.967 192.082L218.05 192.113C219.839 192.145 221.148 192.156 222.473 191.885C221.87 192.944 221.45 194.175 221.29 195.746L221.194 196.687L222.119 196.882C222.701 197.004 223.127 197.413 223.62 197.884L225.495 199.432L226.055 198.636L226.689 197.975C227.356 197.284 228.105 196.488 228.894 195.565C228.652 196.454 228.524 197.369 228.512 198.29V199.527L229.735 199.328C230.812 199.138 231.913 199.137 232.99 199.325L233.786 199.472L234.779 197.374C236.267 194.27 237.558 191.347 237.895 189.126C240.039 189.052 241.784 188.752 243.736 188.391L245.477 188.08L247.26 188.03C248.072 188.057 248.995 188.089 250.034 187.923L250.905 187.785L250.914 187.013L250.968 184.298L250.916 182.454L250.198 182.2C248.45 181.651 247.597 181.128 246.422 180.402C245.336 179.721 244.214 179.098 243.06 178.538C242.835 177.882 242.724 177.193 242.732 176.499C242.732 174.587 243.289 172.222 243.863 169.765L244.858 165.265L244.164 164.911C242.469 163.972 241.248 162.55 240.636 160.796L240.216 159.594L239.227 160.178ZM224.272 185.936C226.718 185.565 229.247 185.18 231.465 183.598C237.054 179.608 238.982 169.155 239.303 162.917C240.049 164.274 241.145 165.422 242.474 166.302L241.815 169.286C241.211 171.857 240.629 174.335 240.629 176.501C240.629 177.68 240.802 178.765 241.235 179.724L241.395 180.078L241.745 180.244C242.975 180.82 244.167 181.473 245.315 182.2C246.361 182.845 247.321 183.412 248.849 183.959L248.861 184.386L248.835 185.904C248.319 185.93 247.811 185.943 247.326 185.926L245.12 186.004L243.351 186.321C241.226 186.713 239.391 187.05 236.982 187.05H235.93V188.104C235.93 190.093 234.018 194.081 232.876 196.462L232.537 197.177C231.947 197.116 231.354 197.101 230.761 197.133C230.9 196.216 231.124 195.326 231.412 194.418C231.786 193.243 232.172 192.027 232.32 190.579L232.799 185.897L230.371 189.927C228.47 193.082 226.74 194.886 225.21 196.472L225.079 196.359C224.622 195.925 224.109 195.553 223.554 195.254C224.106 192.174 225.901 190.785 229.072 188.536L227.862 186.812C223.158 190.087 222.084 190.069 218.085 189.999L217.777 189.995L217.571 188.663C219.194 186.759 221.544 186.348 224.272 185.936Z" fill="black"/>
<path d="M221.808 202.578C221.028 201.399 220.526 197.905 221.975 195.93C222.876 196.289 224.703 196.831 225.433 197.663C224.348 198.724 222.504 201.012 221.808 202.578Z" fill="#ECB731"/>
<path d="M221.126 195.306C219.42 197.628 219.879 201.57 220.929 203.16L221.99 204.764L222.769 203.005C223.408 201.565 225.186 199.376 226.168 198.415L226.882 197.717L226.223 196.965C225.451 196.087 223.989 195.549 222.918 195.158L221.618 194.67L221.126 195.306ZM222.104 199.293C222.104 198.577 222.261 197.879 222.515 197.258C222.939 197.416 223.414 197.61 223.843 197.827C223.3 198.441 222.721 199.181 222.176 199.953C222.154 199.726 222.104 199.527 222.104 199.293ZM253.53 154.823C254.62 155.95 256.14 159.561 256.14 163.016C256.14 163.679 256.083 164.339 255.958 164.972C255.606 166.737 254.731 168.069 253.395 168.98C252.672 166.704 250.894 162.933 248.179 161.235L247.324 160.699L246.753 161.531C246.022 162.598 245.597 163.93 245.335 165.388C243.121 164.565 241.382 162.941 240.638 160.8L240.264 159.73L239.225 160.179C237.538 160.911 235.86 162.559 234.751 163.65L234.609 163.782C233.062 161.896 232.386 160.246 232.329 158.045L232.296 156.801L229.244 157.4L229.82 159.422L230.364 159.317C230.667 161.747 231.664 163.782 233.736 166.028L234.453 166.801L235.151 166.147L236.227 165.149C237.017 164.374 238.122 163.302 239.21 162.594C239.872 163.903 240.815 165.05 241.972 165.952C243.129 166.854 244.471 167.488 245.902 167.811L247.098 168.087L247.188 166.862C247.268 165.786 247.542 164.733 247.997 163.755C250.218 165.86 251.579 169.789 251.671 170.68L251.817 172.112L253.136 171.539C255.757 170.4 257.448 168.271 258.022 165.379C258.923 160.852 256.86 155.236 255.046 153.359L253.53 154.823ZM253.922 95.9797C252.751 100.887 250.24 102.25 247.538 102.928C247.805 102.016 247.96 101.03 247.96 100.069C247.96 99.3782 247.886 98.7059 247.73 98.0943L247.131 95.7385L245.825 97.7886C244.088 100.515 241.644 101.937 238.356 102.136L238.483 104.235C241.388 104.06 243.802 103.033 245.716 101.204C245.576 102.183 245.328 103.136 244.886 103.793L243.486 105.871L245.95 105.414C248.945 104.858 252.883 104.101 255.055 99.1792C255.212 99.8166 255.304 100.443 255.304 101.073C255.304 101.646 255.25 102.224 255.166 102.823L254.851 105.057L256.766 103.861C260.257 101.679 261.001 99.3892 261.108 96.1695L259.004 96.0995C258.938 98.1091 258.628 99.4555 257.392 100.712C257.345 99.1848 256.976 97.5307 255.847 95.6721L254.519 93.4857L253.922 95.9797ZM232.765 66.5821C231.064 66.6079 229.944 67.597 229.844 69.1645C229.787 70.0855 230.275 70.8333 230.749 71.5572C231.229 72.294 231.725 73.0529 231.725 74.0549H233.83C233.83 72.4285 233.068 71.2588 232.511 70.4078C232.239 69.9915 231.929 69.52 231.944 69.299C231.962 69.019 231.983 68.7003 232.799 68.6874C234.051 68.6672 235.519 69.5532 237.219 70.581C239.885 72.1927 243.202 74.1967 247.908 74.2299L247.925 72.1245C243.797 72.0951 240.881 70.3323 238.308 68.7795C236.328 67.5841 234.622 66.5526 232.765 66.5821Z" fill="black"/>
<path d="M232.15 68.3393C232.552 70.5515 234.338 73.2739 237.313 74.0217C238.144 74.2317 239.7 74.4564 240.78 73.6036C241.229 73.2481 241.765 72.5629 241.749 71.3214L239.643 71.3491C239.645 71.5609 239.619 71.8372 239.476 71.9532C239.223 72.1522 238.545 72.1632 237.825 71.9827C235.849 71.4835 234.515 69.5826 234.221 67.9635L232.15 68.3393ZM268.114 92.8024C269.245 94.0917 269.783 95.2872 269.888 96.4734C268.083 95.2153 265.972 94.4657 264.125 94.4859L264.149 96.5913C265.985 96.5692 268.394 97.6817 270.006 99.2934L271.222 100.509L271.752 98.8753C272.566 96.3574 271.894 93.9186 269.695 91.4135L268.114 92.8024ZM271.111 104.875C271.465 105.528 271.85 106.61 271.999 107.805C270.85 106.549 269.516 105.641 267.494 105.143L266.993 107.188C269.161 107.72 270.367 108.693 271.951 111.198L273.132 113.064L273.837 110.971C274.825 108.041 273.714 105.269 272.964 103.876L271.111 104.875ZM244.248 117.024L244.534 119.129L246.035 117.628C247.709 115.954 251.049 114.429 252.482 114.215L252.174 112.134C250.872 112.325 248.383 113.327 246.352 114.69C246.565 113.025 247.308 111.601 248.547 110.715L247.326 109.004C244.95 110.699 243.801 113.696 244.248 117.024ZM263.458 117.24C264.046 118.234 264.34 119.612 264.34 121.001C264.34 121.546 264.257 122.08 264.165 122.607C262.682 120.069 260.664 118.067 258.378 116.974L257.47 118.873C259.918 120.043 262.128 122.614 263.381 125.746L264.184 127.757L265.269 125.88C266.834 123.171 266.834 118.815 265.267 116.169L263.458 117.24ZM275.884 116.374C276.619 117.779 276.987 119.338 276.987 121.093C276.987 121.159 276.969 121.235 276.967 121.301C275.503 119.52 273.753 117.726 271.03 116.632L270.246 118.584C273.09 119.728 274.661 121.732 276.322 123.854L278.385 126.475L278.798 124.173C279.411 120.787 279.069 117.916 277.748 115.4L275.884 116.374ZM277.437 128.122C278.14 129.074 278.409 130.172 278.409 131.235C278.409 131.574 278.334 131.889 278.286 132.217C276.96 130.351 274.906 128.302 272.355 127.492L271.715 129.498C274.499 130.38 276.899 133.436 277.645 135.221L278.534 137.35L279.559 135.282C280.629 133.121 281.159 129.621 279.129 126.871L277.437 128.122ZM241.404 133.038L241.601 135.372L243.213 133.675C244.946 131.852 248.234 129.583 250.522 129.095L250.083 127.037C248.044 127.474 245.606 128.918 243.662 130.461C244.095 128.115 245.447 126.23 247.615 125.26L246.755 123.34C243.084 124.983 241.036 128.7 241.404 133.038ZM232.321 120.531V122.532L233.97 121.399C235.808 120.133 238.367 118.743 239.444 118.419L238.84 116.403C237.818 116.711 236.11 117.603 234.561 118.535C234.847 116.311 235.727 113.359 238.321 111.865L237.269 110.043C232.802 112.616 232.321 118.234 232.321 120.531ZM278.844 140.898C280.356 142.167 282.375 144.591 283.09 147.241L283.574 149.039L284.863 147.698C287.479 144.981 286.639 141.539 286.28 140.067L286.191 139.689L284.134 140.13L284.235 140.566C284.388 141.181 284.598 142.045 284.598 142.981C284.598 143.519 284.526 144.084 284.335 144.639C283.336 142.591 281.929 140.768 280.2 139.284L278.844 140.898ZM264.9 145.928L265.009 148.201L266.67 146.648C268.783 144.672 271.076 143.243 273.301 142.513L272.647 140.515C270.885 141.091 269.104 142.066 267.387 143.337C267.925 141.55 268.997 139.805 270.397 139.157L269.514 137.247C266.477 138.649 264.755 142.845 264.9 145.928ZM253.635 139.586C255.125 140.141 256.696 142.318 257.403 144.434C255.504 143.086 253.751 142.568 252.268 142.147L251.058 141.786L250.397 143.782L251.693 144.171C253.67 144.733 255.713 145.311 258.059 147.766L259.634 149.417L259.866 147.148C260.216 143.71 257.341 138.721 254.368 137.614L253.635 139.586ZM227.965 65.8582L227.899 63.1689L230.002 63.1173L230.067 65.8066L227.965 65.8582ZM229.997 131.449L229.94 133.613L232.841 131.452C233.574 130.896 234.215 130.419 234.885 130.019C233.939 132.119 233.428 134.243 233.428 136.315C233.428 136.982 233.478 137.643 233.58 138.297L235.659 137.976C235.195 134.959 236.024 131.697 238.061 128.542L239.465 126.367L236.939 126.947C235.2 127.346 233.979 128.035 232.8 128.866C233.727 126.803 235.471 124.943 237.295 124.445L236.74 122.416C233.248 123.372 230.096 127.591 229.997 131.449Z" fill="black"/>
<path d="M235.142 139.061L234.108 137.229L234.298 137.122L235.333 138.953L235.142 139.061Z" fill="black"/>
<path d="M226.473 143.954L228.245 145.088C230.715 141.226 234.377 138.872 238.045 138.787L237.997 136.683C233.563 136.783 229.363 139.435 226.473 143.954ZM95.23 75.8177C100.798 84.1746 105.934 88.6985 117.113 88.6801C126.024 88.6653 136.243 85.7384 143.003 83.8007L142.425 81.7764C135.775 83.6828 125.729 86.56 117.111 86.5747C106.823 86.5913 102.261 82.574 96.9817 74.6499L95.23 75.8177Z" fill="black"/>
<path d="M106.829 86.7405C110.108 93.3826 116.114 96.5765 125.191 96.501C136.094 96.4126 140.835 95.1417 146.326 93.6718L145.781 91.6383C140.43 93.0713 135.808 94.3091 125.175 94.3957C116.871 94.4638 111.642 91.734 108.715 85.8085L106.829 86.7405ZM145.037 104.644C147.932 110.364 154.996 113.475 164.926 113.405C171.515 113.359 178.997 111.88 185.994 109.24L185.252 107.271C178.479 109.826 171.255 111.257 164.911 111.301C155.821 111.366 149.428 108.663 146.914 103.694L145.037 104.644Z" fill="black"/>
<path d="M123.215 96.2616C127.521 101.349 136.751 104.906 146.184 105.116C149.75 105.195 162.106 105.149 171.316 101.229L170.492 99.2934C161.668 103.047 149.689 103.09 146.23 103.012C136.046 102.786 127.995 98.6506 124.821 94.9022L123.215 96.2616ZM155.788 112.287C157.223 115.869 159.942 118.393 163.871 119.791C173.036 123.049 186.604 119.273 193.311 115.549L192.288 113.709C186.11 117.138 173.029 120.813 164.576 117.807C161.24 116.621 158.94 114.501 157.741 111.502L155.788 112.287ZM180.518 125.819C181.485 127.652 183.272 128.978 185.687 129.653C189.863 130.819 195.626 129.922 199.699 127.47L198.616 125.667C195.057 127.807 189.857 128.632 186.254 127.625C184.385 127.103 183.08 126.166 182.38 124.838L180.518 125.819Z" fill="black"/>
<path d="M169.671 120.607C170.706 122.171 173.13 125.831 179.638 126.376C184.32 126.766 190.428 125.499 197.794 122.607L197.026 120.649C189.962 123.423 184.171 124.642 179.815 124.278C174.324 123.819 172.439 120.973 171.426 119.444L169.671 120.607ZM189.277 129.411C189.432 131.262 191.699 133.384 194.668 134.455C196.691 135.184 201.879 136.389 206.366 131.819L204.865 130.345C201.231 134.044 197.024 133.068 195.383 132.475C192.904 131.579 191.439 129.992 191.377 129.234L189.277 129.411Z" fill="black"/>
<path d="M212.147 134.484C211.39 136.313 208.881 137.49 205.899 137.415C203.406 137.352 200.259 136.352 198.892 133.734L197.028 134.709C198.525 137.575 201.903 139.419 205.847 139.518C209.074 139.599 211.775 138.441 213.263 136.542C214.957 138.185 217.065 139.137 219.255 139.115C221.673 139.091 224.02 137.925 226.092 135.81C227.796 136.158 229.514 136.133 231.211 135.608L230.588 133.598C229.101 134.074 227.508 134.107 226.002 133.694L225.381 133.526L224.95 134.003C223.187 135.952 221.211 136.991 219.233 137.009C217.271 137.028 215.344 136.017 213.946 134.235L212.834 132.817L212.147 134.484ZM77.4054 87.1402L77.002 89.2069C86.7055 91.0986 99.1203 90.01 108.853 88.8458L108.603 86.7571C99.0226 87.9009 86.8197 88.9785 77.4054 87.1402ZM90.813 97.0426L90.3139 99.0853C100.599 101.603 115.906 101.268 125.919 98.308L125.322 96.2892C115.619 99.159 100.784 99.4813 90.813 97.0426ZM108.017 111.286C125.632 117.674 149.006 113.714 155.751 112.349L155.333 110.288C148.724 111.625 125.836 115.51 108.733 109.31L108.017 111.286ZM136.961 123.151V125.256C146.175 125.256 159.63 122.751 164.648 120.102L163.666 118.242C158.971 120.719 145.742 123.151 136.961 123.151ZM156.304 130.01L156.225 132.113C160.876 132.288 172.357 129.476 177.19 125.81L175.919 124.132C171.491 127.488 160.563 130.168 156.304 130.01ZM161.581 133.173L161.413 135.269C168.144 135.807 178.284 134.366 184.709 128.533L183.294 126.974C177.367 132.355 167.894 133.675 161.581 133.173ZM173.075 142.655L174.436 144.261C175.886 143.031 177.468 141.15 178.778 139.104L177.006 137.969C175.821 139.818 174.351 141.572 173.075 142.655ZM180.38 143.333L181.703 144.969C183.141 143.806 184.34 142.397 185.595 140.4L183.814 139.282C182.69 141.073 181.629 142.322 180.38 143.333ZM189.142 143.782L188.929 144.02L190.502 145.418L190.714 145.182L193.243 142.283L191.614 140.951L189.142 143.782ZM198.168 146.669L196.547 145.328L199.782 141.415L201.402 142.754L198.168 146.669ZM134.436 85.6279C136.018 89.5145 139.951 93.5042 144.405 93.611C149.986 93.7455 157.936 91.3122 164.184 87.5583L163.101 85.755C157.164 89.3229 149.671 91.6327 144.455 91.5093C140.907 91.4246 137.709 88.087 136.385 84.8341L134.436 85.6279Z" fill="black"/>
<path d="M157.868 94.9869C154.799 94.9851 152.283 93.8578 150.176 91.5425L148.619 92.9589C151.111 95.6979 154.223 97.0886 157.866 97.0904C163.939 97.096 170.704 93.3236 176.518 89.6287L175.39 87.853C170.155 91.1796 163.434 94.9943 157.868 94.9869Z" fill="black"/>
<path d="M181.598 93.8652C177.903 96.4144 174.083 99.0521 170.432 99.1682C167.739 99.2529 165.289 97.9396 162.946 95.149L161.334 96.5029C164.121 99.8165 167.118 101.377 170.498 101.272C174.77 101.137 178.848 98.319 182.793 95.5948L184.637 94.3312L183.464 92.5887L181.598 93.8652Z" fill="black"/>
<path d="M179.187 102.128C175.748 102.318 174.655 100.997 174.038 99.6821L172.132 100.574C173.375 103.23 175.72 104.425 179.303 104.228C183.307 104.007 188.133 101.662 192.213 97.9543L190.796 96.396C187.065 99.7908 182.725 101.933 179.187 102.128Z" fill="black"/>
<path d="M184.543 105.182C183.908 105.01 183.315 104.709 182.802 104.296C182.29 103.884 181.868 103.371 181.563 102.788L179.713 103.79C180.148 104.622 180.751 105.354 181.483 105.942C182.215 106.53 183.06 106.96 183.966 107.205C187.497 108.212 192.358 106.973 198.409 103.521L197.367 101.694C190.463 105.63 186.582 105.762 184.543 105.182Z" fill="black"/>
<path d="M184.018 106.523C184.688 108.768 186.055 110.362 188.085 111.259C193.918 113.838 203.067 109.713 204.843 108.861L203.931 106.965C200.308 108.706 193.073 111.163 188.936 109.334C187.475 108.687 186.527 107.571 186.035 105.921L184.018 106.523Z" fill="black"/>
<path d="M189.852 111.859C193.57 118.529 198.91 119.384 210.264 115.125L209.526 113.156C197.96 117.494 194.445 115.779 191.69 110.837L189.852 111.859Z" fill="black"/>
<path d="M198.122 117.477C199.146 119.977 201.001 121.745 203.491 122.592C207.151 123.836 212.032 123.009 216.553 120.38L215.493 118.56C211.495 120.889 207.26 121.651 204.169 120.599C202.248 119.947 200.868 118.627 200.071 116.68L198.122 117.477Z" fill="black"/>
<path d="M207.667 122.926C208.768 125.442 210.625 127.175 212.894 127.805C215.622 128.564 218.855 127.724 222.486 125.412C223.793 128.258 225.746 128.842 228.536 128.805L228.509 126.7C226.112 126.733 224.963 126.44 223.998 123.513L223.554 122.161L222.392 122.983C218.835 125.497 215.829 126.438 213.458 125.779C211.345 125.191 210.19 123.443 209.592 122.082L207.667 122.926ZM395.149 83.7841C386.125 83.7694 378.221 82.8079 371.657 80.9273L371.078 82.9497C377.831 84.8856 385.928 85.8729 395.147 85.8877C404.904 85.9042 411.181 82.7287 416.81 74.9335L415.105 73.7012C409.853 80.9715 404.259 83.7989 395.149 83.7841Z" fill="black"/>
<path d="M384.314 93.6939C380.004 93.7233 374.344 92.8853 368.785 91.3969L368.242 93.4286C373.974 94.963 379.837 95.8269 384.327 95.7974C392.887 95.7421 398.669 92.5242 403.662 85.0385L401.913 83.8707C397.293 90.7965 392.196 93.6423 384.314 93.6939ZM329.938 106.464C335.002 109.802 342.668 114.237 350.763 114.243C356.453 114.245 361.712 112.055 366.39 107.733L364.963 106.188C360.627 110.194 355.981 112.141 350.763 112.137C343.235 112.134 335.934 107.895 331.097 104.707L329.938 106.464Z" fill="black"/>
<path d="M366.145 105.56C360.323 105.729 348.639 102.41 342.858 98.0354L341.588 99.7134C347.798 104.414 359.921 107.847 366.206 107.663C376.335 107.367 386.26 99.9897 390.137 95.4106L388.531 94.0512C384.889 98.354 375.591 105.285 366.145 105.56ZM323.629 112.215C326.575 117.684 334.073 121.719 341.46 121.808C348.05 121.887 353.357 118.982 356.409 113.631L354.58 112.589C350.997 118.873 344.838 119.745 341.485 119.704C334.816 119.625 328.087 116.055 325.482 111.218L323.629 112.215ZM325.154 129.689C321.644 129.8 317.652 128.558 315.221 126.599L313.9 128.238C316.739 130.526 321.181 131.922 325.221 131.795C329.096 131.673 332.132 130.181 333.768 127.593L331.988 126.47C330.299 129.137 326.982 129.63 325.154 129.689Z" fill="black"/>
<path d="M315.58 119.96C322.642 126.691 329.255 127.525 333.559 127.041C339.124 126.414 343.02 123.43 344.167 121.697L342.414 120.535C341.653 121.682 338.308 124.388 333.326 124.948C329.467 125.383 323.508 124.606 317.032 118.435L315.58 119.96ZM318.008 133.261C316.146 133.44 313.403 133.121 310.916 130.588L309.415 132.062C312.486 135.188 315.891 135.578 318.21 135.355C321.975 134.994 325.083 132.81 326.094 130.942L324.245 129.942C323.495 131.32 320.898 132.983 318.008 133.261Z" fill="black"/>
<path d="M302.414 135.221C301.664 137.083 300.581 138.284 299.516 138.433C298.433 138.586 297.455 137.66 296.825 136.855L295.169 138.151C296.928 140.4 298.664 140.68 299.813 140.518C301.277 140.31 302.576 139.26 303.585 137.556C305.363 139.502 307.825 140.505 310.493 140.227C313.626 139.899 316.271 137.917 317.234 135.178L315.249 134.482C314.556 136.457 312.602 137.89 310.275 138.133C307.811 138.391 305.628 137.275 304.289 135.068L303.198 133.274L302.414 135.221ZM406.473 84.066C411.158 85.6427 416.892 86.536 423.053 86.6447C427.923 86.7294 432.856 86.315 437.323 85.4437L436.919 83.3789C432.596 84.2225 427.814 84.6241 423.09 84.5412C417.14 84.4362 411.627 83.5815 407.144 82.0711L406.473 84.066ZM405.746 96.7055C399.443 96.6244 393.659 95.5432 390.275 93.8136L389.316 95.6869C393.027 97.5841 399.006 98.7224 405.718 98.8108C412.784 98.9011 420.084 97.8272 426.273 95.7863L425.613 93.7878C419.643 95.7587 412.587 96.7939 405.746 96.7055ZM381.251 111.631C374.068 111.736 367.177 111.005 361.846 109.573L361.301 111.607C366.812 113.086 373.908 113.843 381.279 113.738C392.021 113.585 402.346 111.673 410.358 108.36L409.553 106.414C401.782 109.629 391.73 111.482 381.251 111.631ZM349.31 119.316C353.454 123.373 370.54 125.687 380.761 124.521L380.524 122.43C370.26 123.604 354.14 121.099 350.784 117.812L349.31 119.316ZM341.384 123.624C346.085 127.188 355.593 132.051 360.406 131.868L360.327 129.767C356.44 129.912 347.483 125.608 342.657 121.946L341.384 123.624ZM332.907 127.575C337.884 133.602 347.44 136.862 356.146 135.503L355.82 133.425C347.813 134.676 339.058 131.719 334.53 126.236L332.907 127.575ZM340.279 137.16L341.292 138.778C342.338 140.461 343.524 142.368 344.595 143.74L346.252 142.445C345.254 141.161 344.099 139.304 343.081 137.667L342.053 136.024L340.279 137.16ZM333.904 138.501L334.893 140.677C335.528 142.16 336.131 143.561 336.877 144.375L338.426 142.953C337.923 142.403 337.365 141.104 336.827 139.848L335.773 137.536L333.904 138.501ZM325.96 139.833L326.687 141.751C327.521 144.059 327.855 144.893 328.201 145.282L329.807 143.924C329.596 143.609 329.013 141.999 328.667 141.036L327.855 138.918L325.96 139.833ZM318.934 146.851L316.623 142.513L318.483 141.524L320.793 145.86L318.934 146.851ZM370.113 91.1446C364.814 91.2699 360.091 88.4332 354.622 85.149L353.539 86.9523C359.288 90.406 364.256 93.39 370.163 93.2481C374.418 93.1468 380.028 89.1479 381.71 85.0219L379.761 84.228C378.398 87.5712 373.528 91.0617 370.113 91.1446Z" fill="black"/>
<path d="M343.316 91.3601L343.836 91.653C350.633 95.4695 359.94 100.697 368.411 93.2868L367.024 91.7027C359.673 98.133 351.463 93.5226 344.867 89.8184L344.346 89.5255L343.316 91.3601Z" fill="black"/>
<path d="M331.262 94.4546C335.484 97.2949 338.816 99.5366 343.826 99.695C346.939 99.7908 350.231 99.5881 353.232 96.0184L351.62 94.6646C349.22 97.5178 346.7 97.678 343.891 97.5896C339.691 97.457 336.939 95.7366 332.436 92.7084L331.262 94.4546Z" fill="black"/>
<path d="M323.567 98.6838C325.576 100.509 331.371 102.964 336.249 102.817C339.288 102.725 341.535 101.603 342.749 99.5753L340.942 98.4959C340.104 99.8976 338.505 100.644 336.184 100.714C331.963 100.843 326.647 98.6395 324.982 97.1273L323.567 98.6838Z" fill="black"/>
<path d="M327.378 105.51C324.961 105.51 321.988 104.51 318.536 102.541L317.494 104.368C321.268 106.521 324.593 107.614 327.376 107.615C330.806 107.617 333.517 105.958 335.217 102.819L333.368 101.817C332.021 104.304 330.06 105.512 327.378 105.51Z" fill="black"/>
<path d="M322.615 110.242C320.356 110.445 317.715 109.914 315.368 108.787L314.457 110.682C317.133 111.97 320.176 112.572 322.802 112.336C326.247 112.027 328.859 110.33 330.353 107.433L328.481 106.47C327.319 108.726 325.348 109.995 322.615 110.242Z" fill="black"/>
<path d="M317.079 117.044C314.862 117.063 311.984 116.221 308.022 114.396L307.142 116.308C311.395 118.266 314.558 119.17 317.096 119.148C321.546 119.111 323.812 116.116 325.442 113.193L323.604 112.169C321.662 115.656 319.831 117.022 317.079 117.044ZM309.675 144.316H311.78V145.53H309.675V144.316Z" fill="black"/>
<path d="M311.056 122.123C309.035 122.27 306.495 121.592 304.734 120.434L302.57 119.01L303.13 121.541C303.447 122.979 303.296 124.263 302.701 125.151C302.527 125.422 302.299 125.654 302.03 125.832C301.762 126.01 301.46 126.131 301.143 126.186C300.041 126.379 298.785 125.851 297.507 124.654L296.068 126.188C298.319 128.295 300.266 128.477 301.507 128.258C302.104 128.152 302.673 127.926 303.179 127.592C303.685 127.259 304.118 126.825 304.451 126.319C305.044 125.435 305.341 124.333 305.372 123.132C307.229 123.935 309.358 124.355 311.211 124.219C314.149 124.003 316.394 122.436 317.532 119.8L315.6 118.966C314.762 120.901 313.233 121.962 311.056 122.123ZM264.862 162.64C264.93 165.784 266.033 168.461 268.054 170.378L269.435 171.688L269.859 169.575C270.074 168.501 270.301 167.455 270.973 166.083C271.531 166.608 272.06 167.171 272.55 167.849L273.487 169.15L275.002 166.6C275.845 165.107 276.925 163.3 278.921 161.973C280.253 162.745 282.03 164.429 283.158 165.514L285.385 167.566L285.958 166.315C287.083 164.232 288.326 163.073 289.874 161.856L290.71 162.353L291.922 160.633L289.627 159.273L289.14 159.748C287.822 160.76 286.238 162.042 284.823 164.191L284.617 164C283.167 162.603 280.975 160.494 279.282 159.759L278.798 159.549L278.339 159.811C275.578 161.395 274.233 163.69 273.255 165.42C272.667 164.742 272.013 164.125 271.301 163.578L270.367 162.874L269.765 163.876C269.114 164.934 268.605 166.072 268.251 167.262C267.45 165.954 267 164.401 266.961 162.592L266.96 162.323C266.96 158.774 268.444 155.582 269.481 154.51L267.969 153.047C266.4 154.677 264.775 158.592 264.862 162.64Z" fill="black"/>
<path d="M212.366 194.153C212.198 192.233 213.631 188.557 216.433 187.514C216.304 188.704 216.35 190.325 216.925 191.388C215.282 191.725 213.506 193.014 212.366 194.153Z" fill="#ECB731"/>
<path d="M216.064 186.529C212.81 187.739 211.104 191.839 211.316 194.245L211.511 196.492L213.108 194.9C214.071 193.941 215.703 192.714 217.136 192.419L218.525 192.134L217.849 190.887C217.405 190.065 217.367 188.663 217.479 187.626L217.661 185.932L216.064 186.529ZM215.385 189.43C215.42 189.868 215.499 190.286 215.615 190.738C215.054 190.955 214.514 191.224 214.003 191.542C214.335 190.778 214.768 190.027 215.385 189.43Z" fill="black"/>
<path d="M232.34 204.16C230.568 203.368 228.715 201.154 229.596 198.435C230.723 198.225 232.231 198.092 233.359 198.511C232.85 200.389 232.136 202.557 232.34 204.16Z" fill="#ECB731"/>
<path d="M229.404 197.398L228.789 197.512L228.595 198.109C227.578 201.246 229.546 204.064 231.911 205.121L233.622 205.886L233.386 204.025C233.235 202.861 233.723 201.13 234.151 199.603L234.637 197.851L233.727 197.521C232.347 197.013 230.616 197.173 229.404 197.398ZM232.038 199.358C231.777 200.282 231.571 201.22 231.423 202.169C230.866 201.559 230.426 200.769 230.426 199.815C230.426 199.682 230.478 199.535 230.496 199.397C231.076 199.328 231.583 199.316 232.038 199.358Z" fill="black"/>
<path d="M255.289 188.013C255.033 185.648 252.06 183.421 249.946 183.451C250.152 184.626 250.021 185.685 249.995 186.792C251.817 186.974 254.007 187.485 255.289 188.013Z" fill="#ECB731"/>
<path d="M249.929 182.397L248.693 182.416L248.907 183.635C249.045 184.412 249.01 185.16 248.973 185.952L248.905 187.759L249.89 187.84C251.587 188.01 253.688 188.49 254.887 188.986L256.529 189.664L256.337 187.899C256.017 184.945 252.486 182.362 249.929 182.397ZM251.111 184.889C251.111 184.852 251.104 184.81 251.102 184.773C251.876 185.07 252.626 185.619 253.23 186.286C252.52 186.119 251.803 185.983 251.082 185.878C251.097 185.554 251.111 185.228 251.111 184.889ZM235.51 175.403L235.569 177.507L239.299 177.49L241.616 177.499L241.601 175.394L239.314 175.387L235.51 175.403ZM236.77 173.885L236.733 171.782L242.167 171.682L242.206 173.786L236.77 173.885ZM242.294 168.039L237.56 168.133L237.593 170.237L242.981 170.128L243.933 168.665C243.653 168.01 243.198 168.019 242.294 168.039ZM226.696 184.445C225.123 184.788 223.502 184.946 221.972 185.252C222.139 185.423 222.364 185.538 222.591 185.65L222.747 188.161C223.847 188.474 223.644 187.094 224.742 187.094L226.753 186.473C226.752 186.309 226.742 185.47 226.696 184.445ZM222.922 190.703C223.814 190.448 224.744 190.032 225.897 189.352C225.889 189.269 225.885 189.186 225.884 189.102C224.943 189.102 223.688 189.415 223.06 189.887C223.06 190.065 223.009 190.36 222.922 190.703ZM225.926 189.561C224.467 190.745 223.405 191.937 222.812 193.637C224.178 193.62 225.702 193.639 226.669 194.121C227.087 192.869 226.144 190.872 225.926 189.561ZM230.813 192.791C230.47 194.005 230.039 195.127 229.785 196.33L231.765 195.484C231.922 194.858 233.591 192.736 234.375 192.736C234.012 192.37 232.051 192.646 230.813 192.791ZM248.509 182.998C245.969 182.417 245.667 181.029 242.603 179.487C242.975 182.716 244.55 185.024 248.317 185.024C248.452 184.482 248.498 183.764 248.509 182.998Z" fill="black"/>
<path d="M280.741 161.983C280.911 168.019 282.003 177.614 287.381 181.454C291.926 184.696 295.457 183.615 298.71 186.532L298.437 189.805C292.705 187.94 294.889 189.682 290.275 188.367C293.773 190.848 294.882 190.924 295.302 195.027C293.933 195.317 293.278 196.521 292.349 197.087C290.69 195.339 287.665 194.499 285.407 190.749C285.707 193.681 286.155 196.427 286.155 199.249C284.96 199.04 283.738 199.04 282.543 199.249C281.485 196.938 279.012 191.738 279.012 189.063C275.856 189.063 275.722 185.764 272.754 185.258C271.414 185.027 269.417 186.066 267.636 185.784C267.47 184.458 267.623 183.294 267.623 182.11C270.925 181.075 271.894 178.956 275.86 177.092C277.282 173.95 276.053 169.839 275.037 164.598C275.906 162.718 277.254 161.874 278.833 160.629C279.277 160.824 280.301 161.671 280.741 161.983Z" fill="#ECB731"/>
<path d="M278.181 159.804L277.56 160.284C276.214 161.32 274.941 162.298 274.081 164.158L273.933 164.471L274.477 167.148C275 169.666 275.451 171.848 275.451 173.707C275.451 174.687 275.298 175.56 274.991 176.359C273.267 177.223 272.077 178.124 271.045 178.927C269.829 179.87 268.872 180.616 267.306 181.106L266.588 181.331L266.536 183.202L266.608 186.799L267.47 186.827C268.614 187.009 269.748 186.757 270.754 186.534C271.472 186.376 272.152 186.227 272.576 186.298C273.613 186.477 274.176 187.107 274.891 187.905C275.632 188.732 276.562 189.682 278.085 189.986C278.402 192.508 279.892 196.011 281.364 199.214L281.924 200.435L282.731 200.29C283.807 200.102 284.909 200.103 285.985 200.294L287.208 200.491V199.253C287.208 197.534 287.039 195.869 286.845 194.165C287.807 195.064 288.774 195.738 289.627 196.311C290.413 196.838 291.089 197.293 291.585 197.816L292.261 198.531L292.898 197.991L294.018 197.066C294.512 196.595 294.937 196.186 295.519 196.064L296.446 195.869L296.348 194.926C296.077 192.253 295.457 191.029 294.23 189.931C294.86 189.927 295.744 190.043 298.109 190.813L299.374 191.224L299.804 186.103L299.413 185.753C297.595 184.121 295.746 183.626 293.788 183.099C291.977 182.613 290.106 182.108 287.995 180.603C283.202 177.184 281.979 168.577 281.795 161.959L281.78 161.452L280.865 160.763L278.616 159.24L278.181 159.804ZM278.842 161.955L278.877 161.929C279.157 162.129 279.436 162.329 279.715 162.53C279.964 169.555 281.404 178.483 286.772 182.312C289.192 184.04 291.344 184.619 293.243 185.131C294.865 185.567 296.282 185.982 297.614 187.026L297.497 188.424C295.254 187.774 294.44 187.798 293.696 187.842C293.088 187.879 292.513 187.912 290.568 187.358L284.386 185.595L291.108 190.22C293.178 191.618 293.808 192.154 294.14 194.418C293.565 194.718 293.036 195.097 292.567 195.545L292.369 195.713C291.866 195.305 291.345 194.922 290.806 194.563C289.334 193.574 287.665 192.454 286.315 190.209L283.828 186.077L284.631 193.235C284.827 194.908 284.983 196.505 285.05 198.105C284.431 198.067 283.811 198.079 283.195 198.142C282.125 195.812 280.069 191.283 280.069 189.069V188.013H279.015C277.873 188.013 277.33 187.466 276.466 186.499C275.679 185.619 274.7 184.523 272.937 184.221C272.104 184.079 271.229 184.272 270.305 184.477C269.752 184.598 269.201 184.681 268.671 184.725L268.647 183.287L268.66 182.837C270.167 182.242 271.242 181.443 272.342 180.588C273.427 179.745 274.549 178.873 276.311 178.046L276.663 177.882L276.823 177.529C277.356 176.359 277.558 175.085 277.558 173.714C277.558 171.607 277.074 169.268 276.545 166.72L276.151 164.775C276.779 163.572 277.652 162.871 278.842 161.955Z" fill="black"/>
<path d="M295.836 201.344C296.617 200.167 297.118 196.67 295.668 194.694C294.769 195.053 293.108 196.293 292.377 197.124C293.462 198.186 294.992 199.776 295.836 201.344Z" fill="#ECB731"/>
<path d="M295.276 193.716C294.14 194.171 292.358 195.547 291.583 196.429L290.924 197.179L291.638 197.877C292.231 198.455 294.031 200.218 294.908 201.843L295.742 203.392L296.713 201.926C297.763 200.338 298.221 196.396 296.516 194.071L296.033 193.416L295.276 193.716ZM295.193 196.164C295.405 196.744 295.538 197.37 295.538 198.008C295.538 198.334 295.475 198.612 295.438 198.916C294.947 198.301 294.426 197.71 293.878 197.146C294.291 196.796 294.759 196.448 295.193 196.164Z" fill="black"/>
<path d="M303.084 193.057C303.254 191.137 301.819 187.459 299.017 186.418C298.975 187.551 298.877 188.614 298.525 189.75C300.093 190.389 301.885 192.139 303.084 193.057Z" fill="#ECB731"/>
<path d="M297.965 186.376C297.923 187.488 297.829 188.435 297.52 189.437L297.234 190.358L298.127 190.723C299.126 191.132 300.356 192.163 301.345 192.992L303.988 195.151L304.136 193.147C304.346 190.739 302.642 186.639 299.387 185.429L298.024 184.922L297.965 186.376ZM299.923 188.242C300.556 188.832 301.06 189.548 301.402 190.343C300.867 189.932 300.301 189.561 299.71 189.234C299.783 188.903 299.881 188.56 299.923 188.242Z" fill="black"/>
<path d="M283.519 204.571C285.293 203.779 287.144 201.566 286.263 198.846C285.136 198.636 283.626 198.503 282.5 198.921C283.009 200.804 283.725 202.97 283.519 204.571Z" fill="#ECB731"/>
<path d="M282.136 197.932L281.226 198.267L281.708 200.014C282.137 201.542 282.624 203.276 282.474 204.438L282.237 206.298L283.95 205.534C286.317 204.477 288.282 201.66 287.265 198.522L287.074 197.925L286.457 197.811C285.247 197.584 283.513 197.424 282.136 197.932ZM285.364 199.809C285.383 199.947 285.433 200.095 285.433 200.227C285.433 201.181 284.992 201.972 284.436 202.581C284.288 201.633 284.083 200.694 283.821 199.77C284.278 199.728 284.784 199.739 285.364 199.809Z" fill="black"/>
<path d="M263.044 187.866C262.876 185.501 265.348 182.34 267.698 182.369C267.492 183.545 267.623 184.606 267.648 185.711C265.827 186.166 264.326 187.127 263.044 187.866Z" fill="#ECB731"/>
<path d="M263.961 183.158C262.638 184.56 261.883 186.392 261.992 187.941L262.112 189.629L264.042 188.505C265.167 187.846 266.444 187.1 267.905 186.735L268.733 186.529L268.671 184.873C268.634 184.081 268.599 183.333 268.735 182.556L268.953 181.334L267.713 181.318C266.429 181.299 265.097 181.953 263.961 183.158ZM265.492 184.602C265.823 184.252 266.18 183.983 266.532 183.78V183.808C266.532 184.204 266.551 184.589 266.567 184.967V184.996C265.923 185.217 265.293 185.438 264.731 185.722C264.952 185.335 265.175 184.939 265.492 184.602ZM279.091 174.309L276.4 174.348L276.387 176.451L279.141 176.414L282.721 176.389L282.778 174.283L279.091 174.309ZM276.844 173.449L276.781 171.345L282.038 171.189L282.101 173.294L276.844 173.449ZM275.481 168.47L276.304 170.27C276.7 170.238 280.445 169.969 281.34 169.984L281.373 167.879C281.321 167.879 276.114 167.848 275.481 168.47ZM290.651 183.852C292.224 184.195 294.092 184.55 295.622 184.854C294.543 185.963 294.582 184.698 294.453 186.774C293.353 187.087 293.506 186.352 292.408 186.352L290.399 185.731C290.397 185.567 290.605 184.875 290.651 183.852ZM290.376 188.52C291.835 189.706 294.237 191.937 294.832 193.637C293.465 193.62 292.239 193.193 291.274 193.675C291.552 190.697 289.417 191.117 290.376 188.52ZM284.635 192.929C284.978 194.141 285.409 195.265 285.663 196.466L283.683 195.622C283.528 194.994 282.679 192.872 281.896 192.872C282.259 192.51 283.399 192.784 284.635 192.929ZM269.478 181.52C272.018 180.94 272.322 179.551 275.385 178.01C275.013 181.239 273.436 183.547 269.671 183.547C269.537 183.007 269.489 182.287 269.478 181.52ZM249.481 220.988L250.189 221.036C251.005 221.093 251.55 221.218 251.821 221.406C252.091 221.594 252.211 221.902 252.182 222.322C252.154 222.721 251.983 222.994 251.67 223.136C251.356 223.279 250.793 223.322 249.982 223.265L249.325 223.219L249.481 220.988ZM249.216 229.855C250.592 229.951 251.587 229.979 252.2 229.938C252.812 229.898 253.331 229.791 253.758 229.616C254.281 229.409 254.696 229.091 255 228.663C255.304 228.236 255.477 227.73 255.517 227.144C255.574 226.322 255.377 225.65 254.928 225.129C254.477 224.606 253.825 224.285 252.97 224.164C253.747 224.029 254.324 223.79 254.7 223.443C255.075 223.097 255.283 222.611 255.33 221.981C255.37 221.519 255.28 221.055 255.07 220.642C254.848 220.233 254.516 219.894 254.112 219.664C253.684 219.424 253.222 219.252 252.742 219.155C252.204 219.037 251.253 218.931 249.887 218.835L246.567 218.603L245.797 229.614L249.216 229.855ZM249.187 225.19L250.388 225.272C251.194 225.33 251.74 225.458 252.025 225.663C252.311 225.866 252.438 226.201 252.404 226.665C252.375 227.079 252.193 227.365 251.854 227.523C251.515 227.68 250.955 227.731 250.17 227.676L249.019 227.597L249.187 225.19Z" fill="black"/>
</svg>
