<svg width="512" height="512" viewBox="0 0 512 512" fill="none" xmlns="http://www.w3.org/2000/svg">
<path fill-rule="evenodd" clip-rule="evenodd" d="M256.069 56C295.623 56.0137 334.285 67.7556 367.166 89.741C400.047 111.726 425.671 142.968 440.797 179.515C455.924 216.063 459.874 256.275 452.147 295.067C444.421 333.859 425.366 369.489 397.391 397.452C369.416 425.415 333.777 444.455 294.982 452.164C256.186 459.874 215.976 455.906 179.435 440.764C142.894 425.622 111.664 399.985 89.6929 367.094C67.7217 334.204 55.9966 295.537 56 255.983C56 229.713 61.1755 203.701 71.231 179.433C81.2865 155.164 96.0249 133.114 114.604 114.543C133.183 95.9717 155.24 81.2429 179.513 71.1979C203.786 61.1529 229.8 55.9886 256.069 56ZM256.069 96.343C287.651 96.3464 318.522 105.715 344.778 123.264C371.035 140.813 391.498 165.754 403.58 194.933C415.662 224.112 418.819 256.218 412.653 287.192C406.488 318.165 391.275 346.615 368.94 368.942C346.605 391.27 318.151 406.473 287.175 412.629C256.2 418.785 224.094 415.617 194.919 403.526C165.744 391.434 140.81 370.963 123.27 344.701C105.729 318.438 96.3708 287.564 96.3776 255.983C96.3799 235.015 100.512 214.253 108.539 194.882C116.566 175.511 128.329 157.911 143.158 143.087C157.987 128.263 175.591 116.505 194.965 108.485C214.338 100.464 235.101 96.3384 256.069 96.343ZM298.058 295.546C303.539 289.725 311.107 286.32 319.098 286.08C327.09 285.84 334.849 288.784 340.67 294.264C346.491 299.745 349.896 307.314 350.136 315.305C350.377 323.296 347.432 331.056 341.952 336.876C327.214 352.642 308.446 364.078 287.678 369.947C266.91 375.816 244.933 375.893 224.123 370.172C203.314 364.451 184.466 353.148 169.617 337.487C154.768 321.826 144.485 302.402 139.879 281.318C135.274 260.234 136.521 238.292 143.487 217.865C150.453 197.439 162.871 179.306 179.399 165.429C195.927 151.552 215.936 142.458 237.259 139.132C258.583 135.806 280.41 138.375 300.379 146.559C314.567 152.395 327.503 160.898 338.487 171.607C344.184 177.21 347.422 184.846 347.488 192.835C347.555 200.825 344.445 208.514 338.842 214.211C333.24 219.907 325.604 223.145 317.614 223.212C309.625 223.278 301.936 220.168 296.239 214.566C290.908 209.256 284.571 205.063 277.599 202.234C270.627 199.406 263.16 197.998 255.636 198.092C246.012 198.073 236.535 200.449 228.059 205.009C219.583 209.568 212.376 216.166 207.088 224.207C201.801 232.249 198.599 241.48 197.771 251.069C196.944 260.657 198.517 270.301 202.349 279.129C206.181 287.958 212.151 295.693 219.72 301.637C227.29 307.58 236.22 311.546 245.705 313.175C255.191 314.804 264.932 314.045 274.051 310.968C283.17 307.89 291.379 302.59 297.937 295.546H298.058ZM256.069 233.793C260.467 233.79 264.767 235.091 268.425 237.533C272.082 239.974 274.934 243.446 276.617 247.509C278.301 251.571 278.742 256.042 277.883 260.355C277.025 264.668 274.906 268.63 271.795 271.738C268.684 274.847 264.721 276.962 260.407 277.817C256.094 278.672 251.623 278.228 247.562 276.541C243.5 274.855 240.031 272.001 237.592 268.341C235.154 264.681 233.856 260.38 233.862 255.983C233.867 250.096 236.209 244.452 240.373 240.291C244.537 236.13 250.183 233.793 256.069 233.793Z" fill="#E31E24"/>
</svg>
