<svg width="512" height="512" viewBox="0 0 512 512" fill="none" xmlns="http://www.w3.org/2000/svg">
<path d="M105.277 393.075C137.709 386.586 138.466 385.26 138.466 356.682V155.275C138.466 126.903 137.021 124.792 105.277 118.881V96.2792H269.366C359.239 96.2792 406.723 123.937 406.723 192.62C406.723 244.379 369.377 294.964 291.952 294.964C279.065 295.354 266.189 293.936 253.697 290.742V274.981C290.209 265.537 303.02 257.277 303.02 195.392C303.02 136.667 294.702 117.025 262.828 117.025C244.333 117.025 240.794 122.075 240.794 142.859V356.698C240.794 385.671 241.649 387.181 278.14 393.091V415.721H105.277V393.091" fill="#D10019"/>
<path d="M183.784 176.93L183.584 176.286C183.016 174.196 182.794 174.121 180.396 174.121H164.836C162.541 174.121 162.33 174.332 161.128 175.89L159.872 177.568H158.671L157.366 164.514L157.837 163.837C160.294 163.994 161.967 164.043 164.365 164.043H180.407C182.859 164.043 183.016 163.886 183.541 161.878L183.801 160.882H185.479V176.957L183.784 176.93ZM151.061 174.689C148.084 174.938 145.464 172.73 145.215 169.753C144.961 166.77 147.175 164.156 150.152 163.902C153.134 163.653 155.748 165.861 156.002 168.843C156.013 168.995 156.019 169.157 156.019 169.309C156.23 172.064 154.168 174.467 151.413 174.673C151.294 174.683 151.175 174.689 151.061 174.689ZM183.784 194.412L183.525 193.421C182.956 191.175 182.794 191.072 180.391 191.072H153.724C150.958 191.072 150.644 191.175 149.756 192.896L148.874 194.672H147.462L146.309 181.509L146.78 180.832C146.78 180.832 149.388 180.989 152.885 180.989H180.407C182.859 180.989 183.043 180.989 183.627 178.748L183.801 178.023H185.479V194.406L183.784 194.412ZM172.456 205.166C164.992 205.166 162.746 207.044 162.746 210.438C162.757 211.585 162.968 212.717 163.374 213.783H181.96C183.081 212.922 183.736 211.591 183.736 210.178C183.736 206.99 182.22 205.161 172.456 205.166ZM182.572 223.855H153.724C150.958 223.855 150.59 223.91 149.756 225.522L148.874 227.298H147.462L146.309 214.313L146.78 213.631C146.78 213.631 149.388 213.783 152.885 213.783H161.128V213.518C158.801 211.309 157.448 208.268 157.366 205.063C157.366 200.16 160.917 194.883 170.21 194.883C178.058 193.963 185.17 199.581 186.09 207.429C186.215 208.549 186.215 209.68 186.085 210.801C186.328 215.417 185.1 219.991 182.572 223.855ZM179.076 256.482H164.684C162.384 256.482 162.118 256.536 160.971 258.257L159.889 259.929H158.687L157.383 247.08L157.853 246.404H176.543C179.676 246.404 180.559 245.321 180.559 243.324C180.521 242.063 180.293 240.813 179.882 239.616H164.679C162.378 239.616 162.016 239.779 160.966 241.392L159.883 243.059H158.687L157.383 230.215L157.853 229.538H178.691C181.398 229.538 181.668 229.484 182.345 227.769L182.886 226.464H184.353L186.128 238.68L185.657 239.357L181.998 239.248V239.508C184.51 242.328 185.966 245.927 186.128 249.694C186.431 253.153 183.871 256.2 180.407 256.509C179.974 256.546 179.536 256.541 179.103 256.487L179.076 256.482ZM154.33 249.748L148.219 243.643C147.299 242.831 146.753 241.684 146.709 240.461C146.845 238.572 148.474 237.154 150.363 237.267C151.943 237.229 153.307 238.372 153.545 239.93L155.375 249.283L154.33 249.748ZM171.747 160.541C160.993 160.541 157.393 151.832 157.393 143.995C157.393 138.669 159.071 135.113 162.562 135.113C164.673 134.978 166.492 136.569 166.632 138.675C166.643 138.826 166.643 138.983 166.632 139.135C166.632 142.268 164.338 143.21 161.88 143.416C160.11 143.573 159.791 143.838 159.791 145.51C159.791 147.67 160.944 150.62 169.295 150.62C176.759 150.62 180.889 148.531 180.889 142.582C180.873 140.082 180.25 137.63 179.059 135.433H180.889C184.342 138.225 186.28 142.479 186.112 146.918C186.599 153.992 181.262 160.113 174.194 160.6C173.376 160.66 172.554 160.638 171.747 160.541ZM171.85 134.561C163.661 134.886 156.771 128.505 156.446 120.316C156.127 112.127 162.503 105.231 170.692 104.912C178.881 104.587 185.776 110.968 186.101 119.157C186.106 119.347 186.112 119.542 186.112 119.731C186.74 127.249 181.159 133.852 173.642 134.485C173.041 134.534 172.435 134.545 171.828 134.518L171.85 134.561ZM172.061 115.352C160.847 115.352 159.748 117.122 159.748 119.893C159.748 122.502 161.577 124.121 170.914 124.121C182.35 124.121 183.757 122.762 183.757 119.634C183.736 117.263 182.956 115.331 172.039 115.331L172.061 115.352ZM183.757 294.818L183.4 293.351C182.978 291.581 182.772 291.051 179.222 291.051H155.542C151.992 291.051 151.786 291.592 151.369 293.351L151.001 294.818H149.275V276.21C149.275 266.029 152.409 260.649 160.192 260.649C166.573 260.817 171.612 266.126 171.444 272.508C171.439 272.881 171.406 273.265 171.357 273.639C171.363 275.111 171.114 276.578 170.627 277.969H168.803C168.543 273.693 167.076 272.383 160.506 272.383C153.404 272.383 151.846 273.466 151.846 276.984C151.862 277.812 152.003 278.645 152.262 279.43H179.2C182.594 279.43 182.751 279.122 183.27 277.038L183.741 275.209H185.462V294.785H183.741" fill="white"/>
</svg>
