<svg width="512" height="512" viewBox="0 0 512 512" fill="none" xmlns="http://www.w3.org/2000/svg">
<path d="M116.705 382.682C146.677 376.685 147.378 375.459 147.378 349.048V162.912C147.378 136.691 146.042 134.74 116.705 129.278V108.389H268.353C351.412 108.389 395.295 133.95 395.295 197.426C395.295 245.261 360.781 292.01 289.226 292.01C277.316 292.37 265.416 291.059 253.872 288.108V273.542C287.615 264.814 299.455 257.18 299.455 199.987C299.455 145.715 291.767 127.562 262.31 127.562C245.218 127.562 241.947 132.229 241.947 151.437V349.063C241.947 375.839 242.737 377.235 276.461 382.697V403.611H116.705V382.697" fill="#D10019"/>
<path d="M189.26 182.925L189.075 182.329C188.549 180.399 188.344 180.329 186.128 180.329H171.748C169.627 180.329 169.432 180.524 168.321 181.964L167.161 183.515H166.05L164.845 171.45L165.28 170.825C167.551 170.97 169.096 171.015 171.312 171.015H186.138C188.404 171.015 188.549 170.87 189.035 169.014L189.275 168.094H190.825V182.95L189.26 182.925ZM159.017 180.854C156.266 181.084 153.845 179.043 153.615 176.292C153.38 173.536 155.426 171.12 158.177 170.885C160.933 170.655 163.349 172.696 163.584 175.452C163.594 175.592 163.599 175.742 163.599 175.882C163.794 178.428 161.888 180.649 159.342 180.839C159.232 180.849 159.122 180.854 159.017 180.854ZM189.26 199.081L189.02 198.166C188.494 196.09 188.344 195.995 186.123 195.995H161.478C158.922 195.995 158.632 196.09 157.812 197.681L156.996 199.321H155.691L154.625 187.156L155.061 186.531C155.061 186.531 157.472 186.676 160.703 186.676H186.138C188.404 186.676 188.574 186.676 189.115 184.605L189.275 183.935H190.825V199.076L189.26 199.081ZM178.79 209.02C171.893 209.02 169.817 210.756 169.817 213.892C169.827 214.953 170.022 215.998 170.397 216.984H187.574C188.609 216.188 189.215 214.958 189.215 213.652C189.215 210.706 187.814 209.015 178.79 209.02ZM188.139 226.293H161.478C158.922 226.293 158.582 226.343 157.812 227.833L156.996 229.474H155.691L154.625 217.474L155.061 216.844C155.061 216.844 157.472 216.984 160.703 216.984H168.321V216.739C166.17 214.698 164.92 211.887 164.845 208.925C164.845 204.394 168.126 199.517 176.715 199.517C183.968 198.666 190.54 203.858 191.391 211.111C191.506 212.147 191.506 213.192 191.386 214.228C191.611 218.494 190.475 222.721 188.139 226.293ZM184.908 256.445H171.607C169.482 256.445 169.237 256.495 168.176 258.086L167.176 259.631H166.065L164.86 247.756L165.295 247.131H182.567C185.463 247.131 186.279 246.131 186.279 244.285C186.244 243.12 186.033 241.964 185.653 240.859H171.602C169.477 240.859 169.141 241.009 168.171 242.499L167.171 244.04H166.065L164.86 232.17L165.295 231.545H184.553C187.054 231.545 187.304 231.495 187.929 229.909L188.429 228.704H189.785L191.426 239.993L190.99 240.618L187.609 240.518V240.759C189.93 243.365 191.276 246.691 191.426 250.172C191.706 253.369 189.34 256.185 186.138 256.47C185.738 256.505 185.333 256.5 184.933 256.45L184.908 256.445ZM162.039 250.222L156.391 244.58C155.541 243.83 155.036 242.769 154.996 241.639C155.121 239.893 156.626 238.583 158.372 238.688C159.833 238.653 161.093 239.708 161.313 241.149L163.004 249.792L162.039 250.222ZM178.135 167.779C168.196 167.779 164.87 159.73 164.87 152.487C164.87 147.565 166.42 144.279 169.647 144.279C171.597 144.154 173.278 145.624 173.408 147.57C173.418 147.71 173.418 147.855 173.408 147.995C173.408 150.892 171.287 151.762 169.016 151.952C167.381 152.097 167.086 152.342 167.086 153.888C167.086 155.884 168.151 158.61 175.869 158.61C182.767 158.61 186.584 156.679 186.584 151.182C186.569 148.871 185.993 146.605 184.893 144.574H186.584C189.775 147.155 191.566 151.087 191.411 155.188C191.861 161.726 186.929 167.383 180.396 167.834C179.641 167.889 178.88 167.869 178.135 167.779ZM178.23 143.769C170.662 144.069 164.294 138.171 163.994 130.603C163.699 123.035 169.592 116.662 177.16 116.367C184.728 116.067 191.101 121.965 191.401 129.533C191.406 129.708 191.411 129.888 191.411 130.063C191.991 137.011 186.834 143.113 179.886 143.699C179.331 143.744 178.77 143.754 178.21 143.729L178.23 143.769ZM178.425 126.016C168.061 126.016 167.046 127.652 167.046 130.213C167.046 132.624 168.736 134.12 177.365 134.12C187.934 134.12 189.235 132.864 189.235 129.973C189.215 127.782 188.494 125.996 178.405 125.996L178.425 126.016ZM189.235 291.875L188.905 290.519C188.514 288.883 188.324 288.393 185.043 288.393H163.159C159.878 288.393 159.688 288.893 159.302 290.519L158.962 291.875H157.367V274.678C157.367 265.269 160.263 260.297 167.456 260.297C173.353 260.452 178.01 265.359 177.855 271.256C177.85 271.601 177.82 271.956 177.775 272.302C177.78 273.662 177.55 275.018 177.1 276.303H175.414C175.174 272.352 173.818 271.141 167.746 271.141C161.183 271.141 159.743 272.141 159.743 275.393C159.758 276.158 159.888 276.928 160.128 277.654H185.023C188.159 277.654 188.304 277.369 188.785 275.443L189.22 273.752H190.81V291.845H189.22" fill="white"/>
</svg>
