<svg width="512" height="512" viewBox="0 0 512 512" fill="none" xmlns="http://www.w3.org/2000/svg">
<g clip-path="url(#clip0_9_10)">
<path fill-rule="evenodd" clip-rule="evenodd" d="M349.606 235.683H403.737C419.934 235.683 433.061 223.566 433.061 208.619C433.061 193.668 419.934 181.551 403.737 181.551H349.606V235.683ZM270.662 113.883H410.503C466.56 113.883 512 159.329 512 215.385C512 271.442 466.56 316.882 410.503 316.882H349.606V398.077H270.662V113.883Z" fill="#ED1C24"/>
<path fill-rule="evenodd" clip-rule="evenodd" d="M200.859 188.317L178.931 267.261H234.322L207.989 172.46V188.317H200.859ZM0 113.883H270.662L349.606 398.077H270.662L255 341.69H158.254L144.357 391.731V398.077L142.582 398.117H63.6375V188.317H0V113.883Z" fill="#ABD037"/>
<path fill-rule="evenodd" clip-rule="evenodd" d="M63.6375 398.117L142.582 113.923L191.722 113.883H207.989V172.46L206.629 167.55L200.859 188.317H144.357V391.731L142.582 398.117H63.6375Z" fill="#00944D"/>
<path fill-rule="evenodd" clip-rule="evenodd" d="M349.606 398.077H270.662V113.883L349.606 398.077Z" fill="#C9252B"/>
</g>
<defs>
<clipPath id="clip0_9_10">
<rect width="512" height="512" fill="white"/>
</clipPath>
</defs>
</svg>
