<svg width="512" height="512" viewBox="0 0 512 512" fill="none" xmlns="http://www.w3.org/2000/svg">
<path fill-rule="evenodd" clip-rule="evenodd" d="M68.2831 215.443L0 298.725V318.582H104.72V296.305H54.0478C46.5637 296.305 40.0633 296.538 33.0614 296.538L102.058 212.288V193.418H4.34002V215.443H47.5281C55.263 215.443 61.0497 215.675 68.2831 215.443ZM235.982 281.538H208.225C203.885 293.886 191.829 299.441 177.594 299.441C157.803 299.441 143.8 285.893 141.639 263.868H237.66C237.911 261.681 237.911 259.745 237.911 258.545C237.66 222.953 220.3 190.031 177.594 190.031C141.389 190.031 114.847 217.63 114.847 255.623C114.847 295.086 140.193 321.969 177.594 321.969C207.261 321.969 228.748 306.95 235.982 281.538ZM141.871 244.01C144.533 224.636 157.803 211.804 177.594 211.804C198.33 211.804 208.707 226.088 210.405 244.01H141.871ZM288.583 193.418H261.077V318.582H289.065V261.448C289.065 228.991 301.121 222.469 313.427 220.049C317.285 218.83 324.518 218.83 325.965 218.83V192.198C308.123 192.45 295.083 199.224 288.583 216.643V193.418ZM401.25 321.969C437.919 321.969 465.425 295.338 465.425 256.106C465.425 216.895 437.919 190.031 401.25 190.031C364.331 190.031 336.825 216.895 336.825 256.106C336.825 295.338 364.331 321.969 401.25 321.969ZM364.099 256.106C364.099 232.146 378.817 212.772 401.25 212.772C423.452 212.772 438.169 232.146 438.169 256.106C438.169 279.835 423.452 299.209 401.25 299.209C378.817 299.209 364.099 279.835 364.099 256.106ZM481.84 318.582H512V287.594H481.84V318.582Z" fill="#005AD2"/>
</svg>
